%
M48
M72
T01C0.01378
T02C0.04000
%
T01
X115299Y151728
X115299Y171728
X130299Y187353
X145299Y147978
X111549Y231103
X92799Y256728
T02
X95299Y117728
X95299Y127728
X105299Y127728
X95299Y137728
X95299Y147728
X95299Y157728
X95299Y167728
X95299Y177728
X95299Y187728
X95299Y197728
X95299Y207728
X95299Y217728
X95299Y227728
X95299Y237728
X95299Y247728
X105299Y247728
X115299Y247728
X125299Y247728
X135299Y247728
X145299Y247728
X155299Y247728
X155299Y237728
X155299Y227728
X155299Y217728
X145299Y207728
X135299Y207728
X125299Y207728
X115299Y207728
X165299Y207728
X165299Y197728
X165299Y187728
X165299Y177728
X165299Y167728
X165299Y157728
X165299Y147728
X165299Y137728
X155299Y137728
X155299Y127728
X155299Y117728
X135299Y127728
X125299Y127728
X115299Y127728
X115299Y337728
X125299Y337728
X135299Y337728
X145299Y337728
X105299Y337728
M30
