G75*
%MOIN*%
%OFA0B0*%
%FSLAX25Y25*%
%IPPOS*%
%LPD*%
%AMOC8*
5,1,8,0,0,1.08239X$1,22.5*
%
%ADD10C,0.00299*%
%ADD11C,0.07400*%
%ADD12C,0.01600*%
%ADD13C,0.02978*%
%ADD14C,0.00600*%
D10*
X0082516Y0109728D02*
X0168082Y0109728D01*
X0175299Y0122228D01*
X0175299Y0362665D01*
X0168082Y0375165D01*
X0082516Y0375165D01*
X0075299Y0362665D01*
X0075299Y0122228D01*
X0082516Y0109728D01*
D11*
X0095299Y0117728D03*
X0095299Y0127728D03*
X0105299Y0127728D03*
X0095299Y0137728D03*
X0095299Y0147728D03*
X0095299Y0157728D03*
X0095299Y0167728D03*
X0095299Y0177728D03*
X0095299Y0187728D03*
X0095299Y0197728D03*
X0095299Y0207728D03*
X0095299Y0217728D03*
X0095299Y0227728D03*
X0095299Y0237728D03*
X0095299Y0247728D03*
X0105299Y0247728D03*
X0115299Y0247728D03*
X0125299Y0247728D03*
X0135299Y0247728D03*
X0145299Y0247728D03*
X0155299Y0247728D03*
X0155299Y0237728D03*
X0155299Y0227728D03*
X0155299Y0217728D03*
X0145299Y0207728D03*
X0135299Y0207728D03*
X0125299Y0207728D03*
X0115299Y0207728D03*
X0165299Y0207728D03*
X0165299Y0197728D03*
X0165299Y0187728D03*
X0165299Y0177728D03*
X0165299Y0167728D03*
X0165299Y0157728D03*
X0165299Y0147728D03*
X0165299Y0137728D03*
X0155299Y0137728D03*
X0155299Y0127728D03*
X0155299Y0117728D03*
X0135299Y0127728D03*
X0125299Y0127728D03*
X0115299Y0127728D03*
X0115299Y0337728D03*
X0125299Y0337728D03*
X0135299Y0337728D03*
X0145299Y0337728D03*
X0105299Y0337728D03*
D12*
X0135299Y0337728D02*
X0135299Y0332728D01*
X0092799Y0256728D02*
X0082799Y0246728D01*
X0082799Y0130228D01*
X0095299Y0117728D01*
X0115299Y0127728D02*
X0115299Y0151728D01*
X0105924Y0157978D02*
X0096549Y0167353D01*
X0095299Y0167353D01*
X0095299Y0167728D01*
X0095299Y0177353D02*
X0095299Y0177728D01*
X0095299Y0177353D02*
X0148424Y0177353D01*
X0157799Y0167978D01*
X0165299Y0167978D01*
X0165299Y0167728D01*
X0165299Y0157978D02*
X0165299Y0157728D01*
X0165299Y0157978D02*
X0105924Y0157978D01*
X0130299Y0187353D02*
X0165299Y0187353D01*
X0165299Y0187728D01*
X0145299Y0147978D02*
X0155299Y0137978D01*
X0155299Y0137728D01*
X0111549Y0231103D02*
X0095299Y0247353D01*
X0095299Y0247728D01*
D13*
X0092799Y0256728D03*
X0111549Y0231103D03*
X0130299Y0187353D03*
X0115299Y0171728D03*
X0115299Y0151728D03*
X0145299Y0147978D03*
D14*
X0142541Y0146826D02*
X0100499Y0146826D01*
X0100499Y0146694D02*
X0100499Y0148763D01*
X0099708Y0150674D01*
X0098245Y0152137D01*
X0096816Y0152728D01*
X0098245Y0153320D01*
X0099708Y0154783D01*
X0100499Y0156694D01*
X0100499Y0158763D01*
X0099708Y0160674D01*
X0098245Y0162137D01*
X0096816Y0162728D01*
X0097598Y0163052D01*
X0104972Y0155678D01*
X0160520Y0155678D01*
X0160891Y0154783D01*
X0162354Y0153320D01*
X0163782Y0152728D01*
X0162354Y0152137D01*
X0160891Y0150674D01*
X0160099Y0148763D01*
X0160099Y0146694D01*
X0160891Y0144783D01*
X0162354Y0143320D01*
X0163782Y0142728D01*
X0162354Y0142137D01*
X0160891Y0140674D01*
X0160299Y0139245D01*
X0159708Y0140674D01*
X0158245Y0142137D01*
X0156334Y0142928D01*
X0154265Y0142928D01*
X0153796Y0142734D01*
X0148288Y0148242D01*
X0148288Y0148573D01*
X0147833Y0149671D01*
X0146992Y0150512D01*
X0145894Y0150967D01*
X0144705Y0150967D01*
X0143606Y0150512D01*
X0142765Y0149671D01*
X0142310Y0148573D01*
X0142310Y0147384D01*
X0142765Y0146285D01*
X0143606Y0145444D01*
X0144705Y0144989D01*
X0145035Y0144989D01*
X0150440Y0139585D01*
X0150099Y0138763D01*
X0150099Y0136694D01*
X0150891Y0134783D01*
X0152354Y0133320D01*
X0153782Y0132728D01*
X0152354Y0132137D01*
X0150891Y0130674D01*
X0150099Y0128763D01*
X0150099Y0126694D01*
X0150891Y0124783D01*
X0152354Y0123320D01*
X0154101Y0122596D01*
X0153380Y0122362D01*
X0152679Y0122005D01*
X0152042Y0121542D01*
X0151485Y0120986D01*
X0151023Y0120349D01*
X0150666Y0119648D01*
X0150422Y0118899D01*
X0150299Y0118122D01*
X0150299Y0118028D01*
X0154999Y0118028D01*
X0154999Y0117428D01*
X0155599Y0117428D01*
X0155599Y0112728D01*
X0155693Y0112728D01*
X0156470Y0112851D01*
X0157219Y0113095D01*
X0157920Y0113452D01*
X0158556Y0113915D01*
X0159113Y0114471D01*
X0159576Y0115108D01*
X0159933Y0115809D01*
X0160176Y0116558D01*
X0160299Y0117335D01*
X0160299Y0117428D01*
X0155599Y0117428D01*
X0155599Y0118028D01*
X0160299Y0118028D01*
X0160299Y0118122D01*
X0160176Y0118899D01*
X0159933Y0119648D01*
X0159576Y0120349D01*
X0159113Y0120986D01*
X0158556Y0121542D01*
X0157920Y0122005D01*
X0157219Y0122362D01*
X0156498Y0122596D01*
X0158245Y0123320D01*
X0159708Y0124783D01*
X0160499Y0126694D01*
X0160499Y0128763D01*
X0159708Y0130674D01*
X0158245Y0132137D01*
X0156816Y0132728D01*
X0158245Y0133320D01*
X0159708Y0134783D01*
X0160299Y0136211D01*
X0160891Y0134783D01*
X0162354Y0133320D01*
X0164265Y0132528D01*
X0166334Y0132528D01*
X0168245Y0133320D01*
X0169708Y0134783D01*
X0170499Y0136694D01*
X0170499Y0138763D01*
X0169708Y0140674D01*
X0168245Y0142137D01*
X0166816Y0142728D01*
X0168245Y0143320D01*
X0169708Y0144783D01*
X0170499Y0146694D01*
X0170499Y0148763D01*
X0169708Y0150674D01*
X0168245Y0152137D01*
X0166816Y0152728D01*
X0168245Y0153320D01*
X0169708Y0154783D01*
X0170499Y0156694D01*
X0170499Y0158763D01*
X0169708Y0160674D01*
X0168245Y0162137D01*
X0166816Y0162728D01*
X0168245Y0163320D01*
X0169708Y0164783D01*
X0170499Y0166694D01*
X0170499Y0168763D01*
X0169708Y0170674D01*
X0168245Y0172137D01*
X0166816Y0172728D01*
X0168245Y0173320D01*
X0169708Y0174783D01*
X0170499Y0176694D01*
X0170499Y0178763D01*
X0169708Y0180674D01*
X0168245Y0182137D01*
X0166816Y0182728D01*
X0168245Y0183320D01*
X0169708Y0184783D01*
X0170499Y0186694D01*
X0170499Y0188763D01*
X0169708Y0190674D01*
X0168245Y0192137D01*
X0166816Y0192728D01*
X0168245Y0193320D01*
X0169708Y0194783D01*
X0170499Y0196694D01*
X0170499Y0198763D01*
X0169708Y0200674D01*
X0168245Y0202137D01*
X0166498Y0202860D01*
X0167219Y0203095D01*
X0167920Y0203452D01*
X0168556Y0203915D01*
X0169113Y0204471D01*
X0169576Y0205108D01*
X0169933Y0205809D01*
X0170176Y0206558D01*
X0170299Y0207335D01*
X0170299Y0207428D01*
X0165599Y0207428D01*
X0165599Y0208028D01*
X0170299Y0208028D01*
X0170299Y0208122D01*
X0170176Y0208899D01*
X0169933Y0209648D01*
X0169576Y0210349D01*
X0169113Y0210986D01*
X0168556Y0211542D01*
X0167920Y0212005D01*
X0167219Y0212362D01*
X0166470Y0212605D01*
X0165693Y0212728D01*
X0165599Y0212728D01*
X0165599Y0208028D01*
X0164999Y0208028D01*
X0164999Y0207428D01*
X0160299Y0207428D01*
X0160299Y0207335D01*
X0160422Y0206558D01*
X0160666Y0205809D01*
X0161023Y0205108D01*
X0161485Y0204471D01*
X0162042Y0203915D01*
X0162679Y0203452D01*
X0163380Y0203095D01*
X0164101Y0202860D01*
X0162354Y0202137D01*
X0160891Y0200674D01*
X0160099Y0198763D01*
X0160099Y0196694D01*
X0160891Y0194783D01*
X0162354Y0193320D01*
X0163782Y0192728D01*
X0162354Y0192137D01*
X0160891Y0190674D01*
X0160468Y0189653D01*
X0132226Y0189653D01*
X0131992Y0189887D01*
X0130894Y0190342D01*
X0129705Y0190342D01*
X0128606Y0189887D01*
X0127765Y0189046D01*
X0127310Y0187948D01*
X0127310Y0186759D01*
X0127765Y0185660D01*
X0128606Y0184819D01*
X0129705Y0184364D01*
X0130894Y0184364D01*
X0131992Y0184819D01*
X0132226Y0185053D01*
X0160779Y0185053D01*
X0160891Y0184783D01*
X0162354Y0183320D01*
X0163782Y0182728D01*
X0162354Y0182137D01*
X0160891Y0180674D01*
X0160099Y0178763D01*
X0160099Y0176694D01*
X0160891Y0174783D01*
X0162354Y0173320D01*
X0163782Y0172728D01*
X0162354Y0172137D01*
X0160891Y0170674D01*
X0160727Y0170278D01*
X0158752Y0170278D01*
X0150724Y0178306D01*
X0149377Y0179653D01*
X0100130Y0179653D01*
X0099708Y0180674D01*
X0098245Y0182137D01*
X0096816Y0182728D01*
X0098245Y0183320D01*
X0099708Y0184783D01*
X0100499Y0186694D01*
X0100499Y0188763D01*
X0099708Y0190674D01*
X0098245Y0192137D01*
X0096816Y0192728D01*
X0098245Y0193320D01*
X0099708Y0194783D01*
X0100499Y0196694D01*
X0100499Y0198763D01*
X0099708Y0200674D01*
X0098245Y0202137D01*
X0096816Y0202728D01*
X0098245Y0203320D01*
X0099708Y0204783D01*
X0100499Y0206694D01*
X0100499Y0208763D01*
X0099708Y0210674D01*
X0098245Y0212137D01*
X0096816Y0212728D01*
X0098245Y0213320D01*
X0099708Y0214783D01*
X0100499Y0216694D01*
X0100499Y0218763D01*
X0099708Y0220674D01*
X0098245Y0222137D01*
X0096816Y0222728D01*
X0098245Y0223320D01*
X0099708Y0224783D01*
X0100499Y0226694D01*
X0100499Y0228763D01*
X0099708Y0230674D01*
X0098245Y0232137D01*
X0096816Y0232728D01*
X0098245Y0233320D01*
X0099708Y0234783D01*
X0100499Y0236694D01*
X0100499Y0238763D01*
X0100402Y0238998D01*
X0108560Y0230840D01*
X0108560Y0230509D01*
X0109015Y0229410D01*
X0109856Y0228569D01*
X0110955Y0228114D01*
X0112144Y0228114D01*
X0113242Y0228569D01*
X0114083Y0229410D01*
X0114538Y0230509D01*
X0114538Y0231698D01*
X0114083Y0232796D01*
X0113242Y0233637D01*
X0112144Y0234092D01*
X0111813Y0234092D01*
X0102749Y0243156D01*
X0104265Y0242528D01*
X0106334Y0242528D01*
X0108245Y0243320D01*
X0109708Y0244783D01*
X0110299Y0246211D01*
X0110891Y0244783D01*
X0112354Y0243320D01*
X0114265Y0242528D01*
X0116334Y0242528D01*
X0118245Y0243320D01*
X0119708Y0244783D01*
X0120431Y0246530D01*
X0120666Y0245809D01*
X0121023Y0245108D01*
X0121485Y0244471D01*
X0122042Y0243915D01*
X0122679Y0243452D01*
X0123380Y0243095D01*
X0124128Y0242851D01*
X0124906Y0242728D01*
X0124999Y0242728D01*
X0124999Y0247428D01*
X0125599Y0247428D01*
X0125599Y0242728D01*
X0125693Y0242728D01*
X0126470Y0242851D01*
X0127219Y0243095D01*
X0127920Y0243452D01*
X0128556Y0243915D01*
X0129113Y0244471D01*
X0129576Y0245108D01*
X0129933Y0245809D01*
X0130167Y0246530D01*
X0130891Y0244783D01*
X0132354Y0243320D01*
X0134265Y0242528D01*
X0136334Y0242528D01*
X0138245Y0243320D01*
X0139708Y0244783D01*
X0140299Y0246211D01*
X0140891Y0244783D01*
X0142354Y0243320D01*
X0144265Y0242528D01*
X0146334Y0242528D01*
X0148245Y0243320D01*
X0149708Y0244783D01*
X0150299Y0246211D01*
X0150891Y0244783D01*
X0152354Y0243320D01*
X0153782Y0242728D01*
X0152354Y0242137D01*
X0150891Y0240674D01*
X0150099Y0238763D01*
X0150099Y0236694D01*
X0150891Y0234783D01*
X0152354Y0233320D01*
X0153782Y0232728D01*
X0152354Y0232137D01*
X0150891Y0230674D01*
X0150099Y0228763D01*
X0150099Y0226694D01*
X0150891Y0224783D01*
X0152354Y0223320D01*
X0153782Y0222728D01*
X0152354Y0222137D01*
X0150891Y0220674D01*
X0150099Y0218763D01*
X0150099Y0216694D01*
X0150891Y0214783D01*
X0152354Y0213320D01*
X0154265Y0212528D01*
X0156334Y0212528D01*
X0158245Y0213320D01*
X0159708Y0214783D01*
X0160499Y0216694D01*
X0160499Y0218763D01*
X0159708Y0220674D01*
X0158245Y0222137D01*
X0156816Y0222728D01*
X0158245Y0223320D01*
X0159708Y0224783D01*
X0160499Y0226694D01*
X0160499Y0228763D01*
X0159708Y0230674D01*
X0158245Y0232137D01*
X0156816Y0232728D01*
X0158245Y0233320D01*
X0159708Y0234783D01*
X0160499Y0236694D01*
X0160499Y0238763D01*
X0159708Y0240674D01*
X0158245Y0242137D01*
X0156816Y0242728D01*
X0158245Y0243320D01*
X0159708Y0244783D01*
X0160499Y0246694D01*
X0160499Y0248763D01*
X0159708Y0250674D01*
X0158245Y0252137D01*
X0156334Y0252928D01*
X0154265Y0252928D01*
X0152354Y0252137D01*
X0150891Y0250674D01*
X0150299Y0249245D01*
X0149708Y0250674D01*
X0148245Y0252137D01*
X0146334Y0252928D01*
X0144265Y0252928D01*
X0142354Y0252137D01*
X0140891Y0250674D01*
X0140299Y0249245D01*
X0139708Y0250674D01*
X0138245Y0252137D01*
X0136334Y0252928D01*
X0134265Y0252928D01*
X0132354Y0252137D01*
X0130891Y0250674D01*
X0130167Y0248927D01*
X0129933Y0249648D01*
X0129576Y0250349D01*
X0129113Y0250986D01*
X0128556Y0251542D01*
X0127920Y0252005D01*
X0127219Y0252362D01*
X0126470Y0252605D01*
X0125693Y0252728D01*
X0125599Y0252728D01*
X0125599Y0248028D01*
X0124999Y0248028D01*
X0124999Y0252728D01*
X0124906Y0252728D01*
X0124128Y0252605D01*
X0123380Y0252362D01*
X0122679Y0252005D01*
X0122042Y0251542D01*
X0121485Y0250986D01*
X0121023Y0250349D01*
X0120666Y0249648D01*
X0120431Y0248927D01*
X0119708Y0250674D01*
X0118245Y0252137D01*
X0116334Y0252928D01*
X0114265Y0252928D01*
X0112354Y0252137D01*
X0110891Y0250674D01*
X0110299Y0249245D01*
X0109708Y0250674D01*
X0108245Y0252137D01*
X0106334Y0252928D01*
X0104265Y0252928D01*
X0102354Y0252137D01*
X0100891Y0250674D01*
X0100299Y0249245D01*
X0099708Y0250674D01*
X0098245Y0252137D01*
X0096334Y0252928D01*
X0094265Y0252928D01*
X0092354Y0252137D01*
X0090891Y0250674D01*
X0090099Y0248763D01*
X0090099Y0246694D01*
X0090891Y0244783D01*
X0092354Y0243320D01*
X0093782Y0242728D01*
X0092354Y0242137D01*
X0090891Y0240674D01*
X0090099Y0238763D01*
X0090099Y0236694D01*
X0090891Y0234783D01*
X0092354Y0233320D01*
X0093782Y0232728D01*
X0092354Y0232137D01*
X0090891Y0230674D01*
X0090099Y0228763D01*
X0090099Y0226694D01*
X0090891Y0224783D01*
X0092354Y0223320D01*
X0093782Y0222728D01*
X0092354Y0222137D01*
X0090891Y0220674D01*
X0090099Y0218763D01*
X0090099Y0216694D01*
X0090891Y0214783D01*
X0092354Y0213320D01*
X0093782Y0212728D01*
X0092354Y0212137D01*
X0090891Y0210674D01*
X0090099Y0208763D01*
X0090099Y0206694D01*
X0090891Y0204783D01*
X0092354Y0203320D01*
X0093782Y0202728D01*
X0092354Y0202137D01*
X0090891Y0200674D01*
X0090099Y0198763D01*
X0090099Y0196694D01*
X0090891Y0194783D01*
X0092354Y0193320D01*
X0093782Y0192728D01*
X0092354Y0192137D01*
X0090891Y0190674D01*
X0090099Y0188763D01*
X0090099Y0186694D01*
X0090891Y0184783D01*
X0092354Y0183320D01*
X0093782Y0182728D01*
X0092354Y0182137D01*
X0090891Y0180674D01*
X0090099Y0178763D01*
X0090099Y0176694D01*
X0090891Y0174783D01*
X0092354Y0173320D01*
X0093782Y0172728D01*
X0092354Y0172137D01*
X0090891Y0170674D01*
X0090099Y0168763D01*
X0090099Y0166694D01*
X0090891Y0164783D01*
X0092354Y0163320D01*
X0093782Y0162728D01*
X0092354Y0162137D01*
X0090891Y0160674D01*
X0090099Y0158763D01*
X0090099Y0156694D01*
X0090891Y0154783D01*
X0092354Y0153320D01*
X0093782Y0152728D01*
X0092354Y0152137D01*
X0090891Y0150674D01*
X0090099Y0148763D01*
X0090099Y0146694D01*
X0090891Y0144783D01*
X0092354Y0143320D01*
X0093782Y0142728D01*
X0092354Y0142137D01*
X0090891Y0140674D01*
X0090099Y0138763D01*
X0090099Y0136694D01*
X0090891Y0134783D01*
X0092354Y0133320D01*
X0093782Y0132728D01*
X0092354Y0132137D01*
X0090891Y0130674D01*
X0090099Y0128763D01*
X0090099Y0126694D01*
X0090462Y0125818D01*
X0085099Y0131181D01*
X0085099Y0245776D01*
X0093063Y0253739D01*
X0093394Y0253739D01*
X0094492Y0254194D01*
X0095333Y0255035D01*
X0095788Y0256134D01*
X0095788Y0257323D01*
X0095333Y0258421D01*
X0094492Y0259262D01*
X0093394Y0259717D01*
X0092205Y0259717D01*
X0091106Y0259262D01*
X0090265Y0258421D01*
X0089810Y0257323D01*
X0089810Y0256992D01*
X0081847Y0249028D01*
X0080499Y0247681D01*
X0080499Y0129276D01*
X0090367Y0119408D01*
X0090099Y0118763D01*
X0090099Y0116694D01*
X0090891Y0114783D01*
X0092354Y0113320D01*
X0094265Y0112528D01*
X0096334Y0112528D01*
X0098245Y0113320D01*
X0099708Y0114783D01*
X0100499Y0116694D01*
X0100499Y0118763D01*
X0099708Y0120674D01*
X0098245Y0122137D01*
X0096816Y0122728D01*
X0098245Y0123320D01*
X0099708Y0124783D01*
X0100299Y0126211D01*
X0100891Y0124783D01*
X0102354Y0123320D01*
X0104265Y0122528D01*
X0106334Y0122528D01*
X0108245Y0123320D01*
X0109708Y0124783D01*
X0110431Y0126530D01*
X0110666Y0125809D01*
X0111023Y0125108D01*
X0111485Y0124471D01*
X0112042Y0123915D01*
X0112679Y0123452D01*
X0113380Y0123095D01*
X0114128Y0122851D01*
X0114906Y0122728D01*
X0114999Y0122728D01*
X0114999Y0127428D01*
X0115599Y0127428D01*
X0115599Y0122728D01*
X0115693Y0122728D01*
X0116470Y0122851D01*
X0117219Y0123095D01*
X0117920Y0123452D01*
X0118556Y0123915D01*
X0119113Y0124471D01*
X0119576Y0125108D01*
X0119933Y0125809D01*
X0120176Y0126558D01*
X0120299Y0127335D01*
X0120299Y0127428D01*
X0115599Y0127428D01*
X0115599Y0128028D01*
X0120299Y0128028D01*
X0120299Y0128122D01*
X0120299Y0128028D01*
X0124999Y0128028D01*
X0124999Y0127428D01*
X0125599Y0127428D01*
X0125599Y0122728D01*
X0125693Y0122728D01*
X0126470Y0122851D01*
X0127219Y0123095D01*
X0127920Y0123452D01*
X0128556Y0123915D01*
X0129113Y0124471D01*
X0129576Y0125108D01*
X0129933Y0125809D01*
X0130167Y0126530D01*
X0130891Y0124783D01*
X0132354Y0123320D01*
X0134265Y0122528D01*
X0136334Y0122528D01*
X0138245Y0123320D01*
X0139708Y0124783D01*
X0140499Y0126694D01*
X0140499Y0128763D01*
X0139708Y0130674D01*
X0138245Y0132137D01*
X0136334Y0132928D01*
X0134265Y0132928D01*
X0132354Y0132137D01*
X0130891Y0130674D01*
X0130167Y0128927D01*
X0129933Y0129648D01*
X0129576Y0130349D01*
X0129113Y0130986D01*
X0128556Y0131542D01*
X0127920Y0132005D01*
X0127219Y0132362D01*
X0126470Y0132605D01*
X0125693Y0132728D01*
X0125599Y0132728D01*
X0125599Y0128028D01*
X0124999Y0128028D01*
X0124999Y0132728D01*
X0124906Y0132728D01*
X0124128Y0132605D01*
X0123380Y0132362D01*
X0122679Y0132005D01*
X0122042Y0131542D01*
X0121485Y0130986D01*
X0121023Y0130349D01*
X0120666Y0129648D01*
X0120422Y0128899D01*
X0120299Y0128122D01*
X0120176Y0128899D01*
X0119933Y0129648D01*
X0119576Y0130349D01*
X0119113Y0130986D01*
X0118556Y0131542D01*
X0117920Y0132005D01*
X0117219Y0132362D01*
X0116470Y0132605D01*
X0115693Y0132728D01*
X0115599Y0132728D01*
X0115599Y0128028D01*
X0114999Y0128028D01*
X0114999Y0132728D01*
X0114906Y0132728D01*
X0114128Y0132605D01*
X0113380Y0132362D01*
X0112679Y0132005D01*
X0112042Y0131542D01*
X0111485Y0130986D01*
X0111023Y0130349D01*
X0110666Y0129648D01*
X0110431Y0128927D01*
X0109708Y0130674D01*
X0108245Y0132137D01*
X0106334Y0132928D01*
X0104265Y0132928D01*
X0102354Y0132137D01*
X0100891Y0130674D01*
X0100299Y0129245D01*
X0099708Y0130674D01*
X0098245Y0132137D01*
X0096816Y0132728D01*
X0098245Y0133320D01*
X0099708Y0134783D01*
X0100499Y0136694D01*
X0100499Y0138763D01*
X0099708Y0140674D01*
X0098245Y0142137D01*
X0096816Y0142728D01*
X0098245Y0143320D01*
X0099708Y0144783D01*
X0100499Y0146694D01*
X0100306Y0146227D02*
X0142823Y0146227D01*
X0143422Y0145629D02*
X0100058Y0145629D01*
X0099810Y0145030D02*
X0144606Y0145030D01*
X0145593Y0144432D02*
X0099356Y0144432D01*
X0098758Y0143833D02*
X0146192Y0143833D01*
X0146790Y0143234D02*
X0098038Y0143234D01*
X0097039Y0142636D02*
X0147389Y0142636D01*
X0147987Y0142037D02*
X0098344Y0142037D01*
X0098942Y0141439D02*
X0148586Y0141439D01*
X0149184Y0140840D02*
X0099541Y0140840D01*
X0099886Y0140242D02*
X0149783Y0140242D01*
X0150381Y0139643D02*
X0100134Y0139643D01*
X0100382Y0139045D02*
X0150216Y0139045D01*
X0150099Y0138446D02*
X0100499Y0138446D01*
X0100499Y0137848D02*
X0150099Y0137848D01*
X0150099Y0137249D02*
X0100499Y0137249D01*
X0100481Y0136651D02*
X0150117Y0136651D01*
X0150365Y0136052D02*
X0100233Y0136052D01*
X0099986Y0135454D02*
X0150613Y0135454D01*
X0150861Y0134855D02*
X0099738Y0134855D01*
X0099182Y0134257D02*
X0151417Y0134257D01*
X0152015Y0133658D02*
X0098583Y0133658D01*
X0097617Y0133060D02*
X0152982Y0133060D01*
X0153137Y0132461D02*
X0137461Y0132461D01*
X0138519Y0131863D02*
X0152080Y0131863D01*
X0151481Y0131264D02*
X0139117Y0131264D01*
X0139711Y0130666D02*
X0150887Y0130666D01*
X0150640Y0130067D02*
X0139959Y0130067D01*
X0140207Y0129469D02*
X0150392Y0129469D01*
X0150144Y0128870D02*
X0140455Y0128870D01*
X0140499Y0128272D02*
X0150099Y0128272D01*
X0150099Y0127673D02*
X0140499Y0127673D01*
X0140499Y0127075D02*
X0150099Y0127075D01*
X0150189Y0126476D02*
X0140409Y0126476D01*
X0140161Y0125878D02*
X0150437Y0125878D01*
X0150685Y0125279D02*
X0139913Y0125279D01*
X0139605Y0124681D02*
X0150993Y0124681D01*
X0151591Y0124082D02*
X0139007Y0124082D01*
X0138408Y0123484D02*
X0152190Y0123484D01*
X0153404Y0122885D02*
X0137195Y0122885D01*
X0133404Y0122885D02*
X0126574Y0122885D01*
X0125599Y0122885D02*
X0124999Y0122885D01*
X0124999Y0122728D02*
X0124999Y0127428D01*
X0120299Y0127428D01*
X0120299Y0127335D01*
X0120422Y0126558D01*
X0120666Y0125809D01*
X0121023Y0125108D01*
X0121485Y0124471D01*
X0122042Y0123915D01*
X0122679Y0123452D01*
X0123380Y0123095D01*
X0124128Y0122851D01*
X0124906Y0122728D01*
X0124999Y0122728D01*
X0124999Y0123484D02*
X0125599Y0123484D01*
X0125599Y0124082D02*
X0124999Y0124082D01*
X0124999Y0124681D02*
X0125599Y0124681D01*
X0125599Y0125279D02*
X0124999Y0125279D01*
X0124999Y0125878D02*
X0125599Y0125878D01*
X0125599Y0126476D02*
X0124999Y0126476D01*
X0124999Y0127075D02*
X0125599Y0127075D01*
X0124999Y0127673D02*
X0115599Y0127673D01*
X0115599Y0127075D02*
X0114999Y0127075D01*
X0114999Y0126476D02*
X0115599Y0126476D01*
X0115599Y0125878D02*
X0114999Y0125878D01*
X0114999Y0125279D02*
X0115599Y0125279D01*
X0115599Y0124681D02*
X0114999Y0124681D01*
X0114999Y0124082D02*
X0115599Y0124082D01*
X0115599Y0123484D02*
X0114999Y0123484D01*
X0114999Y0122885D02*
X0115599Y0122885D01*
X0116574Y0122885D02*
X0124025Y0122885D01*
X0122635Y0123484D02*
X0117963Y0123484D01*
X0118724Y0124082D02*
X0121874Y0124082D01*
X0121333Y0124681D02*
X0119265Y0124681D01*
X0119663Y0125279D02*
X0120935Y0125279D01*
X0120643Y0125878D02*
X0119955Y0125878D01*
X0120150Y0126476D02*
X0120449Y0126476D01*
X0120340Y0127075D02*
X0120258Y0127075D01*
X0120275Y0128272D02*
X0120323Y0128272D01*
X0120418Y0128870D02*
X0120181Y0128870D01*
X0119991Y0129469D02*
X0120607Y0129469D01*
X0120879Y0130067D02*
X0119719Y0130067D01*
X0119345Y0130666D02*
X0121253Y0130666D01*
X0121764Y0131264D02*
X0118834Y0131264D01*
X0118115Y0131863D02*
X0122483Y0131863D01*
X0123685Y0132461D02*
X0116913Y0132461D01*
X0115599Y0132461D02*
X0114999Y0132461D01*
X0114999Y0131863D02*
X0115599Y0131863D01*
X0115599Y0131264D02*
X0114999Y0131264D01*
X0114999Y0130666D02*
X0115599Y0130666D01*
X0115599Y0130067D02*
X0114999Y0130067D01*
X0114999Y0129469D02*
X0115599Y0129469D01*
X0115599Y0128870D02*
X0114999Y0128870D01*
X0114999Y0128272D02*
X0115599Y0128272D01*
X0113685Y0132461D02*
X0107461Y0132461D01*
X0108519Y0131863D02*
X0112483Y0131863D01*
X0111764Y0131264D02*
X0109117Y0131264D01*
X0109711Y0130666D02*
X0111253Y0130666D01*
X0110879Y0130067D02*
X0109959Y0130067D01*
X0110207Y0129469D02*
X0110607Y0129469D01*
X0110449Y0126476D02*
X0110409Y0126476D01*
X0110643Y0125878D02*
X0110161Y0125878D01*
X0109913Y0125279D02*
X0110935Y0125279D01*
X0111333Y0124681D02*
X0109605Y0124681D01*
X0109007Y0124082D02*
X0111874Y0124082D01*
X0112635Y0123484D02*
X0108408Y0123484D01*
X0107195Y0122885D02*
X0114025Y0122885D01*
X0103404Y0122885D02*
X0097195Y0122885D01*
X0097883Y0122287D02*
X0153232Y0122287D01*
X0152243Y0121688D02*
X0098693Y0121688D01*
X0099292Y0121090D02*
X0151589Y0121090D01*
X0151126Y0120491D02*
X0099783Y0120491D01*
X0100031Y0119893D02*
X0150790Y0119893D01*
X0150551Y0119294D02*
X0100279Y0119294D01*
X0100499Y0118696D02*
X0150390Y0118696D01*
X0150299Y0118097D02*
X0100499Y0118097D01*
X0100499Y0117499D02*
X0154999Y0117499D01*
X0154999Y0117428D02*
X0150299Y0117428D01*
X0150299Y0117335D01*
X0150422Y0116558D01*
X0150666Y0115809D01*
X0151023Y0115108D01*
X0151485Y0114471D01*
X0152042Y0113915D01*
X0152679Y0113452D01*
X0153380Y0113095D01*
X0154128Y0112851D01*
X0154906Y0112728D01*
X0154999Y0112728D01*
X0154999Y0117428D01*
X0154999Y0116900D02*
X0155599Y0116900D01*
X0155599Y0117499D02*
X0170202Y0117499D01*
X0170547Y0118097D02*
X0160299Y0118097D01*
X0160208Y0118696D02*
X0170893Y0118696D01*
X0171238Y0119294D02*
X0160048Y0119294D01*
X0159808Y0119893D02*
X0171584Y0119893D01*
X0171930Y0120491D02*
X0159472Y0120491D01*
X0159009Y0121090D02*
X0172275Y0121090D01*
X0172621Y0121688D02*
X0158356Y0121688D01*
X0157367Y0122287D02*
X0172966Y0122287D01*
X0173250Y0122778D02*
X0166899Y0111778D01*
X0083699Y0111778D01*
X0077349Y0122778D01*
X0077349Y0357809D01*
X0087799Y0332728D01*
X0103782Y0332728D01*
X0104265Y0332528D01*
X0106334Y0332528D01*
X0106816Y0332728D01*
X0113782Y0332728D01*
X0114265Y0332528D01*
X0116334Y0332528D01*
X0116816Y0332728D01*
X0123782Y0332728D01*
X0124265Y0332528D01*
X0126334Y0332528D01*
X0126816Y0332728D01*
X0143782Y0332728D01*
X0144265Y0332528D01*
X0146334Y0332528D01*
X0146816Y0332728D01*
X0163299Y0332728D01*
X0173250Y0357190D01*
X0173250Y0122778D01*
X0173250Y0122885D02*
X0157195Y0122885D01*
X0158408Y0123484D02*
X0173250Y0123484D01*
X0173250Y0124082D02*
X0159007Y0124082D01*
X0159605Y0124681D02*
X0173250Y0124681D01*
X0173250Y0125279D02*
X0159913Y0125279D01*
X0160161Y0125878D02*
X0173250Y0125878D01*
X0173250Y0126476D02*
X0160409Y0126476D01*
X0160499Y0127075D02*
X0173250Y0127075D01*
X0173250Y0127673D02*
X0160499Y0127673D01*
X0160499Y0128272D02*
X0173250Y0128272D01*
X0173250Y0128870D02*
X0160455Y0128870D01*
X0160207Y0129469D02*
X0173250Y0129469D01*
X0173250Y0130067D02*
X0159959Y0130067D01*
X0159711Y0130666D02*
X0173250Y0130666D01*
X0173250Y0131264D02*
X0159117Y0131264D01*
X0158519Y0131863D02*
X0173250Y0131863D01*
X0173250Y0132461D02*
X0157461Y0132461D01*
X0157617Y0133060D02*
X0162982Y0133060D01*
X0162015Y0133658D02*
X0158583Y0133658D01*
X0159182Y0134257D02*
X0161417Y0134257D01*
X0160861Y0134855D02*
X0159738Y0134855D01*
X0159986Y0135454D02*
X0160613Y0135454D01*
X0160365Y0136052D02*
X0160233Y0136052D01*
X0160134Y0139643D02*
X0160464Y0139643D01*
X0160712Y0140242D02*
X0159886Y0140242D01*
X0159541Y0140840D02*
X0161057Y0140840D01*
X0161656Y0141439D02*
X0158942Y0141439D01*
X0158344Y0142037D02*
X0162254Y0142037D01*
X0162560Y0143234D02*
X0153296Y0143234D01*
X0152697Y0143833D02*
X0161841Y0143833D01*
X0161242Y0144432D02*
X0152099Y0144432D01*
X0151500Y0145030D02*
X0160788Y0145030D01*
X0160541Y0145629D02*
X0150902Y0145629D01*
X0150303Y0146227D02*
X0160293Y0146227D01*
X0160099Y0146826D02*
X0149705Y0146826D01*
X0149106Y0147424D02*
X0160099Y0147424D01*
X0160099Y0148023D02*
X0148508Y0148023D01*
X0148268Y0148621D02*
X0160099Y0148621D01*
X0160288Y0149220D02*
X0148020Y0149220D01*
X0147686Y0149818D02*
X0160536Y0149818D01*
X0160784Y0150417D02*
X0147088Y0150417D01*
X0143510Y0150417D02*
X0099814Y0150417D01*
X0100062Y0149818D02*
X0142912Y0149818D01*
X0142578Y0149220D02*
X0100310Y0149220D01*
X0100499Y0148621D02*
X0142330Y0148621D01*
X0142310Y0148023D02*
X0100499Y0148023D01*
X0100499Y0147424D02*
X0142310Y0147424D01*
X0133137Y0132461D02*
X0126913Y0132461D01*
X0125599Y0132461D02*
X0124999Y0132461D01*
X0124999Y0131863D02*
X0125599Y0131863D01*
X0125599Y0131264D02*
X0124999Y0131264D01*
X0124999Y0130666D02*
X0125599Y0130666D01*
X0125599Y0130067D02*
X0124999Y0130067D01*
X0124999Y0129469D02*
X0125599Y0129469D01*
X0125599Y0128870D02*
X0124999Y0128870D01*
X0124999Y0128272D02*
X0125599Y0128272D01*
X0128115Y0131863D02*
X0132080Y0131863D01*
X0131481Y0131264D02*
X0128834Y0131264D01*
X0129345Y0130666D02*
X0130887Y0130666D01*
X0130640Y0130067D02*
X0129719Y0130067D01*
X0129991Y0129469D02*
X0130392Y0129469D01*
X0130189Y0126476D02*
X0130150Y0126476D01*
X0129955Y0125878D02*
X0130437Y0125878D01*
X0130685Y0125279D02*
X0129663Y0125279D01*
X0129265Y0124681D02*
X0130993Y0124681D01*
X0131591Y0124082D02*
X0128724Y0124082D01*
X0127963Y0123484D02*
X0132190Y0123484D01*
X0150368Y0116900D02*
X0100499Y0116900D01*
X0100337Y0116301D02*
X0150506Y0116301D01*
X0150720Y0115703D02*
X0100089Y0115703D01*
X0099841Y0115104D02*
X0151025Y0115104D01*
X0151460Y0114506D02*
X0099431Y0114506D01*
X0098832Y0113907D02*
X0152052Y0113907D01*
X0152959Y0113309D02*
X0098218Y0113309D01*
X0096773Y0112710D02*
X0167437Y0112710D01*
X0167092Y0112112D02*
X0083507Y0112112D01*
X0083161Y0112710D02*
X0093825Y0112710D01*
X0092380Y0113309D02*
X0082816Y0113309D01*
X0082470Y0113907D02*
X0091766Y0113907D01*
X0091168Y0114506D02*
X0082124Y0114506D01*
X0081779Y0115104D02*
X0090758Y0115104D01*
X0090510Y0115703D02*
X0081433Y0115703D01*
X0081088Y0116301D02*
X0090262Y0116301D01*
X0090099Y0116900D02*
X0080742Y0116900D01*
X0080397Y0117499D02*
X0090099Y0117499D01*
X0090099Y0118097D02*
X0080051Y0118097D01*
X0079706Y0118696D02*
X0090099Y0118696D01*
X0090319Y0119294D02*
X0079360Y0119294D01*
X0079014Y0119893D02*
X0089882Y0119893D01*
X0089284Y0120491D02*
X0078669Y0120491D01*
X0078323Y0121090D02*
X0088685Y0121090D01*
X0088087Y0121688D02*
X0077978Y0121688D01*
X0077632Y0122287D02*
X0087488Y0122287D01*
X0086890Y0122885D02*
X0077349Y0122885D01*
X0077349Y0123484D02*
X0086291Y0123484D01*
X0085693Y0124082D02*
X0077349Y0124082D01*
X0077349Y0124681D02*
X0085094Y0124681D01*
X0084496Y0125279D02*
X0077349Y0125279D01*
X0077349Y0125878D02*
X0083897Y0125878D01*
X0083299Y0126476D02*
X0077349Y0126476D01*
X0077349Y0127075D02*
X0082700Y0127075D01*
X0082102Y0127673D02*
X0077349Y0127673D01*
X0077349Y0128272D02*
X0081503Y0128272D01*
X0080905Y0128870D02*
X0077349Y0128870D01*
X0077349Y0129469D02*
X0080499Y0129469D01*
X0080499Y0130067D02*
X0077349Y0130067D01*
X0077349Y0130666D02*
X0080499Y0130666D01*
X0080499Y0131264D02*
X0077349Y0131264D01*
X0077349Y0131863D02*
X0080499Y0131863D01*
X0080499Y0132461D02*
X0077349Y0132461D01*
X0077349Y0133060D02*
X0080499Y0133060D01*
X0080499Y0133658D02*
X0077349Y0133658D01*
X0077349Y0134257D02*
X0080499Y0134257D01*
X0080499Y0134855D02*
X0077349Y0134855D01*
X0077349Y0135454D02*
X0080499Y0135454D01*
X0080499Y0136052D02*
X0077349Y0136052D01*
X0077349Y0136651D02*
X0080499Y0136651D01*
X0080499Y0137249D02*
X0077349Y0137249D01*
X0077349Y0137848D02*
X0080499Y0137848D01*
X0080499Y0138446D02*
X0077349Y0138446D01*
X0077349Y0139045D02*
X0080499Y0139045D01*
X0080499Y0139643D02*
X0077349Y0139643D01*
X0077349Y0140242D02*
X0080499Y0140242D01*
X0080499Y0140840D02*
X0077349Y0140840D01*
X0077349Y0141439D02*
X0080499Y0141439D01*
X0080499Y0142037D02*
X0077349Y0142037D01*
X0077349Y0142636D02*
X0080499Y0142636D01*
X0080499Y0143234D02*
X0077349Y0143234D01*
X0077349Y0143833D02*
X0080499Y0143833D01*
X0080499Y0144432D02*
X0077349Y0144432D01*
X0077349Y0145030D02*
X0080499Y0145030D01*
X0080499Y0145629D02*
X0077349Y0145629D01*
X0077349Y0146227D02*
X0080499Y0146227D01*
X0080499Y0146826D02*
X0077349Y0146826D01*
X0077349Y0147424D02*
X0080499Y0147424D01*
X0080499Y0148023D02*
X0077349Y0148023D01*
X0077349Y0148621D02*
X0080499Y0148621D01*
X0080499Y0149220D02*
X0077349Y0149220D01*
X0077349Y0149818D02*
X0080499Y0149818D01*
X0080499Y0150417D02*
X0077349Y0150417D01*
X0077349Y0151015D02*
X0080499Y0151015D01*
X0080499Y0151614D02*
X0077349Y0151614D01*
X0077349Y0152212D02*
X0080499Y0152212D01*
X0080499Y0152811D02*
X0077349Y0152811D01*
X0077349Y0153409D02*
X0080499Y0153409D01*
X0080499Y0154008D02*
X0077349Y0154008D01*
X0077349Y0154606D02*
X0080499Y0154606D01*
X0080499Y0155205D02*
X0077349Y0155205D01*
X0077349Y0155803D02*
X0080499Y0155803D01*
X0080499Y0156402D02*
X0077349Y0156402D01*
X0077349Y0157000D02*
X0080499Y0157000D01*
X0080499Y0157599D02*
X0077349Y0157599D01*
X0077349Y0158197D02*
X0080499Y0158197D01*
X0080499Y0158796D02*
X0077349Y0158796D01*
X0077349Y0159394D02*
X0080499Y0159394D01*
X0080499Y0159993D02*
X0077349Y0159993D01*
X0077349Y0160591D02*
X0080499Y0160591D01*
X0080499Y0161190D02*
X0077349Y0161190D01*
X0077349Y0161788D02*
X0080499Y0161788D01*
X0080499Y0162387D02*
X0077349Y0162387D01*
X0077349Y0162985D02*
X0080499Y0162985D01*
X0080499Y0163584D02*
X0077349Y0163584D01*
X0077349Y0164182D02*
X0080499Y0164182D01*
X0080499Y0164781D02*
X0077349Y0164781D01*
X0077349Y0165379D02*
X0080499Y0165379D01*
X0080499Y0165978D02*
X0077349Y0165978D01*
X0077349Y0166576D02*
X0080499Y0166576D01*
X0080499Y0167175D02*
X0077349Y0167175D01*
X0077349Y0167773D02*
X0080499Y0167773D01*
X0080499Y0168372D02*
X0077349Y0168372D01*
X0077349Y0168970D02*
X0080499Y0168970D01*
X0080499Y0169569D02*
X0077349Y0169569D01*
X0077349Y0170168D02*
X0080499Y0170168D01*
X0080499Y0170766D02*
X0077349Y0170766D01*
X0077349Y0171365D02*
X0080499Y0171365D01*
X0080499Y0171963D02*
X0077349Y0171963D01*
X0077349Y0172562D02*
X0080499Y0172562D01*
X0080499Y0173160D02*
X0077349Y0173160D01*
X0077349Y0173759D02*
X0080499Y0173759D01*
X0080499Y0174357D02*
X0077349Y0174357D01*
X0077349Y0174956D02*
X0080499Y0174956D01*
X0080499Y0175554D02*
X0077349Y0175554D01*
X0077349Y0176153D02*
X0080499Y0176153D01*
X0080499Y0176751D02*
X0077349Y0176751D01*
X0077349Y0177350D02*
X0080499Y0177350D01*
X0080499Y0177948D02*
X0077349Y0177948D01*
X0077349Y0178547D02*
X0080499Y0178547D01*
X0080499Y0179145D02*
X0077349Y0179145D01*
X0077349Y0179744D02*
X0080499Y0179744D01*
X0080499Y0180342D02*
X0077349Y0180342D01*
X0077349Y0180941D02*
X0080499Y0180941D01*
X0080499Y0181539D02*
X0077349Y0181539D01*
X0077349Y0182138D02*
X0080499Y0182138D01*
X0080499Y0182736D02*
X0077349Y0182736D01*
X0077349Y0183335D02*
X0080499Y0183335D01*
X0080499Y0183933D02*
X0077349Y0183933D01*
X0077349Y0184532D02*
X0080499Y0184532D01*
X0080499Y0185130D02*
X0077349Y0185130D01*
X0077349Y0185729D02*
X0080499Y0185729D01*
X0080499Y0186327D02*
X0077349Y0186327D01*
X0077349Y0186926D02*
X0080499Y0186926D01*
X0080499Y0187524D02*
X0077349Y0187524D01*
X0077349Y0188123D02*
X0080499Y0188123D01*
X0080499Y0188721D02*
X0077349Y0188721D01*
X0077349Y0189320D02*
X0080499Y0189320D01*
X0080499Y0189918D02*
X0077349Y0189918D01*
X0077349Y0190517D02*
X0080499Y0190517D01*
X0080499Y0191115D02*
X0077349Y0191115D01*
X0077349Y0191714D02*
X0080499Y0191714D01*
X0080499Y0192312D02*
X0077349Y0192312D01*
X0077349Y0192911D02*
X0080499Y0192911D01*
X0080499Y0193509D02*
X0077349Y0193509D01*
X0077349Y0194108D02*
X0080499Y0194108D01*
X0080499Y0194706D02*
X0077349Y0194706D01*
X0077349Y0195305D02*
X0080499Y0195305D01*
X0080499Y0195903D02*
X0077349Y0195903D01*
X0077349Y0196502D02*
X0080499Y0196502D01*
X0080499Y0197101D02*
X0077349Y0197101D01*
X0077349Y0197699D02*
X0080499Y0197699D01*
X0080499Y0198298D02*
X0077349Y0198298D01*
X0077349Y0198896D02*
X0080499Y0198896D01*
X0080499Y0199495D02*
X0077349Y0199495D01*
X0077349Y0200093D02*
X0080499Y0200093D01*
X0080499Y0200692D02*
X0077349Y0200692D01*
X0077349Y0201290D02*
X0080499Y0201290D01*
X0080499Y0201889D02*
X0077349Y0201889D01*
X0077349Y0202487D02*
X0080499Y0202487D01*
X0080499Y0203086D02*
X0077349Y0203086D01*
X0077349Y0203684D02*
X0080499Y0203684D01*
X0080499Y0204283D02*
X0077349Y0204283D01*
X0077349Y0204881D02*
X0080499Y0204881D01*
X0080499Y0205480D02*
X0077349Y0205480D01*
X0077349Y0206078D02*
X0080499Y0206078D01*
X0080499Y0206677D02*
X0077349Y0206677D01*
X0077349Y0207275D02*
X0080499Y0207275D01*
X0080499Y0207874D02*
X0077349Y0207874D01*
X0077349Y0208472D02*
X0080499Y0208472D01*
X0080499Y0209071D02*
X0077349Y0209071D01*
X0077349Y0209669D02*
X0080499Y0209669D01*
X0080499Y0210268D02*
X0077349Y0210268D01*
X0077349Y0210866D02*
X0080499Y0210866D01*
X0080499Y0211465D02*
X0077349Y0211465D01*
X0077349Y0212063D02*
X0080499Y0212063D01*
X0080499Y0212662D02*
X0077349Y0212662D01*
X0077349Y0213260D02*
X0080499Y0213260D01*
X0080499Y0213859D02*
X0077349Y0213859D01*
X0077349Y0214457D02*
X0080499Y0214457D01*
X0080499Y0215056D02*
X0077349Y0215056D01*
X0077349Y0215654D02*
X0080499Y0215654D01*
X0080499Y0216253D02*
X0077349Y0216253D01*
X0077349Y0216851D02*
X0080499Y0216851D01*
X0080499Y0217450D02*
X0077349Y0217450D01*
X0077349Y0218048D02*
X0080499Y0218048D01*
X0080499Y0218647D02*
X0077349Y0218647D01*
X0077349Y0219245D02*
X0080499Y0219245D01*
X0080499Y0219844D02*
X0077349Y0219844D01*
X0077349Y0220442D02*
X0080499Y0220442D01*
X0080499Y0221041D02*
X0077349Y0221041D01*
X0077349Y0221639D02*
X0080499Y0221639D01*
X0080499Y0222238D02*
X0077349Y0222238D01*
X0077349Y0222837D02*
X0080499Y0222837D01*
X0080499Y0223435D02*
X0077349Y0223435D01*
X0077349Y0224034D02*
X0080499Y0224034D01*
X0080499Y0224632D02*
X0077349Y0224632D01*
X0077349Y0225231D02*
X0080499Y0225231D01*
X0080499Y0225829D02*
X0077349Y0225829D01*
X0077349Y0226428D02*
X0080499Y0226428D01*
X0080499Y0227026D02*
X0077349Y0227026D01*
X0077349Y0227625D02*
X0080499Y0227625D01*
X0080499Y0228223D02*
X0077349Y0228223D01*
X0077349Y0228822D02*
X0080499Y0228822D01*
X0080499Y0229420D02*
X0077349Y0229420D01*
X0077349Y0230019D02*
X0080499Y0230019D01*
X0080499Y0230617D02*
X0077349Y0230617D01*
X0077349Y0231216D02*
X0080499Y0231216D01*
X0080499Y0231814D02*
X0077349Y0231814D01*
X0077349Y0232413D02*
X0080499Y0232413D01*
X0080499Y0233011D02*
X0077349Y0233011D01*
X0077349Y0233610D02*
X0080499Y0233610D01*
X0080499Y0234208D02*
X0077349Y0234208D01*
X0077349Y0234807D02*
X0080499Y0234807D01*
X0080499Y0235405D02*
X0077349Y0235405D01*
X0077349Y0236004D02*
X0080499Y0236004D01*
X0080499Y0236602D02*
X0077349Y0236602D01*
X0077349Y0237201D02*
X0080499Y0237201D01*
X0080499Y0237799D02*
X0077349Y0237799D01*
X0077349Y0238398D02*
X0080499Y0238398D01*
X0080499Y0238996D02*
X0077349Y0238996D01*
X0077349Y0239595D02*
X0080499Y0239595D01*
X0080499Y0240193D02*
X0077349Y0240193D01*
X0077349Y0240792D02*
X0080499Y0240792D01*
X0080499Y0241390D02*
X0077349Y0241390D01*
X0077349Y0241989D02*
X0080499Y0241989D01*
X0080499Y0242587D02*
X0077349Y0242587D01*
X0077349Y0243186D02*
X0080499Y0243186D01*
X0080499Y0243784D02*
X0077349Y0243784D01*
X0077349Y0244383D02*
X0080499Y0244383D01*
X0080499Y0244981D02*
X0077349Y0244981D01*
X0077349Y0245580D02*
X0080499Y0245580D01*
X0080499Y0246178D02*
X0077349Y0246178D01*
X0077349Y0246777D02*
X0080499Y0246777D01*
X0080499Y0247375D02*
X0077349Y0247375D01*
X0077349Y0247974D02*
X0080792Y0247974D01*
X0081391Y0248572D02*
X0077349Y0248572D01*
X0077349Y0249171D02*
X0081989Y0249171D01*
X0082588Y0249770D02*
X0077349Y0249770D01*
X0077349Y0250368D02*
X0083186Y0250368D01*
X0083785Y0250967D02*
X0077349Y0250967D01*
X0077349Y0251565D02*
X0084383Y0251565D01*
X0084982Y0252164D02*
X0077349Y0252164D01*
X0077349Y0252762D02*
X0085580Y0252762D01*
X0086179Y0253361D02*
X0077349Y0253361D01*
X0077349Y0253959D02*
X0086777Y0253959D01*
X0087376Y0254558D02*
X0077349Y0254558D01*
X0077349Y0255156D02*
X0087974Y0255156D01*
X0088573Y0255755D02*
X0077349Y0255755D01*
X0077349Y0256353D02*
X0089171Y0256353D01*
X0089770Y0256952D02*
X0077349Y0256952D01*
X0077349Y0257550D02*
X0089904Y0257550D01*
X0090152Y0258149D02*
X0077349Y0258149D01*
X0077349Y0258747D02*
X0090591Y0258747D01*
X0091308Y0259346D02*
X0077349Y0259346D01*
X0077349Y0259944D02*
X0173250Y0259944D01*
X0173250Y0259346D02*
X0094291Y0259346D01*
X0095007Y0258747D02*
X0173250Y0258747D01*
X0173250Y0258149D02*
X0095446Y0258149D01*
X0095694Y0257550D02*
X0173250Y0257550D01*
X0173250Y0256952D02*
X0095788Y0256952D01*
X0095788Y0256353D02*
X0173250Y0256353D01*
X0173250Y0255755D02*
X0095631Y0255755D01*
X0095383Y0255156D02*
X0173250Y0255156D01*
X0173250Y0254558D02*
X0094856Y0254558D01*
X0093924Y0253959D02*
X0173250Y0253959D01*
X0173250Y0253361D02*
X0092684Y0253361D01*
X0092086Y0252762D02*
X0093863Y0252762D01*
X0092419Y0252164D02*
X0091487Y0252164D01*
X0091782Y0251565D02*
X0090889Y0251565D01*
X0091183Y0250967D02*
X0090290Y0250967D01*
X0090764Y0250368D02*
X0089692Y0250368D01*
X0089093Y0249770D02*
X0090516Y0249770D01*
X0090268Y0249171D02*
X0088495Y0249171D01*
X0087896Y0248572D02*
X0090099Y0248572D01*
X0090099Y0247974D02*
X0087298Y0247974D01*
X0086699Y0247375D02*
X0090099Y0247375D01*
X0090099Y0246777D02*
X0086101Y0246777D01*
X0085502Y0246178D02*
X0090313Y0246178D01*
X0090561Y0245580D02*
X0085099Y0245580D01*
X0085099Y0244981D02*
X0090809Y0244981D01*
X0091291Y0244383D02*
X0085099Y0244383D01*
X0085099Y0243784D02*
X0091889Y0243784D01*
X0092677Y0243186D02*
X0085099Y0243186D01*
X0085099Y0242587D02*
X0093442Y0242587D01*
X0092206Y0241989D02*
X0085099Y0241989D01*
X0085099Y0241390D02*
X0091607Y0241390D01*
X0091009Y0240792D02*
X0085099Y0240792D01*
X0085099Y0240193D02*
X0090692Y0240193D01*
X0090444Y0239595D02*
X0085099Y0239595D01*
X0085099Y0238996D02*
X0090196Y0238996D01*
X0090099Y0238398D02*
X0085099Y0238398D01*
X0085099Y0237799D02*
X0090099Y0237799D01*
X0090099Y0237201D02*
X0085099Y0237201D01*
X0085099Y0236602D02*
X0090137Y0236602D01*
X0090385Y0236004D02*
X0085099Y0236004D01*
X0085099Y0235405D02*
X0090633Y0235405D01*
X0090881Y0234807D02*
X0085099Y0234807D01*
X0085099Y0234208D02*
X0091465Y0234208D01*
X0092064Y0233610D02*
X0085099Y0233610D01*
X0085099Y0233011D02*
X0093099Y0233011D01*
X0093020Y0232413D02*
X0085099Y0232413D01*
X0085099Y0231814D02*
X0092031Y0231814D01*
X0091433Y0231216D02*
X0085099Y0231216D01*
X0085099Y0230617D02*
X0090867Y0230617D01*
X0090619Y0230019D02*
X0085099Y0230019D01*
X0085099Y0229420D02*
X0090372Y0229420D01*
X0090124Y0228822D02*
X0085099Y0228822D01*
X0085099Y0228223D02*
X0090099Y0228223D01*
X0090099Y0227625D02*
X0085099Y0227625D01*
X0085099Y0227026D02*
X0090099Y0227026D01*
X0090210Y0226428D02*
X0085099Y0226428D01*
X0085099Y0225829D02*
X0090457Y0225829D01*
X0090705Y0225231D02*
X0085099Y0225231D01*
X0085099Y0224632D02*
X0091042Y0224632D01*
X0091640Y0224034D02*
X0085099Y0224034D01*
X0085099Y0223435D02*
X0092239Y0223435D01*
X0092598Y0222238D02*
X0085099Y0222238D01*
X0085099Y0222837D02*
X0093521Y0222837D01*
X0091856Y0221639D02*
X0085099Y0221639D01*
X0085099Y0221041D02*
X0091258Y0221041D01*
X0090795Y0220442D02*
X0085099Y0220442D01*
X0085099Y0219844D02*
X0090547Y0219844D01*
X0090299Y0219245D02*
X0085099Y0219245D01*
X0085099Y0218647D02*
X0090099Y0218647D01*
X0090099Y0218048D02*
X0085099Y0218048D01*
X0085099Y0217450D02*
X0090099Y0217450D01*
X0090099Y0216851D02*
X0085099Y0216851D01*
X0085099Y0216253D02*
X0090282Y0216253D01*
X0090530Y0215654D02*
X0085099Y0215654D01*
X0085099Y0215056D02*
X0090778Y0215056D01*
X0091216Y0214457D02*
X0085099Y0214457D01*
X0085099Y0213859D02*
X0091815Y0213859D01*
X0092498Y0213260D02*
X0085099Y0213260D01*
X0085099Y0212662D02*
X0093621Y0212662D01*
X0092280Y0212063D02*
X0085099Y0212063D01*
X0085099Y0211465D02*
X0091682Y0211465D01*
X0091083Y0210866D02*
X0085099Y0210866D01*
X0085099Y0210268D02*
X0090723Y0210268D01*
X0090475Y0209669D02*
X0085099Y0209669D01*
X0085099Y0209071D02*
X0090227Y0209071D01*
X0090099Y0208472D02*
X0085099Y0208472D01*
X0085099Y0207874D02*
X0090099Y0207874D01*
X0090099Y0207275D02*
X0085099Y0207275D01*
X0085099Y0206677D02*
X0090106Y0206677D01*
X0090354Y0206078D02*
X0085099Y0206078D01*
X0085099Y0205480D02*
X0090602Y0205480D01*
X0090850Y0204881D02*
X0085099Y0204881D01*
X0085099Y0204283D02*
X0091391Y0204283D01*
X0091989Y0203684D02*
X0085099Y0203684D01*
X0085099Y0203086D02*
X0092919Y0203086D01*
X0093200Y0202487D02*
X0085099Y0202487D01*
X0085099Y0201889D02*
X0092106Y0201889D01*
X0091507Y0201290D02*
X0085099Y0201290D01*
X0085099Y0200692D02*
X0090909Y0200692D01*
X0090650Y0200093D02*
X0085099Y0200093D01*
X0085099Y0199495D02*
X0090402Y0199495D01*
X0090154Y0198896D02*
X0085099Y0198896D01*
X0085099Y0198298D02*
X0090099Y0198298D01*
X0090099Y0197699D02*
X0085099Y0197699D01*
X0085099Y0197101D02*
X0090099Y0197101D01*
X0090179Y0196502D02*
X0085099Y0196502D01*
X0085099Y0195903D02*
X0090427Y0195903D01*
X0090675Y0195305D02*
X0085099Y0195305D01*
X0085099Y0194706D02*
X0090967Y0194706D01*
X0091566Y0194108D02*
X0085099Y0194108D01*
X0085099Y0193509D02*
X0092164Y0193509D01*
X0093341Y0192911D02*
X0085099Y0192911D01*
X0085099Y0192312D02*
X0092778Y0192312D01*
X0091931Y0191714D02*
X0085099Y0191714D01*
X0085099Y0191115D02*
X0091332Y0191115D01*
X0090826Y0190517D02*
X0085099Y0190517D01*
X0085099Y0189918D02*
X0090578Y0189918D01*
X0090330Y0189320D02*
X0085099Y0189320D01*
X0085099Y0188721D02*
X0090099Y0188721D01*
X0090099Y0188123D02*
X0085099Y0188123D01*
X0085099Y0187524D02*
X0090099Y0187524D01*
X0090099Y0186926D02*
X0085099Y0186926D01*
X0085099Y0186327D02*
X0090251Y0186327D01*
X0090499Y0185729D02*
X0085099Y0185729D01*
X0085099Y0185130D02*
X0090747Y0185130D01*
X0091142Y0184532D02*
X0085099Y0184532D01*
X0085099Y0183933D02*
X0091740Y0183933D01*
X0092339Y0183335D02*
X0085099Y0183335D01*
X0085099Y0182736D02*
X0093763Y0182736D01*
X0092356Y0182138D02*
X0085099Y0182138D01*
X0085099Y0181539D02*
X0091756Y0181539D01*
X0091158Y0180941D02*
X0085099Y0180941D01*
X0085099Y0180342D02*
X0090753Y0180342D01*
X0090506Y0179744D02*
X0085099Y0179744D01*
X0085099Y0179145D02*
X0090258Y0179145D01*
X0090099Y0178547D02*
X0085099Y0178547D01*
X0085099Y0177948D02*
X0090099Y0177948D01*
X0090099Y0177350D02*
X0085099Y0177350D01*
X0085099Y0176751D02*
X0090099Y0176751D01*
X0090323Y0176153D02*
X0085099Y0176153D01*
X0085099Y0175554D02*
X0090571Y0175554D01*
X0090819Y0174956D02*
X0085099Y0174956D01*
X0085099Y0174357D02*
X0091317Y0174357D01*
X0091915Y0173759D02*
X0085099Y0173759D01*
X0085099Y0173160D02*
X0092740Y0173160D01*
X0093379Y0172562D02*
X0085099Y0172562D01*
X0085099Y0171963D02*
X0092180Y0171963D01*
X0091581Y0171365D02*
X0085099Y0171365D01*
X0085099Y0170766D02*
X0090983Y0170766D01*
X0090681Y0170168D02*
X0085099Y0170168D01*
X0085099Y0169569D02*
X0090433Y0169569D01*
X0090185Y0168970D02*
X0085099Y0168970D01*
X0085099Y0168372D02*
X0090099Y0168372D01*
X0090099Y0167773D02*
X0085099Y0167773D01*
X0085099Y0167175D02*
X0090099Y0167175D01*
X0090148Y0166576D02*
X0085099Y0166576D01*
X0085099Y0165978D02*
X0090396Y0165978D01*
X0090644Y0165379D02*
X0085099Y0165379D01*
X0085099Y0164781D02*
X0090893Y0164781D01*
X0091491Y0164182D02*
X0085099Y0164182D01*
X0085099Y0163584D02*
X0092090Y0163584D01*
X0093161Y0162985D02*
X0085099Y0162985D01*
X0085099Y0162387D02*
X0092958Y0162387D01*
X0092005Y0161788D02*
X0085099Y0161788D01*
X0085099Y0161190D02*
X0091407Y0161190D01*
X0090857Y0160591D02*
X0085099Y0160591D01*
X0085099Y0159993D02*
X0090609Y0159993D01*
X0090361Y0159394D02*
X0085099Y0159394D01*
X0085099Y0158796D02*
X0090113Y0158796D01*
X0090099Y0158197D02*
X0085099Y0158197D01*
X0085099Y0157599D02*
X0090099Y0157599D01*
X0090099Y0157000D02*
X0085099Y0157000D01*
X0085099Y0156402D02*
X0090220Y0156402D01*
X0090468Y0155803D02*
X0085099Y0155803D01*
X0085099Y0155205D02*
X0090716Y0155205D01*
X0091067Y0154606D02*
X0085099Y0154606D01*
X0085099Y0154008D02*
X0091666Y0154008D01*
X0092264Y0153409D02*
X0085099Y0153409D01*
X0085099Y0152811D02*
X0093583Y0152811D01*
X0092536Y0152212D02*
X0085099Y0152212D01*
X0085099Y0151614D02*
X0091831Y0151614D01*
X0091232Y0151015D02*
X0085099Y0151015D01*
X0085099Y0150417D02*
X0090784Y0150417D01*
X0090536Y0149818D02*
X0085099Y0149818D01*
X0085099Y0149220D02*
X0090288Y0149220D01*
X0090099Y0148621D02*
X0085099Y0148621D01*
X0085099Y0148023D02*
X0090099Y0148023D01*
X0090099Y0147424D02*
X0085099Y0147424D01*
X0085099Y0146826D02*
X0090099Y0146826D01*
X0090293Y0146227D02*
X0085099Y0146227D01*
X0085099Y0145629D02*
X0090541Y0145629D01*
X0090788Y0145030D02*
X0085099Y0145030D01*
X0085099Y0144432D02*
X0091242Y0144432D01*
X0091841Y0143833D02*
X0085099Y0143833D01*
X0085099Y0143234D02*
X0092560Y0143234D01*
X0093559Y0142636D02*
X0085099Y0142636D01*
X0085099Y0142037D02*
X0092254Y0142037D01*
X0091656Y0141439D02*
X0085099Y0141439D01*
X0085099Y0140840D02*
X0091057Y0140840D01*
X0090712Y0140242D02*
X0085099Y0140242D01*
X0085099Y0139643D02*
X0090464Y0139643D01*
X0090216Y0139045D02*
X0085099Y0139045D01*
X0085099Y0138446D02*
X0090099Y0138446D01*
X0090099Y0137848D02*
X0085099Y0137848D01*
X0085099Y0137249D02*
X0090099Y0137249D01*
X0090117Y0136651D02*
X0085099Y0136651D01*
X0085099Y0136052D02*
X0090365Y0136052D01*
X0090613Y0135454D02*
X0085099Y0135454D01*
X0085099Y0134855D02*
X0090861Y0134855D01*
X0091417Y0134257D02*
X0085099Y0134257D01*
X0085099Y0133658D02*
X0092015Y0133658D01*
X0092982Y0133060D02*
X0085099Y0133060D01*
X0085099Y0132461D02*
X0093137Y0132461D01*
X0092080Y0131863D02*
X0085099Y0131863D01*
X0085099Y0131264D02*
X0091481Y0131264D01*
X0090887Y0130666D02*
X0085614Y0130666D01*
X0086213Y0130067D02*
X0090640Y0130067D01*
X0090392Y0129469D02*
X0086811Y0129469D01*
X0087410Y0128870D02*
X0090144Y0128870D01*
X0090099Y0128272D02*
X0088009Y0128272D01*
X0088607Y0127673D02*
X0090099Y0127673D01*
X0090099Y0127075D02*
X0089206Y0127075D01*
X0089804Y0126476D02*
X0090189Y0126476D01*
X0090403Y0125878D02*
X0090437Y0125878D01*
X0098408Y0123484D02*
X0102190Y0123484D01*
X0101591Y0124082D02*
X0099007Y0124082D01*
X0099605Y0124681D02*
X0100993Y0124681D01*
X0100685Y0125279D02*
X0099913Y0125279D01*
X0100161Y0125878D02*
X0100437Y0125878D01*
X0100392Y0129469D02*
X0100207Y0129469D01*
X0099959Y0130067D02*
X0100640Y0130067D01*
X0100887Y0130666D02*
X0099711Y0130666D01*
X0099117Y0131264D02*
X0101481Y0131264D01*
X0102080Y0131863D02*
X0098519Y0131863D01*
X0097461Y0132461D02*
X0103137Y0132461D01*
X0099366Y0151015D02*
X0161232Y0151015D01*
X0161831Y0151614D02*
X0098768Y0151614D01*
X0098063Y0152212D02*
X0162536Y0152212D01*
X0163583Y0152811D02*
X0097015Y0152811D01*
X0098334Y0153409D02*
X0162264Y0153409D01*
X0161666Y0154008D02*
X0098932Y0154008D01*
X0099531Y0154606D02*
X0161067Y0154606D01*
X0160716Y0155205D02*
X0099882Y0155205D01*
X0100130Y0155803D02*
X0104847Y0155803D01*
X0104248Y0156402D02*
X0100378Y0156402D01*
X0100499Y0157000D02*
X0103650Y0157000D01*
X0103051Y0157599D02*
X0100499Y0157599D01*
X0100499Y0158197D02*
X0102453Y0158197D01*
X0101854Y0158796D02*
X0100485Y0158796D01*
X0100238Y0159394D02*
X0101256Y0159394D01*
X0100657Y0159993D02*
X0099990Y0159993D01*
X0100059Y0160591D02*
X0099742Y0160591D01*
X0099460Y0161190D02*
X0099192Y0161190D01*
X0098862Y0161788D02*
X0098593Y0161788D01*
X0098263Y0162387D02*
X0097641Y0162387D01*
X0097664Y0162985D02*
X0097437Y0162985D01*
X0100579Y0166576D02*
X0155948Y0166576D01*
X0156547Y0165978D02*
X0101177Y0165978D01*
X0101776Y0165379D02*
X0160644Y0165379D01*
X0160520Y0165678D02*
X0160891Y0164783D01*
X0162354Y0163320D01*
X0163782Y0162728D01*
X0162354Y0162137D01*
X0160891Y0160674D01*
X0160727Y0160278D01*
X0106877Y0160278D01*
X0100488Y0166667D01*
X0100499Y0166694D01*
X0100499Y0168763D01*
X0099708Y0170674D01*
X0098245Y0172137D01*
X0096816Y0172728D01*
X0098245Y0173320D01*
X0099708Y0174783D01*
X0099820Y0175053D01*
X0147472Y0175053D01*
X0156847Y0165678D01*
X0160520Y0165678D01*
X0160893Y0164781D02*
X0102374Y0164781D01*
X0102973Y0164182D02*
X0161491Y0164182D01*
X0162090Y0163584D02*
X0103571Y0163584D01*
X0104170Y0162985D02*
X0163161Y0162985D01*
X0162958Y0162387D02*
X0104768Y0162387D01*
X0105367Y0161788D02*
X0162005Y0161788D01*
X0161407Y0161190D02*
X0105965Y0161190D01*
X0106564Y0160591D02*
X0160857Y0160591D01*
X0167437Y0162985D02*
X0173250Y0162985D01*
X0173250Y0162387D02*
X0167641Y0162387D01*
X0168593Y0161788D02*
X0173250Y0161788D01*
X0173250Y0161190D02*
X0169192Y0161190D01*
X0169742Y0160591D02*
X0173250Y0160591D01*
X0173250Y0159993D02*
X0169990Y0159993D01*
X0170238Y0159394D02*
X0173250Y0159394D01*
X0173250Y0158796D02*
X0170485Y0158796D01*
X0170499Y0158197D02*
X0173250Y0158197D01*
X0173250Y0157599D02*
X0170499Y0157599D01*
X0170499Y0157000D02*
X0173250Y0157000D01*
X0173250Y0156402D02*
X0170378Y0156402D01*
X0170130Y0155803D02*
X0173250Y0155803D01*
X0173250Y0155205D02*
X0169882Y0155205D01*
X0169531Y0154606D02*
X0173250Y0154606D01*
X0173250Y0154008D02*
X0168932Y0154008D01*
X0168334Y0153409D02*
X0173250Y0153409D01*
X0173250Y0152811D02*
X0167015Y0152811D01*
X0168063Y0152212D02*
X0173250Y0152212D01*
X0173250Y0151614D02*
X0168768Y0151614D01*
X0169366Y0151015D02*
X0173250Y0151015D01*
X0173250Y0150417D02*
X0169814Y0150417D01*
X0170062Y0149818D02*
X0173250Y0149818D01*
X0173250Y0149220D02*
X0170310Y0149220D01*
X0170499Y0148621D02*
X0173250Y0148621D01*
X0173250Y0148023D02*
X0170499Y0148023D01*
X0170499Y0147424D02*
X0173250Y0147424D01*
X0173250Y0146826D02*
X0170499Y0146826D01*
X0170306Y0146227D02*
X0173250Y0146227D01*
X0173250Y0145629D02*
X0170058Y0145629D01*
X0169810Y0145030D02*
X0173250Y0145030D01*
X0173250Y0144432D02*
X0169356Y0144432D01*
X0168758Y0143833D02*
X0173250Y0143833D01*
X0173250Y0143234D02*
X0168038Y0143234D01*
X0167039Y0142636D02*
X0173250Y0142636D01*
X0173250Y0142037D02*
X0168344Y0142037D01*
X0168942Y0141439D02*
X0173250Y0141439D01*
X0173250Y0140840D02*
X0169541Y0140840D01*
X0169886Y0140242D02*
X0173250Y0140242D01*
X0173250Y0139643D02*
X0170134Y0139643D01*
X0170382Y0139045D02*
X0173250Y0139045D01*
X0173250Y0138446D02*
X0170499Y0138446D01*
X0170499Y0137848D02*
X0173250Y0137848D01*
X0173250Y0137249D02*
X0170499Y0137249D01*
X0170481Y0136651D02*
X0173250Y0136651D01*
X0173250Y0136052D02*
X0170233Y0136052D01*
X0169986Y0135454D02*
X0173250Y0135454D01*
X0173250Y0134855D02*
X0169738Y0134855D01*
X0169182Y0134257D02*
X0173250Y0134257D01*
X0173250Y0133658D02*
X0168583Y0133658D01*
X0167617Y0133060D02*
X0173250Y0133060D01*
X0163559Y0142636D02*
X0157039Y0142636D01*
X0168509Y0163584D02*
X0173250Y0163584D01*
X0173250Y0164182D02*
X0169107Y0164182D01*
X0169706Y0164781D02*
X0173250Y0164781D01*
X0173250Y0165379D02*
X0169955Y0165379D01*
X0170203Y0165978D02*
X0173250Y0165978D01*
X0173250Y0166576D02*
X0170451Y0166576D01*
X0170499Y0167175D02*
X0173250Y0167175D01*
X0173250Y0167773D02*
X0170499Y0167773D01*
X0170499Y0168372D02*
X0173250Y0168372D01*
X0173250Y0168970D02*
X0170413Y0168970D01*
X0170165Y0169569D02*
X0173250Y0169569D01*
X0173250Y0170168D02*
X0169917Y0170168D01*
X0169615Y0170766D02*
X0173250Y0170766D01*
X0173250Y0171365D02*
X0169017Y0171365D01*
X0168418Y0171963D02*
X0173250Y0171963D01*
X0173250Y0172562D02*
X0167219Y0172562D01*
X0167859Y0173160D02*
X0173250Y0173160D01*
X0173250Y0173759D02*
X0168683Y0173759D01*
X0169282Y0174357D02*
X0173250Y0174357D01*
X0173250Y0174956D02*
X0169779Y0174956D01*
X0170027Y0175554D02*
X0173250Y0175554D01*
X0173250Y0176153D02*
X0170275Y0176153D01*
X0170499Y0176751D02*
X0173250Y0176751D01*
X0173250Y0177350D02*
X0170499Y0177350D01*
X0170499Y0177948D02*
X0173250Y0177948D01*
X0173250Y0178547D02*
X0170499Y0178547D01*
X0170341Y0179145D02*
X0173250Y0179145D01*
X0173250Y0179744D02*
X0170093Y0179744D01*
X0169845Y0180342D02*
X0173250Y0180342D01*
X0173250Y0180941D02*
X0169441Y0180941D01*
X0168842Y0181539D02*
X0173250Y0181539D01*
X0173250Y0182138D02*
X0168242Y0182138D01*
X0168260Y0183335D02*
X0173250Y0183335D01*
X0173250Y0183933D02*
X0168858Y0183933D01*
X0169457Y0184532D02*
X0173250Y0184532D01*
X0173250Y0185130D02*
X0169851Y0185130D01*
X0170099Y0185729D02*
X0173250Y0185729D01*
X0173250Y0186327D02*
X0170347Y0186327D01*
X0170499Y0186926D02*
X0173250Y0186926D01*
X0173250Y0187524D02*
X0170499Y0187524D01*
X0170499Y0188123D02*
X0173250Y0188123D01*
X0173250Y0188721D02*
X0170499Y0188721D01*
X0170268Y0189320D02*
X0173250Y0189320D01*
X0173250Y0189918D02*
X0170021Y0189918D01*
X0169773Y0190517D02*
X0173250Y0190517D01*
X0173250Y0191115D02*
X0169266Y0191115D01*
X0168668Y0191714D02*
X0173250Y0191714D01*
X0173250Y0192312D02*
X0167820Y0192312D01*
X0167257Y0192911D02*
X0173250Y0192911D01*
X0173250Y0193509D02*
X0168434Y0193509D01*
X0169033Y0194108D02*
X0173250Y0194108D01*
X0173250Y0194706D02*
X0169631Y0194706D01*
X0169924Y0195305D02*
X0173250Y0195305D01*
X0173250Y0195903D02*
X0170172Y0195903D01*
X0170420Y0196502D02*
X0173250Y0196502D01*
X0173250Y0197101D02*
X0170499Y0197101D01*
X0170499Y0197699D02*
X0173250Y0197699D01*
X0173250Y0198298D02*
X0170499Y0198298D01*
X0170444Y0198896D02*
X0173250Y0198896D01*
X0173250Y0199495D02*
X0170196Y0199495D01*
X0169948Y0200093D02*
X0173250Y0200093D01*
X0173250Y0200692D02*
X0169690Y0200692D01*
X0169091Y0201290D02*
X0173250Y0201290D01*
X0173250Y0201889D02*
X0168493Y0201889D01*
X0167399Y0202487D02*
X0173250Y0202487D01*
X0173250Y0203086D02*
X0167191Y0203086D01*
X0168239Y0203684D02*
X0173250Y0203684D01*
X0173250Y0204283D02*
X0168925Y0204283D01*
X0169411Y0204881D02*
X0173250Y0204881D01*
X0173250Y0205480D02*
X0169765Y0205480D01*
X0170020Y0206078D02*
X0173250Y0206078D01*
X0173250Y0206677D02*
X0170195Y0206677D01*
X0170290Y0207275D02*
X0173250Y0207275D01*
X0173250Y0207874D02*
X0165599Y0207874D01*
X0165599Y0208472D02*
X0164999Y0208472D01*
X0164999Y0208028D02*
X0164999Y0212728D01*
X0164906Y0212728D01*
X0164128Y0212605D01*
X0163380Y0212362D01*
X0162679Y0212005D01*
X0162042Y0211542D01*
X0161485Y0210986D01*
X0161023Y0210349D01*
X0160666Y0209648D01*
X0160422Y0208899D01*
X0160299Y0208122D01*
X0160299Y0208028D01*
X0164999Y0208028D01*
X0164999Y0207874D02*
X0150499Y0207874D01*
X0150499Y0208472D02*
X0160355Y0208472D01*
X0160478Y0209071D02*
X0150372Y0209071D01*
X0150499Y0208763D02*
X0149708Y0210674D01*
X0148245Y0212137D01*
X0146334Y0212928D01*
X0144265Y0212928D01*
X0142354Y0212137D01*
X0140891Y0210674D01*
X0140299Y0209246D01*
X0139708Y0210674D01*
X0138245Y0212137D01*
X0136334Y0212928D01*
X0134265Y0212928D01*
X0132354Y0212137D01*
X0130891Y0210674D01*
X0130167Y0208927D01*
X0129933Y0209648D01*
X0129576Y0210349D01*
X0129113Y0210986D01*
X0128556Y0211542D01*
X0127920Y0212005D01*
X0127219Y0212362D01*
X0126470Y0212605D01*
X0125693Y0212728D01*
X0125599Y0212728D01*
X0125599Y0208028D01*
X0124999Y0208028D01*
X0124999Y0212728D01*
X0124906Y0212728D01*
X0124128Y0212605D01*
X0123380Y0212362D01*
X0122679Y0212005D01*
X0122042Y0211542D01*
X0121485Y0210986D01*
X0121023Y0210349D01*
X0120666Y0209648D01*
X0120431Y0208927D01*
X0119708Y0210674D01*
X0118245Y0212137D01*
X0116334Y0212928D01*
X0114265Y0212928D01*
X0112354Y0212137D01*
X0110891Y0210674D01*
X0110099Y0208763D01*
X0110099Y0206694D01*
X0110891Y0204783D01*
X0112354Y0203320D01*
X0114265Y0202528D01*
X0116334Y0202528D01*
X0118245Y0203320D01*
X0119708Y0204783D01*
X0120431Y0206530D01*
X0120666Y0205809D01*
X0121023Y0205108D01*
X0121485Y0204471D01*
X0122042Y0203915D01*
X0122679Y0203452D01*
X0123380Y0203095D01*
X0124128Y0202851D01*
X0124906Y0202728D01*
X0124999Y0202728D01*
X0124999Y0207428D01*
X0125599Y0207428D01*
X0125599Y0202728D01*
X0125693Y0202728D01*
X0126470Y0202851D01*
X0127219Y0203095D01*
X0127920Y0203452D01*
X0128556Y0203915D01*
X0129113Y0204471D01*
X0129576Y0205108D01*
X0129933Y0205809D01*
X0130167Y0206530D01*
X0130891Y0204783D01*
X0132354Y0203320D01*
X0134265Y0202528D01*
X0136334Y0202528D01*
X0138245Y0203320D01*
X0139708Y0204783D01*
X0140299Y0206211D01*
X0140891Y0204783D01*
X0142354Y0203320D01*
X0144265Y0202528D01*
X0146334Y0202528D01*
X0148245Y0203320D01*
X0149708Y0204783D01*
X0150499Y0206694D01*
X0150499Y0208763D01*
X0150124Y0209669D02*
X0160677Y0209669D01*
X0160981Y0210268D02*
X0149876Y0210268D01*
X0149515Y0210866D02*
X0161399Y0210866D01*
X0161965Y0211465D02*
X0148917Y0211465D01*
X0148318Y0212063D02*
X0162794Y0212063D01*
X0164486Y0212662D02*
X0156656Y0212662D01*
X0158101Y0213260D02*
X0173250Y0213260D01*
X0173250Y0212662D02*
X0166113Y0212662D01*
X0165599Y0212662D02*
X0164999Y0212662D01*
X0164999Y0212063D02*
X0165599Y0212063D01*
X0165599Y0211465D02*
X0164999Y0211465D01*
X0164999Y0210866D02*
X0165599Y0210866D01*
X0165599Y0210268D02*
X0164999Y0210268D01*
X0164999Y0209669D02*
X0165599Y0209669D01*
X0165599Y0209071D02*
X0164999Y0209071D01*
X0167805Y0212063D02*
X0173250Y0212063D01*
X0173250Y0211465D02*
X0168634Y0211465D01*
X0169200Y0210866D02*
X0173250Y0210866D01*
X0173250Y0210268D02*
X0169617Y0210268D01*
X0169922Y0209669D02*
X0173250Y0209669D01*
X0173250Y0209071D02*
X0170120Y0209071D01*
X0170244Y0208472D02*
X0173250Y0208472D01*
X0173250Y0213859D02*
X0158784Y0213859D01*
X0159382Y0214457D02*
X0173250Y0214457D01*
X0173250Y0215056D02*
X0159821Y0215056D01*
X0160069Y0215654D02*
X0173250Y0215654D01*
X0173250Y0216253D02*
X0160316Y0216253D01*
X0160499Y0216851D02*
X0173250Y0216851D01*
X0173250Y0217450D02*
X0160499Y0217450D01*
X0160499Y0218048D02*
X0173250Y0218048D01*
X0173250Y0218647D02*
X0160499Y0218647D01*
X0160299Y0219245D02*
X0173250Y0219245D01*
X0173250Y0219844D02*
X0160051Y0219844D01*
X0159803Y0220442D02*
X0173250Y0220442D01*
X0173250Y0221041D02*
X0159340Y0221041D01*
X0158742Y0221639D02*
X0173250Y0221639D01*
X0173250Y0222238D02*
X0158000Y0222238D01*
X0157078Y0222837D02*
X0173250Y0222837D01*
X0173250Y0223435D02*
X0158360Y0223435D01*
X0158958Y0224034D02*
X0173250Y0224034D01*
X0173250Y0224632D02*
X0159557Y0224632D01*
X0159893Y0225231D02*
X0173250Y0225231D01*
X0173250Y0225829D02*
X0160141Y0225829D01*
X0160389Y0226428D02*
X0173250Y0226428D01*
X0173250Y0227026D02*
X0160499Y0227026D01*
X0160499Y0227625D02*
X0173250Y0227625D01*
X0173250Y0228223D02*
X0160499Y0228223D01*
X0160475Y0228822D02*
X0173250Y0228822D01*
X0173250Y0229420D02*
X0160227Y0229420D01*
X0159979Y0230019D02*
X0173250Y0230019D01*
X0173250Y0230617D02*
X0159731Y0230617D01*
X0159166Y0231216D02*
X0173250Y0231216D01*
X0173250Y0231814D02*
X0158567Y0231814D01*
X0157578Y0232413D02*
X0173250Y0232413D01*
X0173250Y0233011D02*
X0157499Y0233011D01*
X0158534Y0233610D02*
X0173250Y0233610D01*
X0173250Y0234208D02*
X0159133Y0234208D01*
X0159717Y0234807D02*
X0173250Y0234807D01*
X0173250Y0235405D02*
X0159965Y0235405D01*
X0160213Y0236004D02*
X0173250Y0236004D01*
X0173250Y0236602D02*
X0160461Y0236602D01*
X0160499Y0237201D02*
X0173250Y0237201D01*
X0173250Y0237799D02*
X0160499Y0237799D01*
X0160499Y0238398D02*
X0173250Y0238398D01*
X0173250Y0238996D02*
X0160402Y0238996D01*
X0160155Y0239595D02*
X0173250Y0239595D01*
X0173250Y0240193D02*
X0159907Y0240193D01*
X0159590Y0240792D02*
X0173250Y0240792D01*
X0173250Y0241390D02*
X0158991Y0241390D01*
X0158393Y0241989D02*
X0173250Y0241989D01*
X0173250Y0242587D02*
X0157157Y0242587D01*
X0157921Y0243186D02*
X0173250Y0243186D01*
X0173250Y0243784D02*
X0158709Y0243784D01*
X0159308Y0244383D02*
X0173250Y0244383D01*
X0173250Y0244981D02*
X0159790Y0244981D01*
X0160038Y0245580D02*
X0173250Y0245580D01*
X0173250Y0246178D02*
X0160286Y0246178D01*
X0160499Y0246777D02*
X0173250Y0246777D01*
X0173250Y0247375D02*
X0160499Y0247375D01*
X0160499Y0247974D02*
X0173250Y0247974D01*
X0173250Y0248572D02*
X0160499Y0248572D01*
X0160330Y0249171D02*
X0173250Y0249171D01*
X0173250Y0249770D02*
X0160082Y0249770D01*
X0159834Y0250368D02*
X0173250Y0250368D01*
X0173250Y0250967D02*
X0159415Y0250967D01*
X0158816Y0251565D02*
X0173250Y0251565D01*
X0173250Y0252164D02*
X0158180Y0252164D01*
X0156735Y0252762D02*
X0173250Y0252762D01*
X0173250Y0260543D02*
X0077349Y0260543D01*
X0077349Y0261141D02*
X0173250Y0261141D01*
X0173250Y0261740D02*
X0077349Y0261740D01*
X0077349Y0262338D02*
X0173250Y0262338D01*
X0173250Y0262937D02*
X0077349Y0262937D01*
X0077349Y0263535D02*
X0173250Y0263535D01*
X0173250Y0264134D02*
X0077349Y0264134D01*
X0077349Y0264732D02*
X0173250Y0264732D01*
X0173250Y0265331D02*
X0077349Y0265331D01*
X0077349Y0265929D02*
X0173250Y0265929D01*
X0173250Y0266528D02*
X0077349Y0266528D01*
X0077349Y0267126D02*
X0173250Y0267126D01*
X0173250Y0267725D02*
X0077349Y0267725D01*
X0077349Y0268323D02*
X0173250Y0268323D01*
X0173250Y0268922D02*
X0077349Y0268922D01*
X0077349Y0269520D02*
X0173250Y0269520D01*
X0173250Y0270119D02*
X0077349Y0270119D01*
X0077349Y0270717D02*
X0173250Y0270717D01*
X0173250Y0271316D02*
X0077349Y0271316D01*
X0077349Y0271914D02*
X0173250Y0271914D01*
X0173250Y0272513D02*
X0077349Y0272513D01*
X0077349Y0273111D02*
X0173250Y0273111D01*
X0173250Y0273710D02*
X0077349Y0273710D01*
X0077349Y0274308D02*
X0173250Y0274308D01*
X0173250Y0274907D02*
X0077349Y0274907D01*
X0077349Y0275505D02*
X0173250Y0275505D01*
X0173250Y0276104D02*
X0077349Y0276104D01*
X0077349Y0276703D02*
X0173250Y0276703D01*
X0173250Y0277301D02*
X0077349Y0277301D01*
X0077349Y0277900D02*
X0173250Y0277900D01*
X0173250Y0278498D02*
X0077349Y0278498D01*
X0077349Y0279097D02*
X0173250Y0279097D01*
X0173250Y0279695D02*
X0077349Y0279695D01*
X0077349Y0280294D02*
X0173250Y0280294D01*
X0173250Y0280892D02*
X0077349Y0280892D01*
X0077349Y0281491D02*
X0173250Y0281491D01*
X0173250Y0282089D02*
X0077349Y0282089D01*
X0077349Y0282688D02*
X0173250Y0282688D01*
X0173250Y0283286D02*
X0077349Y0283286D01*
X0077349Y0283885D02*
X0173250Y0283885D01*
X0173250Y0284483D02*
X0077349Y0284483D01*
X0077349Y0285082D02*
X0173250Y0285082D01*
X0173250Y0285680D02*
X0077349Y0285680D01*
X0077349Y0286279D02*
X0173250Y0286279D01*
X0173250Y0286877D02*
X0077349Y0286877D01*
X0077349Y0287476D02*
X0173250Y0287476D01*
X0173250Y0288074D02*
X0077349Y0288074D01*
X0077349Y0288673D02*
X0173250Y0288673D01*
X0173250Y0289271D02*
X0077349Y0289271D01*
X0077349Y0289870D02*
X0173250Y0289870D01*
X0173250Y0290468D02*
X0077349Y0290468D01*
X0077349Y0291067D02*
X0173250Y0291067D01*
X0173250Y0291665D02*
X0077349Y0291665D01*
X0077349Y0292264D02*
X0173250Y0292264D01*
X0173250Y0292862D02*
X0077349Y0292862D01*
X0077349Y0293461D02*
X0173250Y0293461D01*
X0173250Y0294059D02*
X0077349Y0294059D01*
X0077349Y0294658D02*
X0173250Y0294658D01*
X0173250Y0295256D02*
X0077349Y0295256D01*
X0077349Y0295855D02*
X0173250Y0295855D01*
X0173250Y0296453D02*
X0077349Y0296453D01*
X0077349Y0297052D02*
X0173250Y0297052D01*
X0173250Y0297650D02*
X0077349Y0297650D01*
X0077349Y0298249D02*
X0173250Y0298249D01*
X0173250Y0298847D02*
X0077349Y0298847D01*
X0077349Y0299446D02*
X0173250Y0299446D01*
X0173250Y0300044D02*
X0077349Y0300044D01*
X0077349Y0300643D02*
X0173250Y0300643D01*
X0173250Y0301241D02*
X0077349Y0301241D01*
X0077349Y0301840D02*
X0173250Y0301840D01*
X0173250Y0302439D02*
X0077349Y0302439D01*
X0077349Y0303037D02*
X0173250Y0303037D01*
X0173250Y0303636D02*
X0077349Y0303636D01*
X0077349Y0304234D02*
X0173250Y0304234D01*
X0173250Y0304833D02*
X0077349Y0304833D01*
X0077349Y0305431D02*
X0173250Y0305431D01*
X0173250Y0306030D02*
X0077349Y0306030D01*
X0077349Y0306628D02*
X0173250Y0306628D01*
X0173250Y0307227D02*
X0077349Y0307227D01*
X0077349Y0307825D02*
X0173250Y0307825D01*
X0173250Y0308424D02*
X0077349Y0308424D01*
X0077349Y0309022D02*
X0173250Y0309022D01*
X0173250Y0309621D02*
X0077349Y0309621D01*
X0077349Y0310219D02*
X0173250Y0310219D01*
X0173250Y0310818D02*
X0077349Y0310818D01*
X0077349Y0311416D02*
X0173250Y0311416D01*
X0173250Y0312015D02*
X0077349Y0312015D01*
X0077349Y0312613D02*
X0173250Y0312613D01*
X0173250Y0313212D02*
X0077349Y0313212D01*
X0077349Y0313810D02*
X0173250Y0313810D01*
X0173250Y0314409D02*
X0077349Y0314409D01*
X0077349Y0315007D02*
X0173250Y0315007D01*
X0173250Y0315606D02*
X0077349Y0315606D01*
X0077349Y0316204D02*
X0173250Y0316204D01*
X0173250Y0316803D02*
X0077349Y0316803D01*
X0077349Y0317401D02*
X0173250Y0317401D01*
X0173250Y0318000D02*
X0077349Y0318000D01*
X0077349Y0318598D02*
X0173250Y0318598D01*
X0173250Y0319197D02*
X0077349Y0319197D01*
X0077349Y0319795D02*
X0173250Y0319795D01*
X0173250Y0320394D02*
X0077349Y0320394D01*
X0077349Y0320992D02*
X0173250Y0320992D01*
X0173250Y0321591D02*
X0077349Y0321591D01*
X0077349Y0322189D02*
X0173250Y0322189D01*
X0173250Y0322788D02*
X0077349Y0322788D01*
X0077349Y0323386D02*
X0173250Y0323386D01*
X0173250Y0323985D02*
X0077349Y0323985D01*
X0077349Y0324583D02*
X0173250Y0324583D01*
X0173250Y0325182D02*
X0077349Y0325182D01*
X0077349Y0325780D02*
X0173250Y0325780D01*
X0173250Y0326379D02*
X0077349Y0326379D01*
X0077349Y0326977D02*
X0173250Y0326977D01*
X0173250Y0327576D02*
X0077349Y0327576D01*
X0077349Y0328174D02*
X0173250Y0328174D01*
X0173250Y0328773D02*
X0077349Y0328773D01*
X0077349Y0329372D02*
X0173250Y0329372D01*
X0173250Y0329970D02*
X0077349Y0329970D01*
X0077349Y0330569D02*
X0173250Y0330569D01*
X0173250Y0331167D02*
X0077349Y0331167D01*
X0077349Y0331766D02*
X0173250Y0331766D01*
X0173250Y0332364D02*
X0077349Y0332364D01*
X0077349Y0332963D02*
X0087702Y0332963D01*
X0087452Y0333561D02*
X0077349Y0333561D01*
X0077349Y0334160D02*
X0087203Y0334160D01*
X0086953Y0334758D02*
X0077349Y0334758D01*
X0077349Y0335357D02*
X0086704Y0335357D01*
X0086455Y0335955D02*
X0077349Y0335955D01*
X0077349Y0336554D02*
X0086205Y0336554D01*
X0085956Y0337152D02*
X0077349Y0337152D01*
X0077349Y0337751D02*
X0085707Y0337751D01*
X0085457Y0338349D02*
X0077349Y0338349D01*
X0077349Y0338948D02*
X0085208Y0338948D01*
X0084958Y0339546D02*
X0077349Y0339546D01*
X0077349Y0340145D02*
X0084709Y0340145D01*
X0084460Y0340743D02*
X0077349Y0340743D01*
X0077349Y0341342D02*
X0084210Y0341342D01*
X0083961Y0341940D02*
X0077349Y0341940D01*
X0077349Y0342539D02*
X0083712Y0342539D01*
X0083462Y0343137D02*
X0077349Y0343137D01*
X0077349Y0343736D02*
X0083213Y0343736D01*
X0082963Y0344334D02*
X0077349Y0344334D01*
X0077349Y0344933D02*
X0082714Y0344933D01*
X0082465Y0345531D02*
X0077349Y0345531D01*
X0077349Y0346130D02*
X0082215Y0346130D01*
X0081966Y0346728D02*
X0077349Y0346728D01*
X0077349Y0347327D02*
X0081716Y0347327D01*
X0081467Y0347925D02*
X0077349Y0347925D01*
X0077349Y0348524D02*
X0081218Y0348524D01*
X0080968Y0349122D02*
X0077349Y0349122D01*
X0077349Y0349721D02*
X0080719Y0349721D01*
X0080470Y0350319D02*
X0077349Y0350319D01*
X0077349Y0350918D02*
X0080220Y0350918D01*
X0079971Y0351516D02*
X0077349Y0351516D01*
X0077349Y0352115D02*
X0079721Y0352115D01*
X0079472Y0352713D02*
X0077349Y0352713D01*
X0077349Y0353312D02*
X0079223Y0353312D01*
X0078973Y0353910D02*
X0077349Y0353910D01*
X0077349Y0354509D02*
X0078724Y0354509D01*
X0078475Y0355108D02*
X0077349Y0355108D01*
X0077349Y0355706D02*
X0078225Y0355706D01*
X0077976Y0356305D02*
X0077349Y0356305D01*
X0077349Y0356903D02*
X0077726Y0356903D01*
X0077477Y0357502D02*
X0077349Y0357502D01*
X0163394Y0332963D02*
X0173250Y0332963D01*
X0173250Y0333561D02*
X0163638Y0333561D01*
X0163881Y0334160D02*
X0173250Y0334160D01*
X0173250Y0334758D02*
X0164125Y0334758D01*
X0164368Y0335357D02*
X0173250Y0335357D01*
X0173250Y0335955D02*
X0164612Y0335955D01*
X0164855Y0336554D02*
X0173250Y0336554D01*
X0173250Y0337152D02*
X0165099Y0337152D01*
X0165342Y0337751D02*
X0173250Y0337751D01*
X0173250Y0338349D02*
X0165586Y0338349D01*
X0165829Y0338948D02*
X0173250Y0338948D01*
X0173250Y0339546D02*
X0166073Y0339546D01*
X0166316Y0340145D02*
X0173250Y0340145D01*
X0173250Y0340743D02*
X0166559Y0340743D01*
X0166803Y0341342D02*
X0173250Y0341342D01*
X0173250Y0341940D02*
X0167046Y0341940D01*
X0167290Y0342539D02*
X0173250Y0342539D01*
X0173250Y0343137D02*
X0167533Y0343137D01*
X0167777Y0343736D02*
X0173250Y0343736D01*
X0173250Y0344334D02*
X0168020Y0344334D01*
X0168264Y0344933D02*
X0173250Y0344933D01*
X0173250Y0345531D02*
X0168507Y0345531D01*
X0168751Y0346130D02*
X0173250Y0346130D01*
X0173250Y0346728D02*
X0168994Y0346728D01*
X0169238Y0347327D02*
X0173250Y0347327D01*
X0173250Y0347925D02*
X0169481Y0347925D01*
X0169725Y0348524D02*
X0173250Y0348524D01*
X0173250Y0349122D02*
X0169968Y0349122D01*
X0170211Y0349721D02*
X0173250Y0349721D01*
X0173250Y0350319D02*
X0170455Y0350319D01*
X0170698Y0350918D02*
X0173250Y0350918D01*
X0173250Y0351516D02*
X0170942Y0351516D01*
X0171185Y0352115D02*
X0173250Y0352115D01*
X0173250Y0352713D02*
X0171429Y0352713D01*
X0171672Y0353312D02*
X0173250Y0353312D01*
X0173250Y0353910D02*
X0171916Y0353910D01*
X0172159Y0354509D02*
X0173250Y0354509D01*
X0173250Y0355108D02*
X0172403Y0355108D01*
X0172646Y0355706D02*
X0173250Y0355706D01*
X0173250Y0356305D02*
X0172890Y0356305D01*
X0173133Y0356903D02*
X0173250Y0356903D01*
X0153863Y0252762D02*
X0146735Y0252762D01*
X0148180Y0252164D02*
X0152419Y0252164D01*
X0151782Y0251565D02*
X0148816Y0251565D01*
X0149415Y0250967D02*
X0151183Y0250967D01*
X0150764Y0250368D02*
X0149834Y0250368D01*
X0150082Y0249770D02*
X0150516Y0249770D01*
X0150313Y0246178D02*
X0150286Y0246178D01*
X0150038Y0245580D02*
X0150561Y0245580D01*
X0150809Y0244981D02*
X0149790Y0244981D01*
X0149308Y0244383D02*
X0151291Y0244383D01*
X0151889Y0243784D02*
X0148709Y0243784D01*
X0147921Y0243186D02*
X0152677Y0243186D01*
X0153442Y0242587D02*
X0146476Y0242587D01*
X0144122Y0242587D02*
X0136476Y0242587D01*
X0137921Y0243186D02*
X0142677Y0243186D01*
X0141889Y0243784D02*
X0138709Y0243784D01*
X0139308Y0244383D02*
X0141291Y0244383D01*
X0140809Y0244981D02*
X0139790Y0244981D01*
X0140038Y0245580D02*
X0140561Y0245580D01*
X0140313Y0246178D02*
X0140286Y0246178D01*
X0140082Y0249770D02*
X0140516Y0249770D01*
X0140764Y0250368D02*
X0139834Y0250368D01*
X0139415Y0250967D02*
X0141183Y0250967D01*
X0141782Y0251565D02*
X0138816Y0251565D01*
X0138180Y0252164D02*
X0142419Y0252164D01*
X0143863Y0252762D02*
X0136735Y0252762D01*
X0133863Y0252762D02*
X0116735Y0252762D01*
X0118180Y0252164D02*
X0122990Y0252164D01*
X0122073Y0251565D02*
X0118816Y0251565D01*
X0119415Y0250967D02*
X0121472Y0250967D01*
X0121037Y0250368D02*
X0119834Y0250368D01*
X0120082Y0249770D02*
X0120728Y0249770D01*
X0120511Y0249171D02*
X0120330Y0249171D01*
X0120286Y0246178D02*
X0120545Y0246178D01*
X0120782Y0245580D02*
X0120038Y0245580D01*
X0119790Y0244981D02*
X0121115Y0244981D01*
X0121574Y0244383D02*
X0119308Y0244383D01*
X0118709Y0243784D02*
X0122221Y0243784D01*
X0123201Y0243186D02*
X0117921Y0243186D01*
X0116476Y0242587D02*
X0134122Y0242587D01*
X0132677Y0243186D02*
X0127398Y0243186D01*
X0128377Y0243784D02*
X0131889Y0243784D01*
X0131291Y0244383D02*
X0129025Y0244383D01*
X0129484Y0244981D02*
X0130809Y0244981D01*
X0130561Y0245580D02*
X0129816Y0245580D01*
X0130053Y0246178D02*
X0130313Y0246178D01*
X0130268Y0249171D02*
X0130088Y0249171D01*
X0129871Y0249770D02*
X0130516Y0249770D01*
X0130764Y0250368D02*
X0129562Y0250368D01*
X0129127Y0250967D02*
X0131183Y0250967D01*
X0131782Y0251565D02*
X0128525Y0251565D01*
X0127608Y0252164D02*
X0132419Y0252164D01*
X0125599Y0252164D02*
X0124999Y0252164D01*
X0124999Y0251565D02*
X0125599Y0251565D01*
X0125599Y0250967D02*
X0124999Y0250967D01*
X0124999Y0250368D02*
X0125599Y0250368D01*
X0125599Y0249770D02*
X0124999Y0249770D01*
X0124999Y0249171D02*
X0125599Y0249171D01*
X0125599Y0248572D02*
X0124999Y0248572D01*
X0124999Y0247375D02*
X0125599Y0247375D01*
X0125599Y0246777D02*
X0124999Y0246777D01*
X0124999Y0246178D02*
X0125599Y0246178D01*
X0125599Y0245580D02*
X0124999Y0245580D01*
X0124999Y0244981D02*
X0125599Y0244981D01*
X0125599Y0244383D02*
X0124999Y0244383D01*
X0124999Y0243784D02*
X0125599Y0243784D01*
X0125599Y0243186D02*
X0124999Y0243186D01*
X0114122Y0242587D02*
X0106476Y0242587D01*
X0107921Y0243186D02*
X0112677Y0243186D01*
X0111889Y0243784D02*
X0108709Y0243784D01*
X0109308Y0244383D02*
X0111291Y0244383D01*
X0110809Y0244981D02*
X0109790Y0244981D01*
X0110038Y0245580D02*
X0110561Y0245580D01*
X0110313Y0246178D02*
X0110286Y0246178D01*
X0110082Y0249770D02*
X0110516Y0249770D01*
X0110764Y0250368D02*
X0109834Y0250368D01*
X0109415Y0250967D02*
X0111183Y0250967D01*
X0111782Y0251565D02*
X0108816Y0251565D01*
X0108180Y0252164D02*
X0112419Y0252164D01*
X0113863Y0252762D02*
X0106735Y0252762D01*
X0103863Y0252762D02*
X0096735Y0252762D01*
X0098180Y0252164D02*
X0102419Y0252164D01*
X0101782Y0251565D02*
X0098816Y0251565D01*
X0099415Y0250967D02*
X0101183Y0250967D01*
X0100764Y0250368D02*
X0099834Y0250368D01*
X0100082Y0249770D02*
X0100516Y0249770D01*
X0103318Y0242587D02*
X0104122Y0242587D01*
X0103916Y0241989D02*
X0152206Y0241989D01*
X0151607Y0241390D02*
X0104515Y0241390D01*
X0105113Y0240792D02*
X0151009Y0240792D01*
X0150692Y0240193D02*
X0105712Y0240193D01*
X0106310Y0239595D02*
X0150444Y0239595D01*
X0150196Y0238996D02*
X0106909Y0238996D01*
X0107507Y0238398D02*
X0150099Y0238398D01*
X0150099Y0237799D02*
X0108106Y0237799D01*
X0108704Y0237201D02*
X0150099Y0237201D01*
X0150137Y0236602D02*
X0109303Y0236602D01*
X0109901Y0236004D02*
X0150385Y0236004D01*
X0150633Y0235405D02*
X0110500Y0235405D01*
X0111098Y0234807D02*
X0150881Y0234807D01*
X0151465Y0234208D02*
X0111697Y0234208D01*
X0113270Y0233610D02*
X0152064Y0233610D01*
X0153099Y0233011D02*
X0113868Y0233011D01*
X0114242Y0232413D02*
X0153020Y0232413D01*
X0152031Y0231814D02*
X0114490Y0231814D01*
X0114538Y0231216D02*
X0151433Y0231216D01*
X0150867Y0230617D02*
X0114538Y0230617D01*
X0114335Y0230019D02*
X0150619Y0230019D01*
X0150372Y0229420D02*
X0114087Y0229420D01*
X0113495Y0228822D02*
X0150124Y0228822D01*
X0150099Y0228223D02*
X0112406Y0228223D01*
X0110692Y0228223D02*
X0100499Y0228223D01*
X0100499Y0227625D02*
X0150099Y0227625D01*
X0150099Y0227026D02*
X0100499Y0227026D01*
X0100389Y0226428D02*
X0150210Y0226428D01*
X0150457Y0225829D02*
X0100141Y0225829D01*
X0099893Y0225231D02*
X0150705Y0225231D01*
X0151042Y0224632D02*
X0099557Y0224632D01*
X0098958Y0224034D02*
X0151640Y0224034D01*
X0152239Y0223435D02*
X0098360Y0223435D01*
X0098000Y0222238D02*
X0152598Y0222238D01*
X0151856Y0221639D02*
X0098742Y0221639D01*
X0099340Y0221041D02*
X0151258Y0221041D01*
X0150795Y0220442D02*
X0099803Y0220442D01*
X0100051Y0219844D02*
X0150547Y0219844D01*
X0150299Y0219245D02*
X0100299Y0219245D01*
X0100499Y0218647D02*
X0150099Y0218647D01*
X0150099Y0218048D02*
X0100499Y0218048D01*
X0100499Y0217450D02*
X0150099Y0217450D01*
X0150099Y0216851D02*
X0100499Y0216851D01*
X0100316Y0216253D02*
X0150282Y0216253D01*
X0150530Y0215654D02*
X0100069Y0215654D01*
X0099821Y0215056D02*
X0150778Y0215056D01*
X0151216Y0214457D02*
X0099382Y0214457D01*
X0098784Y0213859D02*
X0151815Y0213859D01*
X0152498Y0213260D02*
X0098101Y0213260D01*
X0098318Y0212063D02*
X0112280Y0212063D01*
X0111682Y0211465D02*
X0098917Y0211465D01*
X0099515Y0210866D02*
X0111083Y0210866D01*
X0110723Y0210268D02*
X0099876Y0210268D01*
X0100124Y0209669D02*
X0110475Y0209669D01*
X0110227Y0209071D02*
X0100372Y0209071D01*
X0100499Y0208472D02*
X0110099Y0208472D01*
X0110099Y0207874D02*
X0100499Y0207874D01*
X0100499Y0207275D02*
X0110099Y0207275D01*
X0110106Y0206677D02*
X0100492Y0206677D01*
X0100244Y0206078D02*
X0110354Y0206078D01*
X0110602Y0205480D02*
X0099996Y0205480D01*
X0099748Y0204881D02*
X0110850Y0204881D01*
X0111391Y0204283D02*
X0099207Y0204283D01*
X0098609Y0203684D02*
X0111989Y0203684D01*
X0112919Y0203086D02*
X0097679Y0203086D01*
X0097399Y0202487D02*
X0163200Y0202487D01*
X0163408Y0203086D02*
X0147679Y0203086D01*
X0148609Y0203684D02*
X0162359Y0203684D01*
X0161674Y0204283D02*
X0149207Y0204283D01*
X0149748Y0204881D02*
X0161187Y0204881D01*
X0160833Y0205480D02*
X0149996Y0205480D01*
X0150244Y0206078D02*
X0160578Y0206078D01*
X0160403Y0206677D02*
X0150492Y0206677D01*
X0150499Y0207275D02*
X0160309Y0207275D01*
X0162106Y0201889D02*
X0098493Y0201889D01*
X0099091Y0201290D02*
X0161507Y0201290D01*
X0160909Y0200692D02*
X0099690Y0200692D01*
X0099948Y0200093D02*
X0160650Y0200093D01*
X0160402Y0199495D02*
X0100196Y0199495D01*
X0100444Y0198896D02*
X0160154Y0198896D01*
X0160099Y0198298D02*
X0100499Y0198298D01*
X0100499Y0197699D02*
X0160099Y0197699D01*
X0160099Y0197101D02*
X0100499Y0197101D01*
X0100420Y0196502D02*
X0160179Y0196502D01*
X0160427Y0195903D02*
X0100172Y0195903D01*
X0099924Y0195305D02*
X0160675Y0195305D01*
X0160967Y0194706D02*
X0099631Y0194706D01*
X0099033Y0194108D02*
X0161566Y0194108D01*
X0162164Y0193509D02*
X0098434Y0193509D01*
X0097257Y0192911D02*
X0163341Y0192911D01*
X0162778Y0192312D02*
X0097820Y0192312D01*
X0098668Y0191714D02*
X0161931Y0191714D01*
X0161332Y0191115D02*
X0099266Y0191115D01*
X0099773Y0190517D02*
X0160826Y0190517D01*
X0160578Y0189918D02*
X0131917Y0189918D01*
X0128681Y0189918D02*
X0100021Y0189918D01*
X0100268Y0189320D02*
X0128039Y0189320D01*
X0127631Y0188721D02*
X0100499Y0188721D01*
X0100499Y0188123D02*
X0127383Y0188123D01*
X0127310Y0187524D02*
X0100499Y0187524D01*
X0100499Y0186926D02*
X0127310Y0186926D01*
X0127489Y0186327D02*
X0100347Y0186327D01*
X0100099Y0185729D02*
X0127737Y0185729D01*
X0128295Y0185130D02*
X0099851Y0185130D01*
X0099457Y0184532D02*
X0129300Y0184532D01*
X0131298Y0184532D02*
X0161142Y0184532D01*
X0161740Y0183933D02*
X0098858Y0183933D01*
X0098260Y0183335D02*
X0162339Y0183335D01*
X0162356Y0182138D02*
X0098242Y0182138D01*
X0098842Y0181539D02*
X0161756Y0181539D01*
X0161158Y0180941D02*
X0099441Y0180941D01*
X0099845Y0180342D02*
X0160753Y0180342D01*
X0160506Y0179744D02*
X0100093Y0179744D01*
X0096835Y0182736D02*
X0163763Y0182736D01*
X0166835Y0182736D02*
X0173250Y0182736D01*
X0163379Y0172562D02*
X0156469Y0172562D01*
X0155870Y0173160D02*
X0162740Y0173160D01*
X0161915Y0173759D02*
X0155272Y0173759D01*
X0154673Y0174357D02*
X0161317Y0174357D01*
X0160819Y0174956D02*
X0154075Y0174956D01*
X0153476Y0175554D02*
X0160571Y0175554D01*
X0160323Y0176153D02*
X0152878Y0176153D01*
X0152279Y0176751D02*
X0160099Y0176751D01*
X0160099Y0177350D02*
X0151681Y0177350D01*
X0151082Y0177948D02*
X0160099Y0177948D01*
X0160099Y0178547D02*
X0150484Y0178547D01*
X0149885Y0179145D02*
X0160258Y0179145D01*
X0162180Y0171963D02*
X0157067Y0171963D01*
X0157666Y0171365D02*
X0161581Y0171365D01*
X0160983Y0170766D02*
X0158264Y0170766D01*
X0154751Y0167773D02*
X0100499Y0167773D01*
X0100499Y0167175D02*
X0155350Y0167175D01*
X0154153Y0168372D02*
X0100499Y0168372D01*
X0100413Y0168970D02*
X0153554Y0168970D01*
X0152956Y0169569D02*
X0100165Y0169569D01*
X0099917Y0170168D02*
X0152357Y0170168D01*
X0151759Y0170766D02*
X0099615Y0170766D01*
X0099017Y0171365D02*
X0151160Y0171365D01*
X0150562Y0171963D02*
X0098418Y0171963D01*
X0097859Y0173160D02*
X0149365Y0173160D01*
X0149963Y0172562D02*
X0097219Y0172562D01*
X0098683Y0173759D02*
X0148766Y0173759D01*
X0148168Y0174357D02*
X0099282Y0174357D01*
X0099779Y0174956D02*
X0147569Y0174956D01*
X0142919Y0203086D02*
X0137679Y0203086D01*
X0138609Y0203684D02*
X0141989Y0203684D01*
X0141391Y0204283D02*
X0139207Y0204283D01*
X0139748Y0204881D02*
X0140850Y0204881D01*
X0140602Y0205480D02*
X0139996Y0205480D01*
X0140244Y0206078D02*
X0140354Y0206078D01*
X0140475Y0209669D02*
X0140124Y0209669D01*
X0139876Y0210268D02*
X0140723Y0210268D01*
X0141083Y0210866D02*
X0139515Y0210866D01*
X0138917Y0211465D02*
X0141682Y0211465D01*
X0142280Y0212063D02*
X0138318Y0212063D01*
X0136977Y0212662D02*
X0143621Y0212662D01*
X0146977Y0212662D02*
X0153943Y0212662D01*
X0153521Y0222837D02*
X0097078Y0222837D01*
X0100475Y0228822D02*
X0109604Y0228822D01*
X0109011Y0229420D02*
X0100227Y0229420D01*
X0099979Y0230019D02*
X0108763Y0230019D01*
X0108560Y0230617D02*
X0099731Y0230617D01*
X0099166Y0231216D02*
X0108184Y0231216D01*
X0107586Y0231814D02*
X0098567Y0231814D01*
X0097578Y0232413D02*
X0106987Y0232413D01*
X0106389Y0233011D02*
X0097499Y0233011D01*
X0098534Y0233610D02*
X0105790Y0233610D01*
X0105192Y0234208D02*
X0099133Y0234208D01*
X0099717Y0234807D02*
X0104593Y0234807D01*
X0103995Y0235405D02*
X0099965Y0235405D01*
X0100213Y0236004D02*
X0103396Y0236004D01*
X0102798Y0236602D02*
X0100461Y0236602D01*
X0100499Y0237201D02*
X0102199Y0237201D01*
X0101601Y0237799D02*
X0100499Y0237799D01*
X0100499Y0238398D02*
X0101002Y0238398D01*
X0100404Y0238996D02*
X0100402Y0238996D01*
X0096977Y0212662D02*
X0113621Y0212662D01*
X0116977Y0212662D02*
X0124486Y0212662D01*
X0124999Y0212662D02*
X0125599Y0212662D01*
X0126113Y0212662D02*
X0133621Y0212662D01*
X0132280Y0212063D02*
X0127805Y0212063D01*
X0128634Y0211465D02*
X0131682Y0211465D01*
X0131083Y0210866D02*
X0129200Y0210866D01*
X0129617Y0210268D02*
X0130723Y0210268D01*
X0130475Y0209669D02*
X0129922Y0209669D01*
X0130120Y0209071D02*
X0130227Y0209071D01*
X0130354Y0206078D02*
X0130020Y0206078D01*
X0129765Y0205480D02*
X0130602Y0205480D01*
X0130850Y0204881D02*
X0129411Y0204881D01*
X0128925Y0204283D02*
X0131391Y0204283D01*
X0131989Y0203684D02*
X0128239Y0203684D01*
X0127191Y0203086D02*
X0132919Y0203086D01*
X0125599Y0203086D02*
X0124999Y0203086D01*
X0124999Y0203684D02*
X0125599Y0203684D01*
X0125599Y0204283D02*
X0124999Y0204283D01*
X0124999Y0204881D02*
X0125599Y0204881D01*
X0125599Y0205480D02*
X0124999Y0205480D01*
X0124999Y0206078D02*
X0125599Y0206078D01*
X0125599Y0206677D02*
X0124999Y0206677D01*
X0124999Y0207275D02*
X0125599Y0207275D01*
X0125599Y0208472D02*
X0124999Y0208472D01*
X0124999Y0209071D02*
X0125599Y0209071D01*
X0125599Y0209669D02*
X0124999Y0209669D01*
X0124999Y0210268D02*
X0125599Y0210268D01*
X0125599Y0210866D02*
X0124999Y0210866D01*
X0124999Y0211465D02*
X0125599Y0211465D01*
X0125599Y0212063D02*
X0124999Y0212063D01*
X0122794Y0212063D02*
X0118318Y0212063D01*
X0118917Y0211465D02*
X0121965Y0211465D01*
X0121399Y0210866D02*
X0119515Y0210866D01*
X0119876Y0210268D02*
X0120981Y0210268D01*
X0120677Y0209669D02*
X0120124Y0209669D01*
X0120372Y0209071D02*
X0120478Y0209071D01*
X0120578Y0206078D02*
X0120244Y0206078D01*
X0119996Y0205480D02*
X0120833Y0205480D01*
X0121187Y0204881D02*
X0119748Y0204881D01*
X0119207Y0204283D02*
X0121674Y0204283D01*
X0122359Y0203684D02*
X0118609Y0203684D01*
X0117679Y0203086D02*
X0123408Y0203086D01*
X0160230Y0116900D02*
X0169856Y0116900D01*
X0169511Y0116301D02*
X0160093Y0116301D01*
X0159879Y0115703D02*
X0169165Y0115703D01*
X0168820Y0115104D02*
X0159573Y0115104D01*
X0159138Y0114506D02*
X0168474Y0114506D01*
X0168128Y0113907D02*
X0158547Y0113907D01*
X0157639Y0113309D02*
X0167783Y0113309D01*
X0155599Y0113309D02*
X0154999Y0113309D01*
X0154999Y0113907D02*
X0155599Y0113907D01*
X0155599Y0114506D02*
X0154999Y0114506D01*
X0154999Y0115104D02*
X0155599Y0115104D01*
X0155599Y0115703D02*
X0154999Y0115703D01*
X0154999Y0116301D02*
X0155599Y0116301D01*
M02*
