G75*
%MOIN*%
%OFA0B0*%
%FSLAX25Y25*%
%IPPOS*%
%LPD*%
%AMOC8*
5,1,8,0,0,1.08239X$1,22.5*
%
%ADD10C,0.00800*%
%ADD11C,0.00600*%
%ADD12C,0.00300*%
%ADD13C,0.00000*%
%ADD14C,0.00299*%
D10*
X0092799Y0112728D02*
X0090299Y0115228D01*
X0090299Y0120228D01*
X0092799Y0122728D01*
X0090299Y0125228D01*
X0090299Y0130228D01*
X0092799Y0132728D01*
X0090299Y0135228D01*
X0090299Y0140228D01*
X0092799Y0142728D01*
X0090299Y0145228D01*
X0090299Y0150228D01*
X0092799Y0152728D01*
X0090299Y0155228D01*
X0090299Y0160228D01*
X0092799Y0162728D01*
X0090299Y0165228D01*
X0090299Y0170228D01*
X0092799Y0172728D01*
X0090299Y0175228D01*
X0090299Y0180228D01*
X0092799Y0182728D01*
X0090299Y0185228D01*
X0090299Y0190228D01*
X0092799Y0192728D01*
X0090299Y0195228D01*
X0090299Y0200228D01*
X0092799Y0202728D01*
X0090299Y0205228D01*
X0090299Y0210228D01*
X0092799Y0212728D01*
X0090299Y0215228D01*
X0090299Y0220228D01*
X0092799Y0222728D01*
X0090299Y0225228D01*
X0090299Y0230228D01*
X0092799Y0232728D01*
X0090299Y0235228D01*
X0090299Y0240228D01*
X0092799Y0242728D01*
X0090299Y0245228D01*
X0090299Y0250228D01*
X0092799Y0252728D01*
X0097799Y0252728D01*
X0100299Y0250228D01*
X0102799Y0252728D01*
X0107799Y0252728D01*
X0110299Y0250228D01*
X0112799Y0252728D01*
X0117799Y0252728D01*
X0120299Y0250228D01*
X0122799Y0252728D01*
X0127799Y0252728D01*
X0130299Y0250228D01*
X0132799Y0252728D01*
X0137799Y0252728D01*
X0140299Y0250228D01*
X0142799Y0252728D01*
X0147799Y0252728D01*
X0150299Y0250228D01*
X0152799Y0252728D01*
X0157799Y0252728D01*
X0160299Y0250228D01*
X0160299Y0245228D01*
X0157799Y0242728D01*
X0160299Y0240228D01*
X0160299Y0235228D01*
X0157799Y0232728D01*
X0160299Y0230228D01*
X0160299Y0225228D01*
X0157799Y0222728D01*
X0160299Y0220228D01*
X0160299Y0215228D01*
X0157799Y0212728D01*
X0152799Y0212728D01*
X0150299Y0215228D01*
X0150299Y0220228D01*
X0152799Y0222728D01*
X0150299Y0225228D01*
X0150299Y0230228D01*
X0152799Y0232728D01*
X0150299Y0235228D01*
X0150299Y0240228D01*
X0152799Y0242728D01*
X0150299Y0245228D01*
X0150299Y0250228D01*
X0150299Y0245228D01*
X0147799Y0242728D01*
X0142799Y0242728D01*
X0140299Y0245228D01*
X0137799Y0242728D01*
X0132799Y0242728D01*
X0130299Y0245228D01*
X0127799Y0242728D01*
X0122799Y0242728D01*
X0120299Y0245228D01*
X0117799Y0242728D01*
X0112799Y0242728D01*
X0110299Y0245228D01*
X0107799Y0242728D01*
X0102799Y0242728D01*
X0100299Y0245228D01*
X0100299Y0250228D01*
X0100299Y0245228D01*
X0097799Y0242728D01*
X0100299Y0240228D01*
X0100299Y0235228D01*
X0097799Y0232728D01*
X0100299Y0230228D01*
X0100299Y0225228D01*
X0097799Y0222728D01*
X0100299Y0220228D01*
X0100299Y0215228D01*
X0097799Y0212728D01*
X0100299Y0210228D01*
X0100299Y0205228D01*
X0097799Y0202728D01*
X0100299Y0200228D01*
X0100299Y0195228D01*
X0097799Y0192728D01*
X0100299Y0190228D01*
X0100299Y0185228D01*
X0097799Y0182728D01*
X0100299Y0180228D01*
X0100299Y0175228D01*
X0097799Y0172728D01*
X0100299Y0170228D01*
X0100299Y0165228D01*
X0097799Y0162728D01*
X0100299Y0160228D01*
X0100299Y0155228D01*
X0097799Y0152728D01*
X0100299Y0150228D01*
X0100299Y0145228D01*
X0097799Y0142728D01*
X0100299Y0140228D01*
X0100299Y0135228D01*
X0097799Y0132728D01*
X0100299Y0130228D01*
X0100299Y0125228D01*
X0097799Y0122728D01*
X0100299Y0120228D01*
X0100299Y0115228D01*
X0097799Y0112728D01*
X0092799Y0112728D01*
X0150299Y0115228D02*
X0152799Y0112728D01*
X0157799Y0112728D01*
X0160299Y0115228D01*
X0160299Y0120228D01*
X0157799Y0122728D01*
X0160299Y0125228D01*
X0160299Y0130228D01*
X0157799Y0132728D01*
X0160299Y0135228D01*
X0160299Y0140228D01*
X0157799Y0142728D01*
X0152799Y0142728D01*
X0150299Y0140228D01*
X0150299Y0135228D01*
X0152799Y0132728D01*
X0150299Y0130228D01*
X0150299Y0125228D01*
X0152799Y0122728D01*
X0150299Y0120228D01*
X0150299Y0115228D01*
X0162799Y0132728D02*
X0160299Y0135228D01*
X0160299Y0140228D01*
X0162799Y0142728D01*
X0160299Y0145228D01*
X0160299Y0150228D01*
X0162799Y0152728D01*
X0160299Y0155228D01*
X0160299Y0160228D01*
X0162799Y0162728D01*
X0160299Y0165228D01*
X0160299Y0170228D01*
X0162799Y0172728D01*
X0160299Y0175228D01*
X0160299Y0180228D01*
X0162799Y0182728D01*
X0160299Y0185228D01*
X0160299Y0190228D01*
X0162799Y0192728D01*
X0160299Y0195228D01*
X0160299Y0200228D01*
X0162799Y0202728D01*
X0160299Y0205228D01*
X0160299Y0210228D01*
X0162799Y0212728D01*
X0167799Y0212728D01*
X0170299Y0210228D01*
X0170299Y0205228D01*
X0167799Y0202728D01*
X0170299Y0200228D01*
X0170299Y0195228D01*
X0167799Y0192728D01*
X0170299Y0190228D01*
X0170299Y0185228D01*
X0167799Y0182728D01*
X0170299Y0180228D01*
X0170299Y0175228D01*
X0167799Y0172728D01*
X0170299Y0170228D01*
X0170299Y0165228D01*
X0167799Y0162728D01*
X0170299Y0160228D01*
X0170299Y0155228D01*
X0167799Y0152728D01*
X0170299Y0150228D01*
X0170299Y0145228D01*
X0167799Y0142728D01*
X0170299Y0140228D01*
X0170299Y0135228D01*
X0167799Y0132728D01*
X0162799Y0132728D01*
X0147799Y0202728D02*
X0142799Y0202728D01*
X0140299Y0205228D01*
X0137799Y0202728D01*
X0132799Y0202728D01*
X0130299Y0205228D01*
X0127799Y0202728D01*
X0122799Y0202728D01*
X0120299Y0205228D01*
X0117799Y0202728D01*
X0112799Y0202728D01*
X0110299Y0205228D01*
X0110299Y0210228D01*
X0112799Y0212728D01*
X0117799Y0212728D01*
X0120299Y0210228D01*
X0122799Y0212728D01*
X0127799Y0212728D01*
X0130299Y0210228D01*
X0132799Y0212728D01*
X0137799Y0212728D01*
X0140299Y0210228D01*
X0142799Y0212728D01*
X0147799Y0212728D01*
X0150299Y0210228D01*
X0150299Y0205228D01*
X0147799Y0202728D01*
X0170299Y0262728D02*
X0080299Y0262728D01*
X0080299Y0342728D01*
X0170299Y0342728D01*
X0170299Y0262728D01*
X0143716Y0285562D02*
X0143716Y0286028D01*
X0143715Y0286028D02*
X0143713Y0286087D01*
X0143708Y0286145D01*
X0143698Y0286203D01*
X0143686Y0286260D01*
X0143669Y0286316D01*
X0143649Y0286371D01*
X0143626Y0286425D01*
X0143600Y0286477D01*
X0143570Y0286528D01*
X0143537Y0286576D01*
X0143501Y0286623D01*
X0143462Y0286667D01*
X0143421Y0286708D01*
X0143377Y0286747D01*
X0143330Y0286783D01*
X0143282Y0286816D01*
X0143231Y0286846D01*
X0143179Y0286872D01*
X0143125Y0286895D01*
X0143070Y0286915D01*
X0143014Y0286932D01*
X0142957Y0286944D01*
X0142899Y0286954D01*
X0142841Y0286959D01*
X0142782Y0286961D01*
X0142782Y0286962D02*
X0141382Y0286962D01*
X0141382Y0288828D01*
X0143716Y0288828D01*
X0143715Y0285562D02*
X0143713Y0285503D01*
X0143708Y0285445D01*
X0143698Y0285387D01*
X0143686Y0285330D01*
X0143669Y0285274D01*
X0143649Y0285219D01*
X0143626Y0285165D01*
X0143600Y0285113D01*
X0143570Y0285062D01*
X0143537Y0285014D01*
X0143501Y0284967D01*
X0143462Y0284923D01*
X0143421Y0284882D01*
X0143377Y0284843D01*
X0143330Y0284807D01*
X0143282Y0284774D01*
X0143231Y0284744D01*
X0143179Y0284718D01*
X0143125Y0284695D01*
X0143070Y0284675D01*
X0143014Y0284658D01*
X0142957Y0284646D01*
X0142899Y0284636D01*
X0142841Y0284631D01*
X0142782Y0284629D01*
X0142782Y0284628D02*
X0141382Y0284628D01*
X0137233Y0285211D02*
X0137185Y0285313D01*
X0137141Y0285416D01*
X0137100Y0285520D01*
X0137063Y0285626D01*
X0137029Y0285733D01*
X0136999Y0285841D01*
X0136972Y0285950D01*
X0136948Y0286059D01*
X0136928Y0286170D01*
X0136912Y0286281D01*
X0136899Y0286392D01*
X0136890Y0286504D01*
X0136885Y0286616D01*
X0136883Y0286728D01*
X0139216Y0286728D02*
X0139214Y0286840D01*
X0139209Y0286952D01*
X0139200Y0287064D01*
X0139187Y0287175D01*
X0139171Y0287286D01*
X0139151Y0287397D01*
X0139127Y0287506D01*
X0139100Y0287615D01*
X0139070Y0287723D01*
X0139036Y0287830D01*
X0138999Y0287936D01*
X0138958Y0288040D01*
X0138914Y0288143D01*
X0138866Y0288245D01*
X0138983Y0287895D02*
X0137116Y0285562D01*
X0138049Y0284629D02*
X0138105Y0284631D01*
X0138161Y0284636D01*
X0138217Y0284646D01*
X0138272Y0284658D01*
X0138326Y0284675D01*
X0138378Y0284694D01*
X0138430Y0284718D01*
X0138480Y0284744D01*
X0138527Y0284774D01*
X0138573Y0284806D01*
X0138617Y0284842D01*
X0138658Y0284881D01*
X0138697Y0284922D01*
X0138732Y0284965D01*
X0138765Y0285011D01*
X0138795Y0285059D01*
X0138822Y0285108D01*
X0138845Y0285159D01*
X0138865Y0285212D01*
X0138049Y0284629D02*
X0137993Y0284631D01*
X0137937Y0284636D01*
X0137881Y0284646D01*
X0137826Y0284658D01*
X0137772Y0284675D01*
X0137720Y0284694D01*
X0137668Y0284718D01*
X0137618Y0284744D01*
X0137571Y0284774D01*
X0137525Y0284806D01*
X0137481Y0284842D01*
X0137440Y0284881D01*
X0137401Y0284922D01*
X0137366Y0284965D01*
X0137333Y0285011D01*
X0137303Y0285059D01*
X0137276Y0285108D01*
X0137253Y0285159D01*
X0137233Y0285212D01*
X0138866Y0285211D02*
X0138914Y0285313D01*
X0138958Y0285416D01*
X0138999Y0285520D01*
X0139036Y0285626D01*
X0139070Y0285733D01*
X0139100Y0285841D01*
X0139127Y0285950D01*
X0139151Y0286059D01*
X0139171Y0286170D01*
X0139187Y0286281D01*
X0139200Y0286392D01*
X0139209Y0286504D01*
X0139214Y0286616D01*
X0139216Y0286728D01*
X0136883Y0286728D02*
X0136885Y0286840D01*
X0136890Y0286952D01*
X0136899Y0287064D01*
X0136912Y0287175D01*
X0136928Y0287286D01*
X0136948Y0287397D01*
X0136972Y0287506D01*
X0136999Y0287615D01*
X0137029Y0287723D01*
X0137063Y0287830D01*
X0137100Y0287936D01*
X0137141Y0288040D01*
X0137185Y0288143D01*
X0137233Y0288245D01*
X0138049Y0288828D02*
X0138105Y0288826D01*
X0138161Y0288821D01*
X0138217Y0288811D01*
X0138272Y0288799D01*
X0138326Y0288782D01*
X0138378Y0288763D01*
X0138430Y0288739D01*
X0138480Y0288713D01*
X0138527Y0288683D01*
X0138573Y0288651D01*
X0138617Y0288615D01*
X0138658Y0288576D01*
X0138697Y0288535D01*
X0138732Y0288492D01*
X0138765Y0288446D01*
X0138795Y0288398D01*
X0138822Y0288349D01*
X0138845Y0288298D01*
X0138865Y0288245D01*
X0138049Y0288828D02*
X0137993Y0288826D01*
X0137937Y0288821D01*
X0137881Y0288811D01*
X0137826Y0288799D01*
X0137772Y0288782D01*
X0137720Y0288763D01*
X0137668Y0288739D01*
X0137618Y0288713D01*
X0137571Y0288683D01*
X0137525Y0288650D01*
X0137481Y0288615D01*
X0137440Y0288576D01*
X0137401Y0288535D01*
X0137366Y0288492D01*
X0137333Y0288446D01*
X0137303Y0288398D01*
X0137276Y0288349D01*
X0137253Y0288298D01*
X0137233Y0288245D01*
X0133549Y0288828D02*
X0133549Y0284628D01*
X0132383Y0284628D02*
X0134716Y0284628D01*
X0128233Y0285211D02*
X0128185Y0285313D01*
X0128141Y0285416D01*
X0128100Y0285520D01*
X0128063Y0285626D01*
X0128029Y0285733D01*
X0127999Y0285841D01*
X0127972Y0285950D01*
X0127948Y0286059D01*
X0127928Y0286170D01*
X0127912Y0286281D01*
X0127899Y0286392D01*
X0127890Y0286504D01*
X0127885Y0286616D01*
X0127883Y0286728D01*
X0130216Y0286728D02*
X0130214Y0286840D01*
X0130209Y0286952D01*
X0130200Y0287064D01*
X0130187Y0287175D01*
X0130171Y0287286D01*
X0130151Y0287397D01*
X0130127Y0287506D01*
X0130100Y0287615D01*
X0130070Y0287723D01*
X0130036Y0287830D01*
X0129999Y0287936D01*
X0129958Y0288040D01*
X0129914Y0288143D01*
X0129866Y0288245D01*
X0129983Y0287895D02*
X0128116Y0285562D01*
X0129049Y0284629D02*
X0129105Y0284631D01*
X0129161Y0284636D01*
X0129217Y0284646D01*
X0129272Y0284658D01*
X0129326Y0284675D01*
X0129378Y0284694D01*
X0129430Y0284718D01*
X0129480Y0284744D01*
X0129527Y0284774D01*
X0129573Y0284806D01*
X0129617Y0284842D01*
X0129658Y0284881D01*
X0129697Y0284922D01*
X0129732Y0284965D01*
X0129765Y0285011D01*
X0129795Y0285059D01*
X0129822Y0285108D01*
X0129845Y0285159D01*
X0129865Y0285212D01*
X0129049Y0284629D02*
X0128993Y0284631D01*
X0128937Y0284636D01*
X0128881Y0284646D01*
X0128826Y0284658D01*
X0128772Y0284675D01*
X0128720Y0284694D01*
X0128668Y0284718D01*
X0128618Y0284744D01*
X0128571Y0284774D01*
X0128525Y0284806D01*
X0128481Y0284842D01*
X0128440Y0284881D01*
X0128401Y0284922D01*
X0128366Y0284965D01*
X0128333Y0285011D01*
X0128303Y0285059D01*
X0128276Y0285108D01*
X0128253Y0285159D01*
X0128233Y0285212D01*
X0129866Y0285211D02*
X0129914Y0285313D01*
X0129958Y0285416D01*
X0129999Y0285520D01*
X0130036Y0285626D01*
X0130070Y0285733D01*
X0130100Y0285841D01*
X0130127Y0285950D01*
X0130151Y0286059D01*
X0130171Y0286170D01*
X0130187Y0286281D01*
X0130200Y0286392D01*
X0130209Y0286504D01*
X0130214Y0286616D01*
X0130216Y0286728D01*
X0127883Y0286728D02*
X0127885Y0286840D01*
X0127890Y0286952D01*
X0127899Y0287064D01*
X0127912Y0287175D01*
X0127928Y0287286D01*
X0127948Y0287397D01*
X0127972Y0287506D01*
X0127999Y0287615D01*
X0128029Y0287723D01*
X0128063Y0287830D01*
X0128100Y0287936D01*
X0128141Y0288040D01*
X0128185Y0288143D01*
X0128233Y0288245D01*
X0129049Y0288828D02*
X0129105Y0288826D01*
X0129161Y0288821D01*
X0129217Y0288811D01*
X0129272Y0288799D01*
X0129326Y0288782D01*
X0129378Y0288763D01*
X0129430Y0288739D01*
X0129480Y0288713D01*
X0129527Y0288683D01*
X0129573Y0288651D01*
X0129617Y0288615D01*
X0129658Y0288576D01*
X0129697Y0288535D01*
X0129732Y0288492D01*
X0129765Y0288446D01*
X0129795Y0288398D01*
X0129822Y0288349D01*
X0129845Y0288298D01*
X0129865Y0288245D01*
X0129049Y0288828D02*
X0128993Y0288826D01*
X0128937Y0288821D01*
X0128881Y0288811D01*
X0128826Y0288799D01*
X0128772Y0288782D01*
X0128720Y0288763D01*
X0128668Y0288739D01*
X0128618Y0288713D01*
X0128571Y0288683D01*
X0128525Y0288650D01*
X0128481Y0288615D01*
X0128440Y0288576D01*
X0128401Y0288535D01*
X0128366Y0288492D01*
X0128333Y0288446D01*
X0128303Y0288398D01*
X0128276Y0288349D01*
X0128253Y0288298D01*
X0128233Y0288245D01*
X0124783Y0288828D02*
X0124843Y0288826D01*
X0124902Y0288820D01*
X0124961Y0288811D01*
X0125020Y0288797D01*
X0125077Y0288780D01*
X0125133Y0288760D01*
X0125188Y0288736D01*
X0125241Y0288708D01*
X0125292Y0288677D01*
X0125341Y0288643D01*
X0125388Y0288605D01*
X0125432Y0288565D01*
X0125474Y0288522D01*
X0125512Y0288477D01*
X0125548Y0288429D01*
X0125581Y0288379D01*
X0125610Y0288327D01*
X0125636Y0288273D01*
X0125659Y0288217D01*
X0125677Y0288160D01*
X0125693Y0288103D01*
X0125704Y0288044D01*
X0125712Y0287985D01*
X0125716Y0287925D01*
X0125716Y0287865D01*
X0125712Y0287805D01*
X0125704Y0287746D01*
X0125693Y0287687D01*
X0125677Y0287630D01*
X0125659Y0287573D01*
X0125636Y0287517D01*
X0125610Y0287463D01*
X0125581Y0287411D01*
X0125548Y0287361D01*
X0125512Y0287313D01*
X0125474Y0287268D01*
X0125432Y0287225D01*
X0125388Y0287185D01*
X0125341Y0287147D01*
X0125292Y0287113D01*
X0125241Y0287082D01*
X0125188Y0287054D01*
X0125133Y0287030D01*
X0125077Y0287010D01*
X0125020Y0286993D01*
X0124961Y0286979D01*
X0124902Y0286970D01*
X0124843Y0286964D01*
X0124783Y0286962D01*
X0123849Y0286962D01*
X0124549Y0286962D02*
X0124616Y0286960D01*
X0124682Y0286954D01*
X0124748Y0286945D01*
X0124813Y0286932D01*
X0124878Y0286915D01*
X0124941Y0286894D01*
X0125003Y0286870D01*
X0125064Y0286842D01*
X0125123Y0286811D01*
X0125180Y0286777D01*
X0125235Y0286739D01*
X0125288Y0286698D01*
X0125338Y0286655D01*
X0125386Y0286608D01*
X0125431Y0286559D01*
X0125473Y0286508D01*
X0125512Y0286454D01*
X0125548Y0286398D01*
X0125581Y0286340D01*
X0125611Y0286280D01*
X0125636Y0286218D01*
X0125659Y0286156D01*
X0125678Y0286092D01*
X0125693Y0286027D01*
X0125704Y0285961D01*
X0125712Y0285895D01*
X0125716Y0285828D01*
X0125716Y0285762D01*
X0125712Y0285695D01*
X0125704Y0285629D01*
X0125693Y0285563D01*
X0125678Y0285498D01*
X0125659Y0285434D01*
X0125636Y0285372D01*
X0125611Y0285310D01*
X0125581Y0285250D01*
X0125548Y0285192D01*
X0125512Y0285136D01*
X0125473Y0285082D01*
X0125431Y0285031D01*
X0125386Y0284982D01*
X0125338Y0284935D01*
X0125288Y0284892D01*
X0125235Y0284851D01*
X0125180Y0284813D01*
X0125123Y0284779D01*
X0125064Y0284748D01*
X0125003Y0284720D01*
X0124941Y0284696D01*
X0124878Y0284675D01*
X0124813Y0284658D01*
X0124748Y0284645D01*
X0124682Y0284636D01*
X0124616Y0284630D01*
X0124549Y0284628D01*
X0123383Y0284628D01*
X0121449Y0284628D02*
X0118649Y0288828D01*
X0121449Y0288828D02*
X0118649Y0284628D01*
X0116949Y0284628D02*
X0115549Y0288828D01*
X0114149Y0284628D01*
X0114499Y0285678D02*
X0116599Y0285678D01*
X0111999Y0284628D02*
X0111999Y0288828D01*
X0110599Y0286495D01*
X0109199Y0288828D01*
X0109199Y0284628D01*
X0123383Y0288828D02*
X0124783Y0288828D01*
X0132383Y0287895D02*
X0133549Y0288828D01*
X0132799Y0332728D02*
X0137799Y0332728D01*
X0140299Y0335228D01*
X0142799Y0332728D01*
X0147799Y0332728D01*
X0150299Y0335228D01*
X0150299Y0340228D01*
X0147799Y0342728D01*
X0142799Y0342728D01*
X0140299Y0340228D01*
X0137799Y0342728D01*
X0132799Y0342728D01*
X0130299Y0340228D01*
X0127799Y0342728D01*
X0122799Y0342728D01*
X0120299Y0340228D01*
X0117799Y0342728D01*
X0112799Y0342728D01*
X0110299Y0340228D01*
X0107799Y0342728D01*
X0102799Y0342728D01*
X0100299Y0340228D01*
X0100299Y0335228D01*
X0102799Y0332728D01*
X0107799Y0332728D01*
X0110299Y0335228D01*
X0112799Y0332728D01*
X0117799Y0332728D01*
X0120299Y0335228D01*
X0122799Y0332728D01*
X0127799Y0332728D01*
X0130299Y0335228D01*
X0132799Y0332728D01*
D11*
X0128223Y0337152D02*
X0125299Y0337152D01*
X0122375Y0337152D01*
X0121799Y0337728D02*
X0125299Y0334228D01*
X0128799Y0337728D01*
X0125299Y0337728D01*
X0125299Y0274228D01*
X0125299Y0337728D01*
X0121799Y0337728D01*
X0122974Y0336554D02*
X0125299Y0336554D01*
X0127625Y0336554D01*
X0127026Y0335955D02*
X0125299Y0335955D01*
X0123572Y0335955D01*
X0124171Y0335357D02*
X0125299Y0335357D01*
X0126427Y0335357D01*
X0125829Y0334758D02*
X0125299Y0334758D01*
X0124769Y0334758D01*
X0098799Y0341228D02*
X0098799Y0367728D01*
X0161799Y0367728D01*
X0161799Y0341228D01*
X0098799Y0341228D01*
X0098799Y0341342D02*
X0161799Y0341342D01*
X0161799Y0341940D02*
X0098799Y0341940D01*
X0098799Y0342539D02*
X0161799Y0342539D01*
X0161799Y0343137D02*
X0098799Y0343137D01*
X0098799Y0343736D02*
X0161799Y0343736D01*
X0161799Y0344334D02*
X0098799Y0344334D01*
X0098799Y0344933D02*
X0161799Y0344933D01*
X0161799Y0345531D02*
X0098799Y0345531D01*
X0098799Y0346130D02*
X0161799Y0346130D01*
X0161799Y0346728D02*
X0098799Y0346728D01*
X0098799Y0347327D02*
X0161799Y0347327D01*
X0161799Y0347925D02*
X0098799Y0347925D01*
X0098799Y0348524D02*
X0161799Y0348524D01*
X0161799Y0349122D02*
X0098799Y0349122D01*
X0098799Y0349721D02*
X0161799Y0349721D01*
X0161799Y0350319D02*
X0098799Y0350319D01*
X0098799Y0350918D02*
X0161799Y0350918D01*
X0161799Y0351516D02*
X0098799Y0351516D01*
X0098799Y0352115D02*
X0161799Y0352115D01*
X0161799Y0352713D02*
X0098799Y0352713D01*
X0098799Y0353312D02*
X0161799Y0353312D01*
X0161799Y0353910D02*
X0098799Y0353910D01*
X0098799Y0354509D02*
X0161799Y0354509D01*
X0161799Y0355108D02*
X0098799Y0355108D01*
X0098799Y0355706D02*
X0161799Y0355706D01*
X0161799Y0356305D02*
X0098799Y0356305D01*
X0098799Y0356903D02*
X0161799Y0356903D01*
X0161799Y0357502D02*
X0098799Y0357502D01*
X0098799Y0358100D02*
X0161799Y0358100D01*
X0161799Y0358699D02*
X0098799Y0358699D01*
X0098799Y0359297D02*
X0161799Y0359297D01*
X0161799Y0359896D02*
X0098799Y0359896D01*
X0098799Y0360494D02*
X0161799Y0360494D01*
X0161799Y0361093D02*
X0098799Y0361093D01*
X0098799Y0361691D02*
X0161799Y0361691D01*
X0161799Y0362290D02*
X0098799Y0362290D01*
X0098799Y0362888D02*
X0161799Y0362888D01*
X0161799Y0363487D02*
X0098799Y0363487D01*
X0098799Y0364085D02*
X0161799Y0364085D01*
X0161799Y0364684D02*
X0098799Y0364684D01*
X0098799Y0365282D02*
X0161799Y0365282D01*
X0161799Y0365881D02*
X0098799Y0365881D01*
X0098799Y0366479D02*
X0161799Y0366479D01*
X0161799Y0367078D02*
X0098799Y0367078D01*
X0098799Y0367676D02*
X0161799Y0367676D01*
X0136299Y0280728D02*
X0114299Y0280728D01*
X0114299Y0267728D01*
X0136299Y0267728D01*
X0136299Y0280728D01*
X0136299Y0280294D02*
X0114299Y0280294D01*
X0114299Y0279695D02*
X0136299Y0279695D01*
X0136299Y0279097D02*
X0114299Y0279097D01*
X0114299Y0278498D02*
X0136299Y0278498D01*
X0136299Y0277900D02*
X0114299Y0277900D01*
X0114299Y0277301D02*
X0136299Y0277301D01*
X0136299Y0276703D02*
X0114299Y0276703D01*
X0114299Y0276104D02*
X0136299Y0276104D01*
X0136299Y0275505D02*
X0114299Y0275505D01*
X0114299Y0274907D02*
X0136299Y0274907D01*
X0136299Y0274308D02*
X0114299Y0274308D01*
X0114299Y0273710D02*
X0136299Y0273710D01*
X0136299Y0273111D02*
X0114299Y0273111D01*
X0114299Y0272513D02*
X0136299Y0272513D01*
X0136299Y0271914D02*
X0114299Y0271914D01*
X0114299Y0271316D02*
X0136299Y0271316D01*
X0136299Y0270717D02*
X0114299Y0270717D01*
X0114299Y0270119D02*
X0136299Y0270119D01*
X0136299Y0269520D02*
X0114299Y0269520D01*
X0114299Y0268922D02*
X0136299Y0268922D01*
X0136299Y0268323D02*
X0114299Y0268323D01*
D12*
X0133771Y0319343D02*
X0135827Y0319343D01*
X0135883Y0319345D01*
X0135939Y0319351D01*
X0135994Y0319360D01*
X0136049Y0319373D01*
X0136102Y0319390D01*
X0136154Y0319411D01*
X0136205Y0319435D01*
X0136254Y0319463D01*
X0136301Y0319493D01*
X0136346Y0319527D01*
X0136388Y0319564D01*
X0136428Y0319604D01*
X0136465Y0319646D01*
X0136499Y0319691D01*
X0136529Y0319738D01*
X0136557Y0319787D01*
X0136581Y0319838D01*
X0136602Y0319890D01*
X0136619Y0319943D01*
X0136632Y0319998D01*
X0136641Y0320053D01*
X0136647Y0320109D01*
X0136649Y0320165D01*
X0136649Y0321398D01*
X0134594Y0321398D01*
X0134594Y0320782D01*
X0133771Y0319343D02*
X0133715Y0319345D01*
X0133659Y0319351D01*
X0133604Y0319360D01*
X0133549Y0319373D01*
X0133496Y0319390D01*
X0133444Y0319411D01*
X0133393Y0319435D01*
X0133344Y0319463D01*
X0133297Y0319493D01*
X0133252Y0319527D01*
X0133210Y0319564D01*
X0133170Y0319604D01*
X0133133Y0319646D01*
X0133099Y0319691D01*
X0133069Y0319738D01*
X0133041Y0319787D01*
X0133017Y0319837D01*
X0132996Y0319890D01*
X0132979Y0319943D01*
X0132966Y0319998D01*
X0132957Y0320053D01*
X0132951Y0320109D01*
X0132949Y0320165D01*
X0132949Y0321398D01*
X0132949Y0323183D02*
X0136649Y0325238D01*
X0132949Y0325238D01*
X0132949Y0327023D02*
X0132949Y0328051D01*
X0132951Y0328113D01*
X0132956Y0328175D01*
X0132966Y0328236D01*
X0132979Y0328297D01*
X0132996Y0328357D01*
X0133016Y0328416D01*
X0133040Y0328473D01*
X0133067Y0328529D01*
X0133097Y0328583D01*
X0133131Y0328635D01*
X0133168Y0328685D01*
X0133208Y0328733D01*
X0133250Y0328778D01*
X0133295Y0328820D01*
X0133343Y0328860D01*
X0133393Y0328897D01*
X0133445Y0328931D01*
X0133499Y0328961D01*
X0133555Y0328988D01*
X0133612Y0329012D01*
X0133671Y0329032D01*
X0133731Y0329049D01*
X0133792Y0329062D01*
X0133853Y0329072D01*
X0133915Y0329077D01*
X0133977Y0329079D01*
X0133977Y0329078D02*
X0135621Y0329078D01*
X0135621Y0329079D02*
X0135683Y0329077D01*
X0135745Y0329072D01*
X0135806Y0329062D01*
X0135867Y0329049D01*
X0135927Y0329032D01*
X0135986Y0329012D01*
X0136043Y0328988D01*
X0136099Y0328961D01*
X0136153Y0328931D01*
X0136205Y0328897D01*
X0136255Y0328860D01*
X0136303Y0328820D01*
X0136348Y0328778D01*
X0136390Y0328733D01*
X0136430Y0328685D01*
X0136467Y0328635D01*
X0136501Y0328583D01*
X0136531Y0328529D01*
X0136558Y0328473D01*
X0136582Y0328416D01*
X0136602Y0328357D01*
X0136619Y0328297D01*
X0136632Y0328236D01*
X0136642Y0328175D01*
X0136647Y0328113D01*
X0136649Y0328051D01*
X0136649Y0327023D01*
X0132949Y0327023D01*
X0132949Y0323183D02*
X0136649Y0323183D01*
X0142949Y0323543D02*
X0146649Y0325598D01*
X0142949Y0325598D01*
X0142949Y0327023D02*
X0142949Y0329078D01*
X0142949Y0328051D02*
X0146649Y0328051D01*
X0146649Y0323543D02*
X0142949Y0323543D01*
X0142949Y0321982D02*
X0142949Y0321159D01*
X0142949Y0321571D02*
X0146649Y0321571D01*
X0146649Y0321982D02*
X0146649Y0321159D01*
X0126649Y0321872D02*
X0122949Y0323105D01*
X0123771Y0324434D02*
X0125827Y0324434D01*
X0125883Y0324436D01*
X0125939Y0324442D01*
X0125994Y0324451D01*
X0126049Y0324464D01*
X0126102Y0324481D01*
X0126154Y0324502D01*
X0126205Y0324526D01*
X0126254Y0324554D01*
X0126301Y0324584D01*
X0126346Y0324618D01*
X0126388Y0324655D01*
X0126428Y0324695D01*
X0126465Y0324737D01*
X0126499Y0324782D01*
X0126529Y0324829D01*
X0126557Y0324878D01*
X0126581Y0324929D01*
X0126602Y0324981D01*
X0126619Y0325034D01*
X0126632Y0325089D01*
X0126641Y0325144D01*
X0126647Y0325200D01*
X0126649Y0325256D01*
X0126649Y0326078D01*
X0125827Y0327434D02*
X0123771Y0327434D01*
X0123715Y0327436D01*
X0123659Y0327442D01*
X0123604Y0327451D01*
X0123549Y0327464D01*
X0123496Y0327481D01*
X0123444Y0327502D01*
X0123393Y0327526D01*
X0123344Y0327554D01*
X0123297Y0327584D01*
X0123252Y0327618D01*
X0123210Y0327655D01*
X0123170Y0327695D01*
X0123133Y0327737D01*
X0123099Y0327782D01*
X0123069Y0327829D01*
X0123041Y0327878D01*
X0123017Y0327928D01*
X0122996Y0327981D01*
X0122979Y0328034D01*
X0122966Y0328089D01*
X0122957Y0328144D01*
X0122951Y0328200D01*
X0122949Y0328256D01*
X0122949Y0329078D01*
X0125827Y0327434D02*
X0125883Y0327436D01*
X0125939Y0327442D01*
X0125994Y0327451D01*
X0126049Y0327464D01*
X0126102Y0327481D01*
X0126154Y0327502D01*
X0126205Y0327526D01*
X0126254Y0327554D01*
X0126301Y0327584D01*
X0126346Y0327618D01*
X0126388Y0327655D01*
X0126428Y0327695D01*
X0126465Y0327737D01*
X0126499Y0327782D01*
X0126529Y0327829D01*
X0126557Y0327878D01*
X0126581Y0327929D01*
X0126602Y0327981D01*
X0126619Y0328034D01*
X0126632Y0328089D01*
X0126641Y0328144D01*
X0126647Y0328200D01*
X0126649Y0328256D01*
X0126649Y0329078D01*
X0122949Y0326078D02*
X0122949Y0325256D01*
X0122951Y0325200D01*
X0122957Y0325144D01*
X0122966Y0325089D01*
X0122979Y0325034D01*
X0122996Y0324981D01*
X0123017Y0324928D01*
X0123041Y0324878D01*
X0123069Y0324829D01*
X0123099Y0324782D01*
X0123133Y0324737D01*
X0123170Y0324695D01*
X0123210Y0324655D01*
X0123252Y0324618D01*
X0123297Y0324584D01*
X0123344Y0324554D01*
X0123393Y0324526D01*
X0123444Y0324502D01*
X0123496Y0324481D01*
X0123549Y0324464D01*
X0123604Y0324451D01*
X0123659Y0324442D01*
X0123715Y0324436D01*
X0123771Y0324434D01*
X0126649Y0321872D02*
X0122949Y0320639D01*
X0116649Y0323097D02*
X0116649Y0324125D01*
X0116647Y0324187D01*
X0116642Y0324249D01*
X0116632Y0324310D01*
X0116619Y0324371D01*
X0116602Y0324431D01*
X0116582Y0324490D01*
X0116558Y0324547D01*
X0116531Y0324603D01*
X0116501Y0324657D01*
X0116467Y0324709D01*
X0116430Y0324759D01*
X0116390Y0324807D01*
X0116348Y0324852D01*
X0116303Y0324894D01*
X0116255Y0324934D01*
X0116205Y0324971D01*
X0116153Y0325005D01*
X0116099Y0325035D01*
X0116043Y0325062D01*
X0115986Y0325086D01*
X0115927Y0325106D01*
X0115867Y0325123D01*
X0115806Y0325136D01*
X0115745Y0325146D01*
X0115683Y0325151D01*
X0115621Y0325153D01*
X0113977Y0325153D01*
X0113915Y0325151D01*
X0113853Y0325146D01*
X0113792Y0325136D01*
X0113731Y0325123D01*
X0113671Y0325106D01*
X0113612Y0325086D01*
X0113555Y0325062D01*
X0113499Y0325035D01*
X0113445Y0325005D01*
X0113393Y0324971D01*
X0113343Y0324934D01*
X0113295Y0324894D01*
X0113250Y0324852D01*
X0113208Y0324807D01*
X0113168Y0324759D01*
X0113131Y0324709D01*
X0113097Y0324657D01*
X0113067Y0324603D01*
X0113040Y0324547D01*
X0113016Y0324490D01*
X0112996Y0324431D01*
X0112979Y0324371D01*
X0112966Y0324310D01*
X0112956Y0324249D01*
X0112951Y0324187D01*
X0112949Y0324125D01*
X0112949Y0323097D01*
X0116649Y0323097D01*
X0115108Y0321142D02*
X0114491Y0320011D01*
X0112949Y0320422D02*
X0112951Y0320498D01*
X0112957Y0320574D01*
X0112966Y0320650D01*
X0112979Y0320725D01*
X0112996Y0320800D01*
X0113017Y0320873D01*
X0113041Y0320946D01*
X0113068Y0321017D01*
X0113100Y0321086D01*
X0113134Y0321155D01*
X0113172Y0321221D01*
X0113213Y0321285D01*
X0113257Y0321347D01*
X0114490Y0320011D02*
X0114461Y0319965D01*
X0114429Y0319922D01*
X0114395Y0319880D01*
X0114357Y0319841D01*
X0114318Y0319804D01*
X0114276Y0319770D01*
X0114231Y0319738D01*
X0114185Y0319710D01*
X0114137Y0319685D01*
X0114088Y0319662D01*
X0114037Y0319644D01*
X0113985Y0319628D01*
X0113933Y0319616D01*
X0113879Y0319607D01*
X0113825Y0319602D01*
X0113771Y0319600D01*
X0113715Y0319602D01*
X0113659Y0319608D01*
X0113604Y0319617D01*
X0113549Y0319630D01*
X0113496Y0319647D01*
X0113444Y0319668D01*
X0113393Y0319692D01*
X0113344Y0319720D01*
X0113297Y0319750D01*
X0113252Y0319784D01*
X0113210Y0319821D01*
X0113170Y0319861D01*
X0113133Y0319903D01*
X0113099Y0319948D01*
X0113069Y0319995D01*
X0113041Y0320044D01*
X0113017Y0320095D01*
X0112996Y0320147D01*
X0112979Y0320200D01*
X0112966Y0320255D01*
X0112957Y0320310D01*
X0112951Y0320366D01*
X0112949Y0320422D01*
X0116135Y0319498D02*
X0116191Y0319556D01*
X0116244Y0319616D01*
X0116295Y0319679D01*
X0116342Y0319745D01*
X0116386Y0319812D01*
X0116427Y0319882D01*
X0116465Y0319953D01*
X0116499Y0320026D01*
X0116530Y0320100D01*
X0116558Y0320176D01*
X0116582Y0320253D01*
X0116602Y0320331D01*
X0116619Y0320410D01*
X0116632Y0320490D01*
X0116642Y0320570D01*
X0116647Y0320650D01*
X0116649Y0320731D01*
X0116647Y0320787D01*
X0116641Y0320843D01*
X0116632Y0320898D01*
X0116619Y0320953D01*
X0116602Y0321006D01*
X0116581Y0321058D01*
X0116557Y0321109D01*
X0116529Y0321158D01*
X0116499Y0321205D01*
X0116465Y0321250D01*
X0116428Y0321292D01*
X0116388Y0321332D01*
X0116346Y0321369D01*
X0116301Y0321403D01*
X0116254Y0321433D01*
X0116205Y0321461D01*
X0116154Y0321485D01*
X0116102Y0321506D01*
X0116049Y0321523D01*
X0115994Y0321536D01*
X0115939Y0321545D01*
X0115883Y0321551D01*
X0115827Y0321553D01*
X0115773Y0321551D01*
X0115719Y0321546D01*
X0115665Y0321537D01*
X0115613Y0321525D01*
X0115561Y0321509D01*
X0115510Y0321491D01*
X0115461Y0321468D01*
X0115413Y0321443D01*
X0115367Y0321415D01*
X0115322Y0321383D01*
X0115280Y0321349D01*
X0115241Y0321312D01*
X0115203Y0321273D01*
X0115169Y0321231D01*
X0115137Y0321188D01*
X0115108Y0321142D01*
X0116649Y0326612D02*
X0112949Y0327845D01*
X0116649Y0329078D01*
X0115724Y0328770D02*
X0115724Y0326920D01*
X0106649Y0327434D02*
X0106649Y0329078D01*
X0106649Y0327434D02*
X0102949Y0327434D01*
X0102949Y0325941D02*
X0102949Y0325119D01*
X0102951Y0325063D01*
X0102957Y0325007D01*
X0102966Y0324952D01*
X0102979Y0324897D01*
X0102996Y0324844D01*
X0103017Y0324791D01*
X0103041Y0324741D01*
X0103069Y0324692D01*
X0103099Y0324645D01*
X0103133Y0324600D01*
X0103170Y0324558D01*
X0103210Y0324518D01*
X0103252Y0324481D01*
X0103297Y0324447D01*
X0103344Y0324417D01*
X0103393Y0324389D01*
X0103444Y0324365D01*
X0103496Y0324344D01*
X0103549Y0324327D01*
X0103604Y0324314D01*
X0103659Y0324305D01*
X0103715Y0324299D01*
X0103771Y0324297D01*
X0105827Y0324297D01*
X0105883Y0324299D01*
X0105939Y0324305D01*
X0105994Y0324314D01*
X0106049Y0324327D01*
X0106102Y0324344D01*
X0106154Y0324365D01*
X0106205Y0324389D01*
X0106254Y0324417D01*
X0106301Y0324447D01*
X0106346Y0324481D01*
X0106388Y0324518D01*
X0106428Y0324558D01*
X0106465Y0324600D01*
X0106499Y0324645D01*
X0106529Y0324692D01*
X0106557Y0324741D01*
X0106581Y0324792D01*
X0106602Y0324844D01*
X0106619Y0324897D01*
X0106632Y0324952D01*
X0106641Y0325007D01*
X0106647Y0325063D01*
X0106649Y0325119D01*
X0106649Y0325941D01*
X0105108Y0322472D02*
X0104491Y0321341D01*
X0102949Y0321752D02*
X0102951Y0321828D01*
X0102957Y0321904D01*
X0102966Y0321980D01*
X0102979Y0322055D01*
X0102996Y0322130D01*
X0103017Y0322203D01*
X0103041Y0322276D01*
X0103068Y0322347D01*
X0103100Y0322416D01*
X0103134Y0322485D01*
X0103172Y0322551D01*
X0103213Y0322615D01*
X0103257Y0322677D01*
X0104490Y0321341D02*
X0104461Y0321295D01*
X0104429Y0321252D01*
X0104395Y0321210D01*
X0104357Y0321171D01*
X0104318Y0321134D01*
X0104276Y0321100D01*
X0104231Y0321068D01*
X0104185Y0321040D01*
X0104137Y0321015D01*
X0104088Y0320992D01*
X0104037Y0320974D01*
X0103985Y0320958D01*
X0103933Y0320946D01*
X0103879Y0320937D01*
X0103825Y0320932D01*
X0103771Y0320930D01*
X0103715Y0320932D01*
X0103659Y0320938D01*
X0103604Y0320947D01*
X0103549Y0320960D01*
X0103496Y0320977D01*
X0103444Y0320998D01*
X0103393Y0321022D01*
X0103344Y0321050D01*
X0103297Y0321080D01*
X0103252Y0321114D01*
X0103210Y0321151D01*
X0103170Y0321191D01*
X0103133Y0321233D01*
X0103099Y0321278D01*
X0103069Y0321325D01*
X0103041Y0321374D01*
X0103017Y0321425D01*
X0102996Y0321477D01*
X0102979Y0321530D01*
X0102966Y0321585D01*
X0102957Y0321640D01*
X0102951Y0321696D01*
X0102949Y0321752D01*
X0106135Y0320827D02*
X0106191Y0320885D01*
X0106244Y0320945D01*
X0106295Y0321008D01*
X0106342Y0321074D01*
X0106386Y0321141D01*
X0106427Y0321211D01*
X0106465Y0321282D01*
X0106499Y0321355D01*
X0106530Y0321429D01*
X0106558Y0321505D01*
X0106582Y0321582D01*
X0106602Y0321660D01*
X0106619Y0321739D01*
X0106632Y0321819D01*
X0106642Y0321899D01*
X0106647Y0321979D01*
X0106649Y0322060D01*
X0106647Y0322116D01*
X0106641Y0322172D01*
X0106632Y0322227D01*
X0106619Y0322282D01*
X0106602Y0322335D01*
X0106581Y0322387D01*
X0106557Y0322438D01*
X0106529Y0322487D01*
X0106499Y0322534D01*
X0106465Y0322579D01*
X0106428Y0322621D01*
X0106388Y0322661D01*
X0106346Y0322698D01*
X0106301Y0322732D01*
X0106254Y0322762D01*
X0106205Y0322790D01*
X0106154Y0322814D01*
X0106102Y0322835D01*
X0106049Y0322852D01*
X0105994Y0322865D01*
X0105939Y0322874D01*
X0105883Y0322880D01*
X0105827Y0322882D01*
X0105827Y0322883D02*
X0105773Y0322881D01*
X0105719Y0322876D01*
X0105665Y0322867D01*
X0105613Y0322855D01*
X0105561Y0322839D01*
X0105510Y0322821D01*
X0105461Y0322798D01*
X0105413Y0322773D01*
X0105367Y0322745D01*
X0105322Y0322713D01*
X0105280Y0322679D01*
X0105241Y0322642D01*
X0105203Y0322603D01*
X0105169Y0322561D01*
X0105137Y0322518D01*
X0105108Y0322472D01*
X0163754Y0217078D02*
X0164987Y0217078D01*
X0163754Y0217078D02*
X0163698Y0217076D01*
X0163642Y0217070D01*
X0163587Y0217061D01*
X0163532Y0217048D01*
X0163479Y0217031D01*
X0163427Y0217010D01*
X0163376Y0216986D01*
X0163327Y0216958D01*
X0163280Y0216928D01*
X0163235Y0216894D01*
X0163193Y0216857D01*
X0163153Y0216817D01*
X0163116Y0216775D01*
X0163082Y0216730D01*
X0163052Y0216683D01*
X0163024Y0216634D01*
X0163000Y0216583D01*
X0162979Y0216531D01*
X0162962Y0216478D01*
X0162949Y0216423D01*
X0162940Y0216368D01*
X0162934Y0216312D01*
X0162932Y0216256D01*
X0162931Y0216256D02*
X0162931Y0214201D01*
X0162932Y0214201D02*
X0162934Y0214145D01*
X0162940Y0214089D01*
X0162949Y0214034D01*
X0162962Y0213979D01*
X0162979Y0213926D01*
X0163000Y0213874D01*
X0163024Y0213823D01*
X0163052Y0213774D01*
X0163082Y0213727D01*
X0163116Y0213682D01*
X0163153Y0213640D01*
X0163193Y0213600D01*
X0163235Y0213563D01*
X0163280Y0213529D01*
X0163327Y0213499D01*
X0163376Y0213471D01*
X0163427Y0213447D01*
X0163479Y0213426D01*
X0163532Y0213409D01*
X0163587Y0213396D01*
X0163642Y0213387D01*
X0163698Y0213381D01*
X0163754Y0213379D01*
X0163754Y0213378D02*
X0164987Y0213378D01*
X0164987Y0215434D01*
X0164370Y0215434D01*
X0166771Y0217078D02*
X0168827Y0213378D01*
X0168827Y0217078D01*
X0170611Y0217078D02*
X0170611Y0213378D01*
X0171639Y0213378D01*
X0171701Y0213380D01*
X0171763Y0213385D01*
X0171824Y0213395D01*
X0171885Y0213408D01*
X0171945Y0213425D01*
X0172004Y0213445D01*
X0172061Y0213469D01*
X0172117Y0213496D01*
X0172171Y0213526D01*
X0172223Y0213560D01*
X0172273Y0213597D01*
X0172321Y0213637D01*
X0172366Y0213679D01*
X0172408Y0213724D01*
X0172448Y0213772D01*
X0172485Y0213822D01*
X0172519Y0213874D01*
X0172549Y0213928D01*
X0172576Y0213984D01*
X0172600Y0214041D01*
X0172620Y0214100D01*
X0172637Y0214160D01*
X0172650Y0214221D01*
X0172660Y0214282D01*
X0172665Y0214344D01*
X0172667Y0214406D01*
X0172667Y0216051D01*
X0172665Y0216113D01*
X0172660Y0216175D01*
X0172650Y0216236D01*
X0172637Y0216297D01*
X0172620Y0216357D01*
X0172600Y0216416D01*
X0172576Y0216473D01*
X0172549Y0216529D01*
X0172519Y0216583D01*
X0172485Y0216635D01*
X0172448Y0216685D01*
X0172408Y0216733D01*
X0172366Y0216778D01*
X0172321Y0216820D01*
X0172273Y0216860D01*
X0172223Y0216897D01*
X0172171Y0216931D01*
X0172117Y0216961D01*
X0172061Y0216988D01*
X0172004Y0217012D01*
X0171945Y0217032D01*
X0171885Y0217049D01*
X0171824Y0217062D01*
X0171763Y0217072D01*
X0171701Y0217077D01*
X0171639Y0217079D01*
X0171639Y0217078D02*
X0170611Y0217078D01*
X0166771Y0217078D02*
X0166771Y0213378D01*
X0166196Y0132078D02*
X0167430Y0128378D01*
X0167121Y0129303D02*
X0165271Y0129303D01*
X0164963Y0128378D02*
X0166196Y0132078D01*
X0168529Y0132078D02*
X0170584Y0132078D01*
X0169556Y0132078D02*
X0169556Y0128378D01*
X0171683Y0128378D02*
X0172916Y0132078D01*
X0174150Y0128378D01*
X0173841Y0129303D02*
X0171991Y0129303D01*
X0163504Y0129406D02*
X0163504Y0131051D01*
X0163502Y0131113D01*
X0163497Y0131175D01*
X0163487Y0131236D01*
X0163474Y0131297D01*
X0163457Y0131357D01*
X0163437Y0131416D01*
X0163413Y0131473D01*
X0163386Y0131529D01*
X0163356Y0131583D01*
X0163322Y0131635D01*
X0163285Y0131685D01*
X0163245Y0131733D01*
X0163203Y0131778D01*
X0163158Y0131820D01*
X0163110Y0131860D01*
X0163060Y0131897D01*
X0163008Y0131931D01*
X0162954Y0131961D01*
X0162898Y0131988D01*
X0162841Y0132012D01*
X0162782Y0132032D01*
X0162722Y0132049D01*
X0162661Y0132062D01*
X0162600Y0132072D01*
X0162538Y0132077D01*
X0162476Y0132079D01*
X0162476Y0132078D02*
X0161449Y0132078D01*
X0161449Y0128378D01*
X0162476Y0128378D01*
X0162538Y0128380D01*
X0162600Y0128385D01*
X0162661Y0128395D01*
X0162722Y0128408D01*
X0162782Y0128425D01*
X0162841Y0128445D01*
X0162898Y0128469D01*
X0162954Y0128496D01*
X0163008Y0128526D01*
X0163060Y0128560D01*
X0163110Y0128597D01*
X0163158Y0128637D01*
X0163203Y0128679D01*
X0163245Y0128724D01*
X0163285Y0128772D01*
X0163322Y0128822D01*
X0163356Y0128874D01*
X0163386Y0128928D01*
X0163413Y0128984D01*
X0163437Y0129041D01*
X0163457Y0129100D01*
X0163474Y0129160D01*
X0163487Y0129221D01*
X0163497Y0129282D01*
X0163502Y0129344D01*
X0163504Y0129406D01*
D13*
X0169551Y0307535D02*
X0088843Y0307535D01*
D14*
X0075299Y0320791D02*
X0175299Y0320791D01*
X0125299Y0274228D01*
X0075299Y0320791D01*
M02*
