G75*
%MOIN*%
%OFA0B0*%
%FSLAX25Y25*%
%IPPOS*%
%LPD*%
%AMOC8*
5,1,8,0,0,1.08239X$1,22.5*
%
%ADD10C,0.07400*%
%ADD11C,0.01600*%
%ADD12C,0.02978*%
D10*
X0095299Y0117728D03*
X0095299Y0127728D03*
X0105299Y0127728D03*
X0095299Y0137728D03*
X0095299Y0147728D03*
X0095299Y0157728D03*
X0095299Y0167728D03*
X0095299Y0177728D03*
X0095299Y0187728D03*
X0095299Y0197728D03*
X0095299Y0207728D03*
X0095299Y0217728D03*
X0095299Y0227728D03*
X0095299Y0237728D03*
X0095299Y0247728D03*
X0105299Y0247728D03*
X0115299Y0247728D03*
X0125299Y0247728D03*
X0135299Y0247728D03*
X0145299Y0247728D03*
X0155299Y0247728D03*
X0155299Y0237728D03*
X0155299Y0227728D03*
X0155299Y0217728D03*
X0145299Y0207728D03*
X0135299Y0207728D03*
X0125299Y0207728D03*
X0115299Y0207728D03*
X0165299Y0207728D03*
X0165299Y0197728D03*
X0165299Y0187728D03*
X0165299Y0177728D03*
X0165299Y0167728D03*
X0165299Y0157728D03*
X0165299Y0147728D03*
X0165299Y0137728D03*
X0155299Y0137728D03*
X0155299Y0127728D03*
X0155299Y0117728D03*
X0135299Y0127728D03*
X0125299Y0127728D03*
X0115299Y0127728D03*
X0115299Y0337728D03*
X0125299Y0337728D03*
X0135299Y0337728D03*
X0145299Y0337728D03*
X0105299Y0337728D03*
D11*
X0105299Y0337353D01*
X0085924Y0317978D01*
X0085924Y0197353D01*
X0095299Y0187978D01*
X0095299Y0187728D01*
X0095299Y0197728D02*
X0095299Y0197978D01*
X0089049Y0204228D01*
X0089049Y0311103D01*
X0115299Y0337353D01*
X0115299Y0337728D01*
X0125299Y0337728D02*
X0092799Y0305228D01*
X0092799Y0256728D01*
X0117174Y0241728D02*
X0107799Y0232353D01*
X0107799Y0187353D01*
X0130299Y0187353D01*
X0134674Y0187978D02*
X0134674Y0127978D01*
X0135299Y0127728D01*
X0135049Y0127728D01*
X0125299Y0117978D01*
X0095299Y0117978D01*
X0095299Y0117728D01*
X0095299Y0137728D02*
X0095299Y0137978D01*
X0107799Y0150478D01*
X0107799Y0187353D01*
X0115299Y0171728D02*
X0112799Y0169228D01*
X0112799Y0154228D01*
X0115299Y0151728D01*
X0145299Y0147978D02*
X0145299Y0197353D01*
X0135299Y0207353D01*
X0135299Y0207728D01*
X0129049Y0213603D02*
X0150924Y0213603D01*
X0150924Y0210478D01*
X0155924Y0205478D01*
X0155924Y0157353D01*
X0165299Y0147978D01*
X0165299Y0147728D01*
X0171549Y0144228D02*
X0165299Y0137978D01*
X0165299Y0137728D01*
X0171549Y0144228D02*
X0171549Y0221103D01*
X0155299Y0237353D01*
X0155299Y0237728D01*
X0155299Y0227728D02*
X0155299Y0227353D01*
X0161549Y0221103D01*
X0161549Y0212353D01*
X0159049Y0209853D01*
X0159049Y0184228D01*
X0165299Y0177978D01*
X0165299Y0177728D01*
X0149049Y0203603D02*
X0149049Y0134228D01*
X0155299Y0127978D01*
X0155299Y0127728D01*
X0134674Y0187978D02*
X0115299Y0207353D01*
X0115299Y0207728D01*
X0129049Y0213603D02*
X0111549Y0231103D01*
X0117174Y0241728D02*
X0129299Y0241728D01*
X0135299Y0247728D01*
X0145299Y0207728D02*
X0145299Y0207353D01*
X0149049Y0203603D01*
D12*
X0130299Y0187353D03*
X0115299Y0171728D03*
X0115299Y0151728D03*
X0145299Y0147978D03*
X0111549Y0231103D03*
X0092799Y0256728D03*
M02*
