G04 MADE WITH FRITZING*
G04 WWW.FRITZING.ORG*
G04 DOUBLE SIDED*
G04 HOLES PLATED*
G04 CONTOUR ON CENTER OF CONTOUR VECTOR*
%ASAXBY*%
%FSLAX23Y23*%
%MOIN*%
%OFA0B0*%
%SFA1.0B1.0*%
%ADD10C,0.078000*%
%ADD11C,0.024000*%
%LNCOPPER0*%
G90*
G70*
G54D10*
X1890Y1000D03*
X1790Y1000D03*
X1690Y1000D03*
X1590Y1000D03*
X1490Y1000D03*
X1390Y1000D03*
X1290Y1000D03*
X1190Y1000D03*
X1090Y1000D03*
X990Y1000D03*
X890Y1000D03*
X790Y1000D03*
X690Y1000D03*
X590Y1000D03*
X1890Y1000D03*
X1790Y1000D03*
X1690Y1000D03*
X1590Y1000D03*
X1490Y1000D03*
X1390Y1000D03*
X1290Y1000D03*
X1190Y1000D03*
X1090Y1000D03*
X990Y1000D03*
X890Y1000D03*
X790Y1000D03*
X690Y1000D03*
X590Y1000D03*
X1890Y900D03*
X1790Y900D03*
X1690Y900D03*
X1590Y900D03*
X1490Y900D03*
X1390Y900D03*
X1290Y900D03*
X1190Y900D03*
X1090Y900D03*
X990Y900D03*
X890Y900D03*
X790Y900D03*
X690Y900D03*
X590Y900D03*
X1890Y900D03*
X1790Y900D03*
X1690Y900D03*
X1590Y900D03*
X1490Y900D03*
X1390Y900D03*
X1290Y900D03*
X1190Y900D03*
X1090Y900D03*
X990Y900D03*
X890Y900D03*
X790Y900D03*
X690Y900D03*
X590Y900D03*
X1890Y1500D03*
X1790Y1500D03*
X1690Y1500D03*
X1590Y1500D03*
X1490Y1500D03*
X1390Y1500D03*
X1290Y1500D03*
X1190Y1500D03*
X1090Y1500D03*
X990Y1500D03*
X890Y1500D03*
X790Y1500D03*
X690Y1500D03*
X590Y1500D03*
X1890Y1500D03*
X1790Y1500D03*
X1690Y1500D03*
X1590Y1500D03*
X1490Y1500D03*
X1390Y1500D03*
X1290Y1500D03*
X1190Y1500D03*
X1090Y1500D03*
X990Y1500D03*
X890Y1500D03*
X790Y1500D03*
X690Y1500D03*
X590Y1500D03*
X1890Y1600D03*
X1790Y1600D03*
X1690Y1600D03*
X1590Y1600D03*
X1490Y1600D03*
X1390Y1600D03*
X1290Y1600D03*
X1190Y1600D03*
X1090Y1600D03*
X990Y1600D03*
X890Y1600D03*
X790Y1600D03*
X690Y1600D03*
X590Y1600D03*
X1890Y1600D03*
X1790Y1600D03*
X1690Y1600D03*
X1590Y1600D03*
X1490Y1600D03*
X1390Y1600D03*
X1290Y1600D03*
X1190Y1600D03*
X1090Y1600D03*
X990Y1600D03*
X890Y1600D03*
X790Y1600D03*
X690Y1600D03*
X590Y1600D03*
X1190Y700D03*
X1090Y700D03*
X990Y700D03*
X890Y700D03*
X1190Y700D03*
X1090Y700D03*
X990Y700D03*
X890Y700D03*
X190Y2300D03*
X190Y2200D03*
X190Y2100D03*
X190Y2000D03*
X190Y1900D03*
X190Y1800D03*
X190Y2300D03*
X190Y2200D03*
X190Y2100D03*
X190Y2000D03*
X190Y1900D03*
X190Y1800D03*
G54D11*
X1890Y930D02*
X1890Y970D01*
D02*
X1790Y930D02*
X1790Y970D01*
D02*
X1690Y930D02*
X1690Y970D01*
D02*
X1590Y930D02*
X1590Y970D01*
D02*
X1490Y930D02*
X1490Y970D01*
D02*
X1390Y930D02*
X1390Y970D01*
D02*
X1290Y930D02*
X1290Y970D01*
D02*
X1190Y930D02*
X1190Y970D01*
D02*
X1090Y930D02*
X1090Y970D01*
D02*
X990Y930D02*
X990Y970D01*
D02*
X890Y930D02*
X890Y970D01*
D02*
X790Y930D02*
X790Y970D01*
D02*
X690Y930D02*
X690Y970D01*
D02*
X590Y930D02*
X590Y970D01*
D02*
X1890Y1530D02*
X1890Y1570D01*
D02*
X1790Y1530D02*
X1790Y1570D01*
D02*
X1690Y1530D02*
X1690Y1570D01*
D02*
X1590Y1530D02*
X1590Y1570D01*
D02*
X1490Y1530D02*
X1490Y1570D01*
D02*
X1390Y1530D02*
X1390Y1570D01*
D02*
X1290Y1530D02*
X1290Y1570D01*
D02*
X1190Y1530D02*
X1190Y1570D01*
D02*
X1090Y1530D02*
X1090Y1570D01*
D02*
X990Y1530D02*
X990Y1570D01*
D02*
X890Y1530D02*
X890Y1570D01*
D02*
X790Y1530D02*
X790Y1570D01*
D02*
X690Y1530D02*
X690Y1570D01*
D02*
X590Y1530D02*
X590Y1570D01*
D02*
X1791Y2101D02*
X220Y2100D01*
D02*
X1890Y1999D02*
X1791Y2101D01*
D02*
X1890Y1630D02*
X1890Y1999D01*
D02*
X1689Y1999D02*
X220Y2000D01*
D02*
X1791Y1900D02*
X1689Y1999D01*
D02*
X1790Y1630D02*
X1791Y1900D01*
D02*
X1590Y1900D02*
X220Y1900D01*
D02*
X1689Y1801D02*
X1590Y1900D01*
D02*
X1690Y1630D02*
X1689Y1801D01*
D02*
X1291Y800D02*
X1211Y721D01*
D02*
X1791Y800D02*
X1291Y800D01*
D02*
X1869Y879D02*
X1791Y800D01*
D02*
X1020Y700D02*
X1060Y700D01*
D02*
X889Y600D02*
X968Y679D01*
D02*
X589Y600D02*
X889Y600D01*
D02*
X491Y702D02*
X589Y600D01*
D02*
X491Y1301D02*
X491Y702D01*
D02*
X589Y1400D02*
X491Y1301D01*
D02*
X1791Y1400D02*
X589Y1400D01*
D02*
X1869Y1479D02*
X1791Y1400D01*
D02*
X1791Y800D02*
X991Y800D01*
D02*
X991Y800D02*
X911Y721D01*
D02*
X1869Y879D02*
X1791Y800D01*
G04 End of Copper0*
M02*