G04 MADE WITH FRITZING*
G04 WWW.FRITZING.ORG*
G04 DOUBLE SIDED*
G04 HOLES PLATED*
G04 CONTOUR ON CENTER OF CONTOUR VECTOR*
%ASAXBY*%
%FSLAX23Y23*%
%MOIN*%
%OFA0B0*%
%SFA1.0B1.0*%
%ADD10R,1.968500X2.440940X1.952500X2.424940*%
%ADD11C,0.008000*%
%ADD12C,0.010000*%
%ADD13C,0.005000*%
%LNSILK0*%
G90*
G70*
G54D11*
X4Y2437D02*
X1965Y2437D01*
X1965Y4D01*
X4Y4D01*
X4Y2437D01*
D02*
G54D12*
X1940Y950D02*
X540Y950D01*
D02*
X540Y950D02*
X540Y1050D01*
D02*
X540Y1050D02*
X1940Y1050D01*
D02*
X1940Y1050D02*
X1940Y950D01*
G54D13*
D02*
X1905Y950D02*
X1940Y985D01*
G54D12*
D02*
X1940Y850D02*
X540Y850D01*
D02*
X540Y850D02*
X540Y950D01*
D02*
X540Y950D02*
X1940Y950D01*
D02*
X1940Y950D02*
X1940Y850D01*
G54D13*
D02*
X1905Y850D02*
X1940Y885D01*
G54D12*
D02*
X1940Y1450D02*
X540Y1450D01*
D02*
X540Y1450D02*
X540Y1550D01*
D02*
X540Y1550D02*
X1940Y1550D01*
D02*
X1940Y1550D02*
X1940Y1450D01*
G54D13*
D02*
X1905Y1450D02*
X1940Y1485D01*
G54D12*
D02*
X1940Y1550D02*
X540Y1550D01*
D02*
X540Y1550D02*
X540Y1650D01*
D02*
X540Y1650D02*
X1940Y1650D01*
D02*
X1940Y1650D02*
X1940Y1550D01*
G54D13*
D02*
X1905Y1550D02*
X1940Y1585D01*
G54D12*
D02*
X1240Y650D02*
X840Y650D01*
D02*
X840Y650D02*
X840Y750D01*
D02*
X840Y750D02*
X1240Y750D01*
D02*
X1240Y750D02*
X1240Y650D01*
G54D13*
D02*
X1205Y650D02*
X1240Y685D01*
G54D12*
D02*
X240Y2350D02*
X240Y1750D01*
D02*
X240Y1750D02*
X140Y1750D01*
D02*
X140Y1750D02*
X140Y2350D01*
D02*
X140Y2350D02*
X240Y2350D01*
G54D13*
D02*
X240Y2315D02*
X205Y2350D01*
G04 End of Silk0*
M02*