; NON-PLATED HOLES START AT T1
; THROUGH (PLATED) HOLES START AT T100
M48
INCH
T100C0.038000
%
T100
X011896Y016002
X012896Y010002
X001896Y019002
X012896Y009002
X005896Y015002
X012896Y016002
X018896Y015002
X001896Y021002
X006896Y015002
X005896Y010002
X018896Y010002
X005896Y009002
X013896Y015002
X018896Y009002
X007896Y015002
X005896Y016002
X006896Y010002
X018896Y016002
X010896Y007002
X006896Y009002
X014896Y015002
X013896Y010002
X008896Y007002
X001896Y022002
X006896Y016002
X007896Y010002
X013896Y009002
X007896Y009002
X013896Y016002
X014896Y010002
X009896Y007002
X007896Y016002
X014896Y009002
X014896Y016002
X010896Y015002
X001896Y023002
X008896Y015002
X011896Y007002
X015896Y015002
X010896Y010002
X009896Y015002
X010896Y009002
X008896Y010002
X008896Y009002
X010896Y016002
X016896Y015002
X015896Y010002
X008896Y016002
X009896Y010002
X015896Y009002
X009896Y009002
X017896Y015002
X015896Y016002
X016896Y010002
X009896Y016002
X011896Y015002
X016896Y009002
X001896Y018002
X016896Y016002
X017896Y010002
X012896Y015002
X017896Y009002
X011896Y010002
X011896Y009002
X017896Y016002
X001896Y020002
T00
M30
