; NON-PLATED HOLES START AT T1
; THROUGH (PLATED) HOLES START AT T100
M48
INCH
T100C0.038000
%
T100
X014785Y010383
X010785Y001383
X014785Y009383
X013785Y004383
X007785Y003383
X014785Y004383
X009785Y001383
X000785Y017383
X007785Y010383
X007785Y009383
X008785Y003383
X008785Y010383
X015785Y003383
X000785Y012383
X008785Y009383
X007785Y004383
X015785Y010383
X015785Y009383
X016785Y003383
X008785Y004383
X010785Y003383
X016785Y010383
X004785Y003383
X016785Y009383
X010785Y010383
X015785Y004383
X000785Y013383
X004785Y010383
X010785Y009383
X011785Y003383
X004785Y009383
X009785Y003383
X011785Y010383
X016785Y004383
X011785Y009383
X009785Y010383
X010785Y004383
X009785Y009383
X004785Y004383
X000785Y014383
X017785Y003383
X011785Y004383
X009785Y004383
X017785Y010383
X005785Y003383
X017785Y009383
X007785Y001383
X005785Y010383
X012785Y003383
X000785Y015383
X005785Y009383
X006785Y003383
X012785Y010383
X017785Y004383
X008785Y001383
X006785Y010383
X012785Y009383
X013785Y003383
X006785Y009383
X005785Y004383
X013785Y010383
X013785Y009383
X014785Y003383
X012785Y004383
X000785Y016383
X006785Y004383
T00
M30
