G04 MADE WITH FRITZING*
G04 WWW.FRITZING.ORG*
G04 DOUBLE SIDED*
G04 HOLES PLATED*
G04 CONTOUR ON CENTER OF CONTOUR VECTOR*
%ASAXBY*%
%FSLAX23Y23*%
%MOIN*%
%OFA0B0*%
%SFA1.0B1.0*%
%ADD10C,0.078000*%
%ADD11C,0.024000*%
%LNCOPPER0*%
G90*
G70*
G54D10*
X1779Y438D03*
X1679Y438D03*
X1579Y438D03*
X1479Y438D03*
X1379Y438D03*
X1279Y438D03*
X1179Y438D03*
X1079Y438D03*
X979Y438D03*
X879Y438D03*
X779Y438D03*
X679Y438D03*
X579Y438D03*
X479Y438D03*
X1779Y438D03*
X1679Y438D03*
X1579Y438D03*
X1479Y438D03*
X1379Y438D03*
X1279Y438D03*
X1179Y438D03*
X1079Y438D03*
X979Y438D03*
X879Y438D03*
X779Y438D03*
X679Y438D03*
X579Y438D03*
X479Y438D03*
X1779Y338D03*
X1679Y338D03*
X1579Y338D03*
X1479Y338D03*
X1379Y338D03*
X1279Y338D03*
X1179Y338D03*
X1079Y338D03*
X979Y338D03*
X879Y338D03*
X779Y338D03*
X679Y338D03*
X579Y338D03*
X479Y338D03*
X1779Y338D03*
X1679Y338D03*
X1579Y338D03*
X1479Y338D03*
X1379Y338D03*
X1279Y338D03*
X1179Y338D03*
X1079Y338D03*
X979Y338D03*
X879Y338D03*
X779Y338D03*
X679Y338D03*
X579Y338D03*
X479Y338D03*
X1779Y938D03*
X1679Y938D03*
X1579Y938D03*
X1479Y938D03*
X1379Y938D03*
X1279Y938D03*
X1179Y938D03*
X1079Y938D03*
X979Y938D03*
X879Y938D03*
X779Y938D03*
X679Y938D03*
X579Y938D03*
X479Y938D03*
X1779Y938D03*
X1679Y938D03*
X1579Y938D03*
X1479Y938D03*
X1379Y938D03*
X1279Y938D03*
X1179Y938D03*
X1079Y938D03*
X979Y938D03*
X879Y938D03*
X779Y938D03*
X679Y938D03*
X579Y938D03*
X479Y938D03*
X1779Y1038D03*
X1679Y1038D03*
X1579Y1038D03*
X1479Y1038D03*
X1379Y1038D03*
X1279Y1038D03*
X1179Y1038D03*
X1079Y1038D03*
X979Y1038D03*
X879Y1038D03*
X779Y1038D03*
X679Y1038D03*
X579Y1038D03*
X479Y1038D03*
X1779Y1038D03*
X1679Y1038D03*
X1579Y1038D03*
X1479Y1038D03*
X1379Y1038D03*
X1279Y1038D03*
X1179Y1038D03*
X1079Y1038D03*
X979Y1038D03*
X879Y1038D03*
X779Y1038D03*
X679Y1038D03*
X579Y1038D03*
X479Y1038D03*
X1079Y138D03*
X979Y138D03*
X879Y138D03*
X779Y138D03*
X1079Y138D03*
X979Y138D03*
X879Y138D03*
X779Y138D03*
X79Y1738D03*
X79Y1638D03*
X79Y1538D03*
X79Y1438D03*
X79Y1338D03*
X79Y1238D03*
X79Y1738D03*
X79Y1638D03*
X79Y1538D03*
X79Y1438D03*
X79Y1338D03*
X79Y1238D03*
G54D11*
X1779Y368D02*
X1779Y408D01*
D02*
X1679Y368D02*
X1679Y408D01*
D02*
X1579Y368D02*
X1579Y408D01*
D02*
X1479Y368D02*
X1479Y408D01*
D02*
X1379Y368D02*
X1379Y408D01*
D02*
X1279Y368D02*
X1279Y408D01*
D02*
X1179Y368D02*
X1179Y408D01*
D02*
X1079Y368D02*
X1079Y408D01*
D02*
X979Y368D02*
X979Y408D01*
D02*
X879Y368D02*
X879Y408D01*
D02*
X779Y368D02*
X779Y408D01*
D02*
X679Y368D02*
X679Y408D01*
D02*
X579Y368D02*
X579Y408D01*
D02*
X479Y368D02*
X479Y408D01*
D02*
X1779Y968D02*
X1779Y1008D01*
D02*
X1679Y968D02*
X1679Y1008D01*
D02*
X1579Y968D02*
X1579Y1008D01*
D02*
X1479Y968D02*
X1479Y1008D01*
D02*
X1379Y968D02*
X1379Y1008D01*
D02*
X1279Y968D02*
X1279Y1008D01*
D02*
X1179Y968D02*
X1179Y1008D01*
D02*
X1079Y968D02*
X1079Y1008D01*
D02*
X979Y968D02*
X979Y1008D01*
D02*
X879Y968D02*
X879Y1008D01*
D02*
X779Y968D02*
X779Y1008D01*
D02*
X679Y968D02*
X679Y1008D01*
D02*
X579Y968D02*
X579Y1008D01*
D02*
X479Y968D02*
X479Y1008D01*
D02*
X1680Y1539D02*
X109Y1538D01*
D02*
X1779Y1437D02*
X1680Y1539D01*
D02*
X1779Y1068D02*
X1779Y1437D01*
D02*
X1578Y1437D02*
X109Y1438D01*
D02*
X1680Y1338D02*
X1578Y1437D01*
D02*
X1679Y1068D02*
X1680Y1338D01*
D02*
X1479Y1338D02*
X109Y1338D01*
D02*
X1578Y1239D02*
X1479Y1338D01*
D02*
X1578Y1068D02*
X1578Y1239D01*
D02*
X1180Y238D02*
X1100Y160D01*
D02*
X1680Y238D02*
X1180Y238D01*
D02*
X1757Y317D02*
X1680Y238D01*
D02*
X909Y138D02*
X948Y138D01*
D02*
X778Y38D02*
X857Y117D01*
D02*
X478Y38D02*
X778Y38D01*
D02*
X380Y140D02*
X478Y38D01*
D02*
X380Y739D02*
X380Y140D01*
D02*
X478Y838D02*
X380Y739D01*
D02*
X1680Y838D02*
X478Y838D01*
D02*
X1757Y917D02*
X1680Y838D01*
D02*
X1680Y238D02*
X880Y238D01*
D02*
X880Y238D02*
X800Y160D01*
D02*
X1757Y317D02*
X1680Y238D01*
G04 End of Copper0*
M02*