G04 MADE WITH FRITZING*
G04 WWW.FRITZING.ORG*
G04 DOUBLE SIDED*
G04 HOLES PLATED*
G04 CONTOUR ON CENTER OF CONTOUR VECTOR*
%ASAXBY*%
%FSLAX23Y23*%
%MOIN*%
%OFA0B0*%
%SFA1.0B1.0*%
%ADD10C,0.078000*%
%ADD11C,0.024000*%
%LNCOPPER1*%
G90*
G70*
G54D10*
X1779Y438D03*
X1679Y438D03*
X1579Y438D03*
X1479Y438D03*
X1379Y438D03*
X1279Y438D03*
X1179Y438D03*
X1079Y438D03*
X979Y438D03*
X879Y438D03*
X779Y438D03*
X679Y438D03*
X579Y438D03*
X479Y438D03*
X1779Y438D03*
X1679Y438D03*
X1579Y438D03*
X1479Y438D03*
X1379Y438D03*
X1279Y438D03*
X1179Y438D03*
X1079Y438D03*
X979Y438D03*
X879Y438D03*
X779Y438D03*
X679Y438D03*
X579Y438D03*
X479Y438D03*
X1779Y338D03*
X1679Y338D03*
X1579Y338D03*
X1479Y338D03*
X1379Y338D03*
X1279Y338D03*
X1179Y338D03*
X1079Y338D03*
X979Y338D03*
X879Y338D03*
X779Y338D03*
X679Y338D03*
X579Y338D03*
X479Y338D03*
X1779Y338D03*
X1679Y338D03*
X1579Y338D03*
X1479Y338D03*
X1379Y338D03*
X1279Y338D03*
X1179Y338D03*
X1079Y338D03*
X979Y338D03*
X879Y338D03*
X779Y338D03*
X679Y338D03*
X579Y338D03*
X479Y338D03*
X1779Y938D03*
X1679Y938D03*
X1579Y938D03*
X1479Y938D03*
X1379Y938D03*
X1279Y938D03*
X1179Y938D03*
X1079Y938D03*
X979Y938D03*
X879Y938D03*
X779Y938D03*
X679Y938D03*
X579Y938D03*
X479Y938D03*
X1779Y938D03*
X1679Y938D03*
X1579Y938D03*
X1479Y938D03*
X1379Y938D03*
X1279Y938D03*
X1179Y938D03*
X1079Y938D03*
X979Y938D03*
X879Y938D03*
X779Y938D03*
X679Y938D03*
X579Y938D03*
X479Y938D03*
X1779Y1038D03*
X1679Y1038D03*
X1579Y1038D03*
X1479Y1038D03*
X1379Y1038D03*
X1279Y1038D03*
X1179Y1038D03*
X1079Y1038D03*
X979Y1038D03*
X879Y1038D03*
X779Y1038D03*
X679Y1038D03*
X579Y1038D03*
X479Y1038D03*
X1779Y1038D03*
X1679Y1038D03*
X1579Y1038D03*
X1479Y1038D03*
X1379Y1038D03*
X1279Y1038D03*
X1179Y1038D03*
X1079Y1038D03*
X979Y1038D03*
X879Y1038D03*
X779Y1038D03*
X679Y1038D03*
X579Y1038D03*
X479Y1038D03*
X1079Y138D03*
X979Y138D03*
X879Y138D03*
X779Y138D03*
X1079Y138D03*
X979Y138D03*
X879Y138D03*
X779Y138D03*
X79Y1738D03*
X79Y1638D03*
X79Y1538D03*
X79Y1438D03*
X79Y1338D03*
X79Y1238D03*
X79Y1738D03*
X79Y1638D03*
X79Y1538D03*
X79Y1438D03*
X79Y1338D03*
X79Y1238D03*
G54D11*
X179Y637D02*
X179Y1539D01*
D02*
X179Y1539D02*
X100Y1617D01*
D02*
X277Y538D02*
X179Y637D01*
D02*
X1680Y538D02*
X277Y538D01*
D02*
X1757Y460D02*
X1680Y538D01*
G04 End of Copper1*
M02*