G04 MADE WITH FRITZING*
G04 WWW.FRITZING.ORG*
G04 DOUBLE SIDED*
G04 HOLES PLATED*
G04 CONTOUR ON CENTER OF CONTOUR VECTOR*
%ASAXBY*%
%FSLAX23Y23*%
%MOIN*%
%OFA0B0*%
%SFA1.0B1.0*%
%ADD10C,0.088000*%
%ADD11C,0.100551*%
%ADD12R,0.001000X0.001000*%
%LNMASK0*%
G90*
G70*
G54D10*
X1779Y438D03*
X1679Y438D03*
X1579Y438D03*
X1479Y438D03*
X1379Y438D03*
X1279Y438D03*
X1179Y438D03*
X1079Y438D03*
X979Y438D03*
X879Y438D03*
X779Y438D03*
X679Y438D03*
X579Y438D03*
X479Y438D03*
X1779Y438D03*
X1679Y438D03*
X1579Y438D03*
X1479Y438D03*
X1379Y438D03*
X1279Y438D03*
X1179Y438D03*
X1079Y438D03*
X979Y438D03*
X879Y438D03*
X779Y438D03*
X679Y438D03*
X579Y438D03*
X479Y438D03*
X1779Y338D03*
X1679Y338D03*
X1579Y338D03*
X1479Y338D03*
X1379Y338D03*
X1279Y338D03*
X1179Y338D03*
X1079Y338D03*
X979Y338D03*
X879Y338D03*
X779Y338D03*
X679Y338D03*
X579Y338D03*
X479Y338D03*
X1779Y338D03*
X1679Y338D03*
X1579Y338D03*
X1479Y338D03*
X1379Y338D03*
X1279Y338D03*
X1179Y338D03*
X1079Y338D03*
X979Y338D03*
X879Y338D03*
X779Y338D03*
X679Y338D03*
X579Y338D03*
X479Y338D03*
X1779Y938D03*
X1679Y938D03*
X1579Y938D03*
X1479Y938D03*
X1379Y938D03*
X1279Y938D03*
X1179Y938D03*
X1079Y938D03*
X979Y938D03*
X879Y938D03*
X779Y938D03*
X679Y938D03*
X579Y938D03*
X479Y938D03*
X1779Y938D03*
X1679Y938D03*
X1579Y938D03*
X1479Y938D03*
X1379Y938D03*
X1279Y938D03*
X1179Y938D03*
X1079Y938D03*
X979Y938D03*
X879Y938D03*
X779Y938D03*
X679Y938D03*
X579Y938D03*
X479Y938D03*
X1779Y1038D03*
X1679Y1038D03*
X1579Y1038D03*
X1479Y1038D03*
X1379Y1038D03*
X1279Y1038D03*
X1179Y1038D03*
X1079Y1038D03*
X979Y1038D03*
X879Y1038D03*
X779Y1038D03*
X679Y1038D03*
X579Y1038D03*
X479Y1038D03*
X1779Y1038D03*
X1679Y1038D03*
X1579Y1038D03*
X1479Y1038D03*
X1379Y1038D03*
X1279Y1038D03*
X1179Y1038D03*
X1079Y1038D03*
X979Y1038D03*
X879Y1038D03*
X779Y1038D03*
X679Y1038D03*
X579Y1038D03*
X479Y1038D03*
G54D11*
X1679Y1473D03*
X1579Y1473D03*
X1479Y1473D03*
X1679Y1473D03*
X1579Y1473D03*
X1479Y1473D03*
G54D10*
X279Y738D03*
X279Y838D03*
X279Y938D03*
X279Y1038D03*
X279Y738D03*
X279Y838D03*
X279Y938D03*
X279Y1038D03*
X1079Y138D03*
X979Y138D03*
X879Y138D03*
X779Y138D03*
X1079Y138D03*
X979Y138D03*
X879Y138D03*
X779Y138D03*
X79Y1738D03*
X79Y1638D03*
X79Y1538D03*
X79Y1438D03*
X79Y1338D03*
X79Y1238D03*
X79Y1738D03*
X79Y1638D03*
X79Y1538D03*
X79Y1438D03*
X79Y1338D03*
X79Y1238D03*
G54D12*
X1472Y1553D02*
X1483Y1553D01*
X1572Y1553D02*
X1583Y1553D01*
X1672Y1553D02*
X1683Y1553D01*
X1468Y1552D02*
X1488Y1552D01*
X1568Y1552D02*
X1588Y1552D01*
X1668Y1552D02*
X1688Y1552D01*
X1465Y1551D02*
X1491Y1551D01*
X1565Y1551D02*
X1591Y1551D01*
X1665Y1551D02*
X1691Y1551D01*
X1462Y1550D02*
X1494Y1550D01*
X1562Y1550D02*
X1594Y1550D01*
X1662Y1550D02*
X1694Y1550D01*
X1460Y1549D02*
X1496Y1549D01*
X1560Y1549D02*
X1596Y1549D01*
X1660Y1549D02*
X1696Y1549D01*
X1458Y1548D02*
X1498Y1548D01*
X1558Y1548D02*
X1597Y1548D01*
X1658Y1548D02*
X1697Y1548D01*
X1456Y1547D02*
X1499Y1547D01*
X1556Y1547D02*
X1599Y1547D01*
X1656Y1547D02*
X1699Y1547D01*
X1455Y1546D02*
X1501Y1546D01*
X1555Y1546D02*
X1601Y1546D01*
X1655Y1546D02*
X1701Y1546D01*
X1454Y1545D02*
X1502Y1545D01*
X1554Y1545D02*
X1602Y1545D01*
X1654Y1545D02*
X1702Y1545D01*
X1452Y1544D02*
X1503Y1544D01*
X1552Y1544D02*
X1603Y1544D01*
X1652Y1544D02*
X1703Y1544D01*
X1451Y1543D02*
X1504Y1543D01*
X1551Y1543D02*
X1604Y1543D01*
X1651Y1543D02*
X1704Y1543D01*
X1450Y1542D02*
X1506Y1542D01*
X1550Y1542D02*
X1606Y1542D01*
X1650Y1542D02*
X1706Y1542D01*
X1449Y1541D02*
X1507Y1541D01*
X1549Y1541D02*
X1607Y1541D01*
X1649Y1541D02*
X1707Y1541D01*
X1448Y1540D02*
X1508Y1540D01*
X1548Y1540D02*
X1608Y1540D01*
X1648Y1540D02*
X1708Y1540D01*
X1447Y1539D02*
X1509Y1539D01*
X1547Y1539D02*
X1608Y1539D01*
X1647Y1539D02*
X1708Y1539D01*
X1446Y1538D02*
X1509Y1538D01*
X1546Y1538D02*
X1609Y1538D01*
X1646Y1538D02*
X1709Y1538D01*
X1445Y1537D02*
X1510Y1537D01*
X1545Y1537D02*
X1610Y1537D01*
X1645Y1537D02*
X1710Y1537D01*
X1445Y1536D02*
X1511Y1536D01*
X1545Y1536D02*
X1611Y1536D01*
X1645Y1536D02*
X1711Y1536D01*
X1444Y1535D02*
X1512Y1535D01*
X1544Y1535D02*
X1612Y1535D01*
X1644Y1535D02*
X1712Y1535D01*
X1443Y1534D02*
X1512Y1534D01*
X1543Y1534D02*
X1612Y1534D01*
X1643Y1534D02*
X1712Y1534D01*
X1443Y1533D02*
X1513Y1533D01*
X1543Y1533D02*
X1613Y1533D01*
X1643Y1533D02*
X1713Y1533D01*
X1442Y1532D02*
X1514Y1532D01*
X1542Y1532D02*
X1614Y1532D01*
X1642Y1532D02*
X1714Y1532D01*
X1441Y1531D02*
X1514Y1531D01*
X1541Y1531D02*
X1614Y1531D01*
X1641Y1531D02*
X1714Y1531D01*
X1441Y1530D02*
X1515Y1530D01*
X1541Y1530D02*
X1615Y1530D01*
X1641Y1530D02*
X1715Y1530D01*
X1440Y1529D02*
X1515Y1529D01*
X1540Y1529D02*
X1615Y1529D01*
X1640Y1529D02*
X1715Y1529D01*
X1440Y1528D02*
X1516Y1528D01*
X1540Y1528D02*
X1616Y1528D01*
X1640Y1528D02*
X1716Y1528D01*
X1439Y1527D02*
X1516Y1527D01*
X1539Y1527D02*
X1616Y1527D01*
X1639Y1527D02*
X1716Y1527D01*
X1439Y1526D02*
X1516Y1526D01*
X1539Y1526D02*
X1616Y1526D01*
X1639Y1526D02*
X1716Y1526D01*
X1439Y1525D02*
X1517Y1525D01*
X1539Y1525D02*
X1617Y1525D01*
X1639Y1525D02*
X1717Y1525D01*
X1438Y1524D02*
X1517Y1524D01*
X1538Y1524D02*
X1617Y1524D01*
X1638Y1524D02*
X1717Y1524D01*
X1438Y1523D02*
X1518Y1523D01*
X1538Y1523D02*
X1618Y1523D01*
X1638Y1523D02*
X1718Y1523D01*
X1438Y1522D02*
X1518Y1522D01*
X1538Y1522D02*
X1618Y1522D01*
X1638Y1522D02*
X1718Y1522D01*
X1437Y1521D02*
X1518Y1521D01*
X1537Y1521D02*
X1618Y1521D01*
X1637Y1521D02*
X1718Y1521D01*
X1437Y1520D02*
X1518Y1520D01*
X1537Y1520D02*
X1618Y1520D01*
X1637Y1520D02*
X1718Y1520D01*
X1437Y1519D02*
X1519Y1519D01*
X1537Y1519D02*
X1619Y1519D01*
X1637Y1519D02*
X1719Y1519D01*
X1437Y1518D02*
X1519Y1518D01*
X1537Y1518D02*
X1619Y1518D01*
X1637Y1518D02*
X1719Y1518D01*
X1437Y1517D02*
X1519Y1517D01*
X1537Y1517D02*
X1619Y1517D01*
X1637Y1517D02*
X1719Y1517D01*
X1437Y1516D02*
X1519Y1516D01*
X1537Y1516D02*
X1619Y1516D01*
X1637Y1516D02*
X1719Y1516D01*
X1436Y1515D02*
X1519Y1515D01*
X1536Y1515D02*
X1619Y1515D01*
X1636Y1515D02*
X1719Y1515D01*
X1436Y1514D02*
X1519Y1514D01*
X1536Y1514D02*
X1619Y1514D01*
X1636Y1514D02*
X1719Y1514D01*
X1436Y1513D02*
X1519Y1513D01*
X1536Y1513D02*
X1619Y1513D01*
X1636Y1513D02*
X1719Y1513D01*
X1436Y1512D02*
X1519Y1512D01*
X1536Y1512D02*
X1619Y1512D01*
X1636Y1512D02*
X1719Y1512D01*
X1436Y1511D02*
X1519Y1511D01*
X1536Y1511D02*
X1619Y1511D01*
X1636Y1511D02*
X1719Y1511D01*
X1436Y1510D02*
X1519Y1510D01*
X1536Y1510D02*
X1619Y1510D01*
X1636Y1510D02*
X1719Y1510D01*
X1436Y1509D02*
X1519Y1509D01*
X1536Y1509D02*
X1619Y1509D01*
X1636Y1509D02*
X1719Y1509D01*
X1436Y1508D02*
X1519Y1508D01*
X1536Y1508D02*
X1619Y1508D01*
X1636Y1508D02*
X1719Y1508D01*
X1436Y1507D02*
X1519Y1507D01*
X1536Y1507D02*
X1619Y1507D01*
X1636Y1507D02*
X1719Y1507D01*
X1436Y1506D02*
X1519Y1506D01*
X1536Y1506D02*
X1619Y1506D01*
X1636Y1506D02*
X1719Y1506D01*
X1436Y1505D02*
X1519Y1505D01*
X1536Y1505D02*
X1619Y1505D01*
X1636Y1505D02*
X1719Y1505D01*
X1436Y1504D02*
X1519Y1504D01*
X1536Y1504D02*
X1619Y1504D01*
X1636Y1504D02*
X1719Y1504D01*
X1436Y1503D02*
X1519Y1503D01*
X1536Y1503D02*
X1619Y1503D01*
X1636Y1503D02*
X1719Y1503D01*
X1436Y1502D02*
X1519Y1502D01*
X1536Y1502D02*
X1619Y1502D01*
X1636Y1502D02*
X1719Y1502D01*
X1436Y1501D02*
X1519Y1501D01*
X1536Y1501D02*
X1619Y1501D01*
X1636Y1501D02*
X1719Y1501D01*
X1436Y1500D02*
X1519Y1500D01*
X1536Y1500D02*
X1619Y1500D01*
X1636Y1500D02*
X1719Y1500D01*
X1436Y1499D02*
X1519Y1499D01*
X1536Y1499D02*
X1619Y1499D01*
X1636Y1499D02*
X1719Y1499D01*
X1436Y1498D02*
X1519Y1498D01*
X1536Y1498D02*
X1619Y1498D01*
X1636Y1498D02*
X1719Y1498D01*
X1436Y1497D02*
X1519Y1497D01*
X1536Y1497D02*
X1619Y1497D01*
X1636Y1497D02*
X1719Y1497D01*
X1436Y1496D02*
X1519Y1496D01*
X1536Y1496D02*
X1619Y1496D01*
X1636Y1496D02*
X1719Y1496D01*
X1436Y1495D02*
X1519Y1495D01*
X1536Y1495D02*
X1619Y1495D01*
X1636Y1495D02*
X1719Y1495D01*
X1436Y1494D02*
X1519Y1494D01*
X1536Y1494D02*
X1619Y1494D01*
X1636Y1494D02*
X1719Y1494D01*
X1436Y1493D02*
X1519Y1493D01*
X1536Y1493D02*
X1619Y1493D01*
X1636Y1493D02*
X1719Y1493D01*
X1436Y1492D02*
X1519Y1492D01*
X1536Y1492D02*
X1619Y1492D01*
X1636Y1492D02*
X1719Y1492D01*
X1436Y1491D02*
X1473Y1491D01*
X1483Y1491D02*
X1519Y1491D01*
X1536Y1491D02*
X1573Y1491D01*
X1583Y1491D02*
X1619Y1491D01*
X1636Y1491D02*
X1673Y1491D01*
X1683Y1491D02*
X1719Y1491D01*
X1436Y1490D02*
X1470Y1490D01*
X1486Y1490D02*
X1519Y1490D01*
X1536Y1490D02*
X1570Y1490D01*
X1586Y1490D02*
X1619Y1490D01*
X1636Y1490D02*
X1670Y1490D01*
X1686Y1490D02*
X1719Y1490D01*
X1436Y1489D02*
X1468Y1489D01*
X1488Y1489D02*
X1519Y1489D01*
X1536Y1489D02*
X1568Y1489D01*
X1588Y1489D02*
X1619Y1489D01*
X1636Y1489D02*
X1668Y1489D01*
X1688Y1489D02*
X1719Y1489D01*
X1436Y1488D02*
X1466Y1488D01*
X1489Y1488D02*
X1519Y1488D01*
X1536Y1488D02*
X1566Y1488D01*
X1589Y1488D02*
X1619Y1488D01*
X1636Y1488D02*
X1666Y1488D01*
X1689Y1488D02*
X1719Y1488D01*
X1436Y1487D02*
X1465Y1487D01*
X1490Y1487D02*
X1519Y1487D01*
X1536Y1487D02*
X1565Y1487D01*
X1590Y1487D02*
X1619Y1487D01*
X1636Y1487D02*
X1665Y1487D01*
X1690Y1487D02*
X1719Y1487D01*
X1436Y1486D02*
X1464Y1486D01*
X1491Y1486D02*
X1519Y1486D01*
X1536Y1486D02*
X1564Y1486D01*
X1591Y1486D02*
X1619Y1486D01*
X1636Y1486D02*
X1664Y1486D01*
X1691Y1486D02*
X1719Y1486D01*
X1436Y1485D02*
X1464Y1485D01*
X1492Y1485D02*
X1519Y1485D01*
X1536Y1485D02*
X1564Y1485D01*
X1592Y1485D02*
X1619Y1485D01*
X1636Y1485D02*
X1664Y1485D01*
X1692Y1485D02*
X1719Y1485D01*
X1436Y1484D02*
X1463Y1484D01*
X1493Y1484D02*
X1519Y1484D01*
X1536Y1484D02*
X1563Y1484D01*
X1593Y1484D02*
X1619Y1484D01*
X1636Y1484D02*
X1663Y1484D01*
X1693Y1484D02*
X1719Y1484D01*
X1436Y1483D02*
X1462Y1483D01*
X1493Y1483D02*
X1519Y1483D01*
X1536Y1483D02*
X1562Y1483D01*
X1593Y1483D02*
X1619Y1483D01*
X1636Y1483D02*
X1662Y1483D01*
X1693Y1483D02*
X1719Y1483D01*
X1436Y1482D02*
X1462Y1482D01*
X1494Y1482D02*
X1519Y1482D01*
X1536Y1482D02*
X1562Y1482D01*
X1594Y1482D02*
X1619Y1482D01*
X1636Y1482D02*
X1662Y1482D01*
X1694Y1482D02*
X1719Y1482D01*
X1436Y1481D02*
X1461Y1481D01*
X1494Y1481D02*
X1519Y1481D01*
X1536Y1481D02*
X1561Y1481D01*
X1594Y1481D02*
X1619Y1481D01*
X1636Y1481D02*
X1661Y1481D01*
X1694Y1481D02*
X1719Y1481D01*
X1436Y1480D02*
X1461Y1480D01*
X1494Y1480D02*
X1519Y1480D01*
X1536Y1480D02*
X1561Y1480D01*
X1594Y1480D02*
X1619Y1480D01*
X1636Y1480D02*
X1661Y1480D01*
X1694Y1480D02*
X1719Y1480D01*
X1436Y1479D02*
X1461Y1479D01*
X1495Y1479D02*
X1519Y1479D01*
X1536Y1479D02*
X1561Y1479D01*
X1595Y1479D02*
X1619Y1479D01*
X1636Y1479D02*
X1661Y1479D01*
X1695Y1479D02*
X1719Y1479D01*
X1436Y1478D02*
X1461Y1478D01*
X1495Y1478D02*
X1519Y1478D01*
X1536Y1478D02*
X1561Y1478D01*
X1595Y1478D02*
X1619Y1478D01*
X1636Y1478D02*
X1661Y1478D01*
X1695Y1478D02*
X1719Y1478D01*
X1436Y1477D02*
X1461Y1477D01*
X1495Y1477D02*
X1519Y1477D01*
X1536Y1477D02*
X1560Y1477D01*
X1595Y1477D02*
X1619Y1477D01*
X1636Y1477D02*
X1660Y1477D01*
X1695Y1477D02*
X1719Y1477D01*
X1436Y1476D02*
X1460Y1476D01*
X1495Y1476D02*
X1519Y1476D01*
X1536Y1476D02*
X1560Y1476D01*
X1595Y1476D02*
X1619Y1476D01*
X1636Y1476D02*
X1660Y1476D01*
X1695Y1476D02*
X1719Y1476D01*
X1436Y1475D02*
X1460Y1475D01*
X1495Y1475D02*
X1519Y1475D01*
X1536Y1475D02*
X1560Y1475D01*
X1595Y1475D02*
X1619Y1475D01*
X1636Y1475D02*
X1660Y1475D01*
X1695Y1475D02*
X1719Y1475D01*
X1436Y1474D02*
X1460Y1474D01*
X1495Y1474D02*
X1519Y1474D01*
X1536Y1474D02*
X1560Y1474D01*
X1595Y1474D02*
X1619Y1474D01*
X1636Y1474D02*
X1660Y1474D01*
X1695Y1474D02*
X1719Y1474D01*
X1436Y1473D02*
X1460Y1473D01*
X1495Y1473D02*
X1519Y1473D01*
X1536Y1473D02*
X1560Y1473D01*
X1595Y1473D02*
X1619Y1473D01*
X1636Y1473D02*
X1660Y1473D01*
X1695Y1473D02*
X1719Y1473D01*
X1436Y1472D02*
X1461Y1472D01*
X1495Y1472D02*
X1519Y1472D01*
X1536Y1472D02*
X1560Y1472D01*
X1595Y1472D02*
X1619Y1472D01*
X1636Y1472D02*
X1660Y1472D01*
X1695Y1472D02*
X1719Y1472D01*
X1436Y1471D02*
X1461Y1471D01*
X1495Y1471D02*
X1519Y1471D01*
X1536Y1471D02*
X1561Y1471D01*
X1595Y1471D02*
X1619Y1471D01*
X1636Y1471D02*
X1661Y1471D01*
X1695Y1471D02*
X1719Y1471D01*
X1436Y1470D02*
X1461Y1470D01*
X1495Y1470D02*
X1519Y1470D01*
X1536Y1470D02*
X1561Y1470D01*
X1595Y1470D02*
X1619Y1470D01*
X1636Y1470D02*
X1661Y1470D01*
X1695Y1470D02*
X1719Y1470D01*
X1436Y1469D02*
X1461Y1469D01*
X1494Y1469D02*
X1519Y1469D01*
X1536Y1469D02*
X1561Y1469D01*
X1594Y1469D02*
X1619Y1469D01*
X1636Y1469D02*
X1661Y1469D01*
X1694Y1469D02*
X1719Y1469D01*
X1436Y1468D02*
X1461Y1468D01*
X1494Y1468D02*
X1519Y1468D01*
X1536Y1468D02*
X1561Y1468D01*
X1594Y1468D02*
X1619Y1468D01*
X1636Y1468D02*
X1661Y1468D01*
X1694Y1468D02*
X1719Y1468D01*
X1436Y1467D02*
X1462Y1467D01*
X1494Y1467D02*
X1519Y1467D01*
X1536Y1467D02*
X1562Y1467D01*
X1594Y1467D02*
X1619Y1467D01*
X1636Y1467D02*
X1662Y1467D01*
X1694Y1467D02*
X1719Y1467D01*
X1436Y1466D02*
X1462Y1466D01*
X1493Y1466D02*
X1519Y1466D01*
X1536Y1466D02*
X1562Y1466D01*
X1593Y1466D02*
X1619Y1466D01*
X1636Y1466D02*
X1662Y1466D01*
X1693Y1466D02*
X1719Y1466D01*
X1436Y1465D02*
X1463Y1465D01*
X1493Y1465D02*
X1519Y1465D01*
X1536Y1465D02*
X1563Y1465D01*
X1593Y1465D02*
X1619Y1465D01*
X1636Y1465D02*
X1663Y1465D01*
X1693Y1465D02*
X1719Y1465D01*
X1436Y1464D02*
X1464Y1464D01*
X1492Y1464D02*
X1519Y1464D01*
X1536Y1464D02*
X1564Y1464D01*
X1592Y1464D02*
X1619Y1464D01*
X1636Y1464D02*
X1664Y1464D01*
X1692Y1464D02*
X1719Y1464D01*
X1436Y1463D02*
X1464Y1463D01*
X1491Y1463D02*
X1519Y1463D01*
X1536Y1463D02*
X1564Y1463D01*
X1591Y1463D02*
X1619Y1463D01*
X1636Y1463D02*
X1664Y1463D01*
X1691Y1463D02*
X1719Y1463D01*
X1436Y1462D02*
X1465Y1462D01*
X1490Y1462D02*
X1519Y1462D01*
X1536Y1462D02*
X1565Y1462D01*
X1590Y1462D02*
X1619Y1462D01*
X1636Y1462D02*
X1665Y1462D01*
X1690Y1462D02*
X1719Y1462D01*
X1436Y1461D02*
X1467Y1461D01*
X1489Y1461D02*
X1519Y1461D01*
X1536Y1461D02*
X1567Y1461D01*
X1589Y1461D02*
X1619Y1461D01*
X1636Y1461D02*
X1667Y1461D01*
X1689Y1461D02*
X1719Y1461D01*
X1436Y1460D02*
X1468Y1460D01*
X1488Y1460D02*
X1519Y1460D01*
X1536Y1460D02*
X1568Y1460D01*
X1588Y1460D02*
X1619Y1460D01*
X1636Y1460D02*
X1668Y1460D01*
X1688Y1460D02*
X1719Y1460D01*
X1436Y1459D02*
X1470Y1459D01*
X1486Y1459D02*
X1519Y1459D01*
X1536Y1459D02*
X1570Y1459D01*
X1586Y1459D02*
X1619Y1459D01*
X1636Y1459D02*
X1670Y1459D01*
X1686Y1459D02*
X1719Y1459D01*
X1436Y1458D02*
X1473Y1458D01*
X1482Y1458D02*
X1519Y1458D01*
X1536Y1458D02*
X1573Y1458D01*
X1582Y1458D02*
X1619Y1458D01*
X1636Y1458D02*
X1673Y1458D01*
X1682Y1458D02*
X1719Y1458D01*
X1436Y1457D02*
X1519Y1457D01*
X1536Y1457D02*
X1619Y1457D01*
X1636Y1457D02*
X1719Y1457D01*
X1436Y1456D02*
X1519Y1456D01*
X1536Y1456D02*
X1619Y1456D01*
X1636Y1456D02*
X1719Y1456D01*
X1436Y1455D02*
X1519Y1455D01*
X1536Y1455D02*
X1619Y1455D01*
X1636Y1455D02*
X1719Y1455D01*
X1436Y1454D02*
X1519Y1454D01*
X1536Y1454D02*
X1619Y1454D01*
X1636Y1454D02*
X1719Y1454D01*
X1436Y1453D02*
X1519Y1453D01*
X1536Y1453D02*
X1619Y1453D01*
X1636Y1453D02*
X1719Y1453D01*
X1436Y1452D02*
X1519Y1452D01*
X1536Y1452D02*
X1619Y1452D01*
X1636Y1452D02*
X1719Y1452D01*
X1436Y1451D02*
X1519Y1451D01*
X1536Y1451D02*
X1619Y1451D01*
X1636Y1451D02*
X1719Y1451D01*
X1436Y1450D02*
X1519Y1450D01*
X1536Y1450D02*
X1619Y1450D01*
X1636Y1450D02*
X1719Y1450D01*
X1436Y1449D02*
X1519Y1449D01*
X1536Y1449D02*
X1619Y1449D01*
X1636Y1449D02*
X1719Y1449D01*
X1436Y1448D02*
X1519Y1448D01*
X1536Y1448D02*
X1619Y1448D01*
X1636Y1448D02*
X1719Y1448D01*
X1436Y1447D02*
X1519Y1447D01*
X1536Y1447D02*
X1619Y1447D01*
X1636Y1447D02*
X1719Y1447D01*
X1436Y1446D02*
X1519Y1446D01*
X1536Y1446D02*
X1619Y1446D01*
X1636Y1446D02*
X1719Y1446D01*
X1436Y1445D02*
X1519Y1445D01*
X1536Y1445D02*
X1619Y1445D01*
X1636Y1445D02*
X1719Y1445D01*
X1436Y1444D02*
X1519Y1444D01*
X1536Y1444D02*
X1619Y1444D01*
X1636Y1444D02*
X1719Y1444D01*
X1436Y1443D02*
X1519Y1443D01*
X1536Y1443D02*
X1619Y1443D01*
X1636Y1443D02*
X1719Y1443D01*
X1436Y1442D02*
X1519Y1442D01*
X1536Y1442D02*
X1619Y1442D01*
X1636Y1442D02*
X1719Y1442D01*
X1436Y1441D02*
X1519Y1441D01*
X1536Y1441D02*
X1619Y1441D01*
X1636Y1441D02*
X1719Y1441D01*
X1436Y1440D02*
X1519Y1440D01*
X1536Y1440D02*
X1619Y1440D01*
X1636Y1440D02*
X1719Y1440D01*
X1436Y1439D02*
X1519Y1439D01*
X1536Y1439D02*
X1619Y1439D01*
X1636Y1439D02*
X1719Y1439D01*
X1436Y1438D02*
X1519Y1438D01*
X1536Y1438D02*
X1619Y1438D01*
X1636Y1438D02*
X1719Y1438D01*
X1436Y1437D02*
X1519Y1437D01*
X1536Y1437D02*
X1619Y1437D01*
X1636Y1437D02*
X1719Y1437D01*
X1436Y1436D02*
X1519Y1436D01*
X1536Y1436D02*
X1619Y1436D01*
X1636Y1436D02*
X1719Y1436D01*
X1436Y1435D02*
X1519Y1435D01*
X1536Y1435D02*
X1619Y1435D01*
X1636Y1435D02*
X1719Y1435D01*
X1436Y1434D02*
X1519Y1434D01*
X1536Y1434D02*
X1619Y1434D01*
X1636Y1434D02*
X1719Y1434D01*
X1437Y1433D02*
X1519Y1433D01*
X1537Y1433D02*
X1619Y1433D01*
X1637Y1433D02*
X1719Y1433D01*
X1437Y1432D02*
X1519Y1432D01*
X1537Y1432D02*
X1619Y1432D01*
X1637Y1432D02*
X1719Y1432D01*
X1437Y1431D02*
X1519Y1431D01*
X1537Y1431D02*
X1619Y1431D01*
X1637Y1431D02*
X1719Y1431D01*
X1437Y1430D02*
X1519Y1430D01*
X1537Y1430D02*
X1619Y1430D01*
X1637Y1430D02*
X1718Y1430D01*
X1437Y1429D02*
X1518Y1429D01*
X1537Y1429D02*
X1618Y1429D01*
X1637Y1429D02*
X1718Y1429D01*
X1438Y1428D02*
X1518Y1428D01*
X1538Y1428D02*
X1618Y1428D01*
X1637Y1428D02*
X1718Y1428D01*
X1438Y1427D02*
X1518Y1427D01*
X1538Y1427D02*
X1618Y1427D01*
X1638Y1427D02*
X1718Y1427D01*
X1438Y1426D02*
X1518Y1426D01*
X1538Y1426D02*
X1617Y1426D01*
X1638Y1426D02*
X1717Y1426D01*
X1438Y1425D02*
X1517Y1425D01*
X1538Y1425D02*
X1617Y1425D01*
X1638Y1425D02*
X1717Y1425D01*
X1439Y1424D02*
X1517Y1424D01*
X1539Y1424D02*
X1617Y1424D01*
X1639Y1424D02*
X1717Y1424D01*
X1439Y1423D02*
X1516Y1423D01*
X1539Y1423D02*
X1616Y1423D01*
X1639Y1423D02*
X1716Y1423D01*
X1439Y1422D02*
X1516Y1422D01*
X1539Y1422D02*
X1616Y1422D01*
X1639Y1422D02*
X1716Y1422D01*
X1440Y1421D02*
X1516Y1421D01*
X1540Y1421D02*
X1616Y1421D01*
X1640Y1421D02*
X1716Y1421D01*
X1440Y1420D02*
X1515Y1420D01*
X1540Y1420D02*
X1615Y1420D01*
X1640Y1420D02*
X1715Y1420D01*
X1441Y1419D02*
X1515Y1419D01*
X1541Y1419D02*
X1615Y1419D01*
X1641Y1419D02*
X1715Y1419D01*
X1441Y1418D02*
X1514Y1418D01*
X1541Y1418D02*
X1614Y1418D01*
X1641Y1418D02*
X1714Y1418D01*
X1442Y1417D02*
X1514Y1417D01*
X1542Y1417D02*
X1614Y1417D01*
X1642Y1417D02*
X1714Y1417D01*
X1443Y1416D02*
X1513Y1416D01*
X1543Y1416D02*
X1613Y1416D01*
X1643Y1416D02*
X1713Y1416D01*
X1443Y1415D02*
X1512Y1415D01*
X1543Y1415D02*
X1612Y1415D01*
X1643Y1415D02*
X1712Y1415D01*
X1444Y1414D02*
X1512Y1414D01*
X1544Y1414D02*
X1612Y1414D01*
X1644Y1414D02*
X1712Y1414D01*
X1445Y1413D02*
X1511Y1413D01*
X1545Y1413D02*
X1611Y1413D01*
X1645Y1413D02*
X1711Y1413D01*
X1445Y1412D02*
X1510Y1412D01*
X1545Y1412D02*
X1610Y1412D01*
X1645Y1412D02*
X1710Y1412D01*
X1446Y1411D02*
X1509Y1411D01*
X1546Y1411D02*
X1609Y1411D01*
X1646Y1411D02*
X1709Y1411D01*
X1447Y1410D02*
X1508Y1410D01*
X1547Y1410D02*
X1608Y1410D01*
X1647Y1410D02*
X1708Y1410D01*
X1448Y1409D02*
X1508Y1409D01*
X1548Y1409D02*
X1608Y1409D01*
X1648Y1409D02*
X1707Y1409D01*
X1449Y1408D02*
X1507Y1408D01*
X1549Y1408D02*
X1607Y1408D01*
X1649Y1408D02*
X1707Y1408D01*
X1450Y1407D02*
X1505Y1407D01*
X1550Y1407D02*
X1605Y1407D01*
X1650Y1407D02*
X1705Y1407D01*
X1451Y1406D02*
X1504Y1406D01*
X1551Y1406D02*
X1604Y1406D01*
X1651Y1406D02*
X1704Y1406D01*
X1452Y1405D02*
X1503Y1405D01*
X1552Y1405D02*
X1603Y1405D01*
X1652Y1405D02*
X1703Y1405D01*
X1454Y1404D02*
X1502Y1404D01*
X1554Y1404D02*
X1602Y1404D01*
X1654Y1404D02*
X1702Y1404D01*
X1455Y1403D02*
X1501Y1403D01*
X1555Y1403D02*
X1601Y1403D01*
X1655Y1403D02*
X1701Y1403D01*
X1457Y1402D02*
X1499Y1402D01*
X1557Y1402D02*
X1599Y1402D01*
X1657Y1402D02*
X1699Y1402D01*
X1458Y1401D02*
X1497Y1401D01*
X1558Y1401D02*
X1597Y1401D01*
X1658Y1401D02*
X1697Y1401D01*
X1460Y1400D02*
X1495Y1400D01*
X1560Y1400D02*
X1595Y1400D01*
X1660Y1400D02*
X1695Y1400D01*
X1462Y1399D02*
X1493Y1399D01*
X1562Y1399D02*
X1593Y1399D01*
X1662Y1399D02*
X1693Y1399D01*
X1465Y1398D02*
X1491Y1398D01*
X1565Y1398D02*
X1591Y1398D01*
X1665Y1398D02*
X1691Y1398D01*
X1468Y1397D02*
X1488Y1397D01*
X1568Y1397D02*
X1588Y1397D01*
X1668Y1397D02*
X1688Y1397D01*
X1473Y1396D02*
X1483Y1396D01*
X1573Y1396D02*
X1583Y1396D01*
X1673Y1396D02*
X1683Y1396D01*
D02*
G04 End of Mask0*
M02*